<?xml version="1.0" encoding="UTF-8"?>
<svg xmlns="http://www.w3.org/2000/svg"
     xmlns:xlink="http://www.w3.org/1999/xlink"
     xmlns:gadfly="http://www.gadflyjl.org/ns"
     version="1.2"
     width="141.42mm" height="100mm" viewBox="0 0 141.42 100"
     stroke="none"
     fill="#000000"
     stroke-width="0.3"
     font-size="3.88"
>
<g class="plotroot xscalable yscalable" id="fig-8e4db1c2bd88480990578bd69afd8733-element-1">
  <g font-size="3.88" font-family="'PT Sans','Helvetica Neue','Helvetica',sans-serif" fill="#564A55" stroke="#000000" stroke-opacity="0.000" id="fig-8e4db1c2bd88480990578bd69afd8733-element-2">
    <text x="64.97" y="88.39" text-anchor="middle" dy="0.6em">X0te</text>
  </g>
  <g class="guide xlabels" font-size="2.82" font-family="'PT Sans Caption','Helvetica Neue','Helvetica',sans-serif" fill="#6C606B" id="fig-8e4db1c2bd88480990578bd69afd8733-element-3">
    <text x="19.96" y="81.72" text-anchor="middle" dy="0.6em">7</text>
    <text x="37.96" y="81.72" text-anchor="middle" dy="0.6em">8</text>
    <text x="55.96" y="81.72" text-anchor="middle" dy="0.6em">9</text>
    <text x="73.97" y="81.72" text-anchor="middle" dy="0.6em">10</text>
    <text x="91.97" y="81.72" text-anchor="middle" dy="0.6em">11</text>
    <text x="109.97" y="81.72" text-anchor="middle" dy="0.6em">12</text>
  </g>
  <g class="guide colorkey" id="fig-8e4db1c2bd88480990578bd69afd8733-element-4">
    <g fill="#4C404B" font-size="2.82" font-family="'PT Sans','Helvetica Neue','Helvetica',sans-serif" id="fig-8e4db1c2bd88480990578bd69afd8733-element-5">
      <text x="115.79" y="46.66" dy="0.35em">Least Squares Fit</text>
      <text x="115.79" y="50.29" dy="0.35em">Data</text>
    </g>
    <g stroke="#000000" stroke-opacity="0.000" id="fig-8e4db1c2bd88480990578bd69afd8733-element-6">
      <rect x="112.97" y="45.76" width="1.81" height="1.81" fill="#008000"/>
      <rect x="112.97" y="49.38" width="1.81" height="1.81" fill="#00BFFF"/>
    </g>
    <g fill="#362A35" font-size="3.88" font-family="'PT Sans','Helvetica Neue','Helvetica',sans-serif" stroke="#000000" stroke-opacity="0.000" id="fig-8e4db1c2bd88480990578bd69afd8733-element-7">
      <text x="112.97" y="42.84">Legend</text>
    </g>
  </g>
  <g clip-path="url(#fig-8e4db1c2bd88480990578bd69afd8733-element-9)" id="fig-8e4db1c2bd88480990578bd69afd8733-element-8">
    <g pointer-events="visible" opacity="1" fill="#000000" fill-opacity="0.000" stroke="#000000" stroke-opacity="0.000" class="guide background" id="fig-8e4db1c2bd88480990578bd69afd8733-element-10">
      <rect x="17.96" y="12.61" width="94.02" height="68.1"/>
    </g>
    <g class="guide ygridlines xfixed" stroke-dasharray="0.5,0.5" stroke-width="0.2" stroke="#D0D0E0" id="fig-8e4db1c2bd88480990578bd69afd8733-element-11">
      <path fill="none" d="M17.96,78.72 L 111.97 78.72"/>
      <path fill="none" d="M17.96,62.69 L 111.97 62.69"/>
      <path fill="none" d="M17.96,46.66 L 111.97 46.66"/>
      <path fill="none" d="M17.96,30.64 L 111.97 30.64"/>
      <path fill="none" d="M17.96,14.61 L 111.97 14.61"/>
    </g>
    <g class="guide xgridlines yfixed" stroke-dasharray="0.5,0.5" stroke-width="0.2" stroke="#D0D0E0" id="fig-8e4db1c2bd88480990578bd69afd8733-element-12">
      <path fill="none" d="M19.96,12.61 L 19.96 80.72"/>
      <path fill="none" d="M37.96,12.61 L 37.96 80.72"/>
      <path fill="none" d="M55.96,12.61 L 55.96 80.72"/>
      <path fill="none" d="M73.97,12.61 L 73.97 80.72"/>
      <path fill="none" d="M91.97,12.61 L 91.97 80.72"/>
      <path fill="none" d="M109.97,12.61 L 109.97 80.72"/>
    </g>
    <g class="plotpanel" id="fig-8e4db1c2bd88480990578bd69afd8733-element-13">
      <g class="geometry" id="fig-8e4db1c2bd88480990578bd69afd8733-element-14">
        <g class="color_RGBA{Float32}(0.0f0,0.74736935f0,1.0f0,1.0f0)" stroke="#FFFFFF" stroke-width="0.3" fill="#00BFFF" id="fig-8e4db1c2bd88480990578bd69afd8733-element-15">
          <circle cx="72.49" cy="38.16" r="0.9"/>
          <circle cx="42.93" cy="47.7" r="0.9"/>
          <circle cx="38.63" cy="44.56" r="0.9"/>
          <circle cx="59.79" cy="38.19" r="0.9"/>
          <circle cx="70.84" cy="39.02" r="0.9"/>
          <circle cx="73.3" cy="32.48" r="0.9"/>
          <circle cx="67.35" cy="36.73" r="0.9"/>
          <circle cx="77.54" cy="31.8" r="0.9"/>
          <circle cx="66.63" cy="33.3" r="0.9"/>
          <circle cx="69.57" cy="35.51" r="0.9"/>
          <circle cx="57.27" cy="40.72" r="0.9"/>
          <circle cx="73.19" cy="31.39" r="0.9"/>
          <circle cx="60.08" cy="36.99" r="0.9"/>
          <circle cx="54.48" cy="37.94" r="0.9"/>
          <circle cx="45.93" cy="47.91" r="0.9"/>
          <circle cx="60.9" cy="38.13" r="0.9"/>
          <circle cx="72.28" cy="32.22" r="0.9"/>
          <circle cx="74.49" cy="41.33" r="0.9"/>
          <circle cx="73.29" cy="35.97" r="0.9"/>
          <circle cx="63.49" cy="36.27" r="0.9"/>
          <circle cx="65.24" cy="36.49" r="0.9"/>
          <circle cx="71.23" cy="34.56" r="0.9"/>
          <circle cx="62.82" cy="38.22" r="0.9"/>
          <circle cx="63.55" cy="42" r="0.9"/>
          <circle cx="58.5" cy="39.75" r="0.9"/>
          <circle cx="54.91" cy="41.31" r="0.9"/>
          <circle cx="75.5" cy="34" r="0.9"/>
          <circle cx="75.12" cy="39.7" r="0.9"/>
          <circle cx="52.43" cy="43.09" r="0.9"/>
          <circle cx="66.12" cy="36.46" r="0.9"/>
          <circle cx="64.13" cy="38.88" r="0.9"/>
          <circle cx="69.19" cy="36.9" r="0.9"/>
          <circle cx="62.67" cy="39.43" r="0.9"/>
          <circle cx="65.18" cy="40.49" r="0.9"/>
          <circle cx="66.88" cy="32.86" r="0.9"/>
          <circle cx="51.04" cy="37.7" r="0.9"/>
          <circle cx="65.41" cy="35.09" r="0.9"/>
          <circle cx="49.71" cy="43.03" r="0.9"/>
          <circle cx="94" cy="27.36" r="0.9"/>
          <circle cx="51.46" cy="40.69" r="0.9"/>
          <circle cx="64.1" cy="36.66" r="0.9"/>
          <circle cx="69.61" cy="34" r="0.9"/>
          <circle cx="53.64" cy="39.97" r="0.9"/>
          <circle cx="70.91" cy="36.07" r="0.9"/>
          <circle cx="82.51" cy="29.44" r="0.9"/>
          <circle cx="69.58" cy="37.01" r="0.9"/>
          <circle cx="55.07" cy="43.67" r="0.9"/>
          <circle cx="51.82" cy="42.02" r="0.9"/>
          <circle cx="58.18" cy="34.83" r="0.9"/>
          <circle cx="59.84" cy="37.85" r="0.9"/>
          <circle cx="60.47" cy="33.42" r="0.9"/>
          <circle cx="54.92" cy="38.62" r="0.9"/>
          <circle cx="77.59" cy="30.24" r="0.9"/>
          <circle cx="77.89" cy="31.23" r="0.9"/>
          <circle cx="80.08" cy="38.08" r="0.9"/>
          <circle cx="66.36" cy="36.5" r="0.9"/>
          <circle cx="82.04" cy="32.64" r="0.9"/>
          <circle cx="64.17" cy="33.44" r="0.9"/>
          <circle cx="79.07" cy="33.82" r="0.9"/>
          <circle cx="89.74" cy="29.09" r="0.9"/>
          <circle cx="47.82" cy="46.21" r="0.9"/>
          <circle cx="89.05" cy="29.22" r="0.9"/>
          <circle cx="75.59" cy="36.63" r="0.9"/>
          <circle cx="52.81" cy="41.95" r="0.9"/>
          <circle cx="50.32" cy="45.07" r="0.9"/>
          <circle cx="66.7" cy="35.92" r="0.9"/>
          <circle cx="67.69" cy="32.71" r="0.9"/>
          <circle cx="44.1" cy="49.69" r="0.9"/>
          <circle cx="63.68" cy="40.49" r="0.9"/>
          <circle cx="72.92" cy="34.38" r="0.9"/>
          <circle cx="69.83" cy="34.21" r="0.9"/>
          <circle cx="52" cy="41.25" r="0.9"/>
          <circle cx="67.49" cy="37.14" r="0.9"/>
          <circle cx="56.17" cy="40.37" r="0.9"/>
          <circle cx="69.15" cy="33.16" r="0.9"/>
          <circle cx="59.93" cy="37.45" r="0.9"/>
          <circle cx="73.55" cy="30.31" r="0.9"/>
          <circle cx="59.31" cy="40.12" r="0.9"/>
          <circle cx="69.25" cy="34.82" r="0.9"/>
          <circle cx="72.65" cy="44.22" r="0.9"/>
          <circle cx="53.94" cy="40.86" r="0.9"/>
          <circle cx="51.92" cy="46.55" r="0.9"/>
          <circle cx="71.51" cy="37.39" r="0.9"/>
          <circle cx="51.15" cy="39.85" r="0.9"/>
          <circle cx="74.92" cy="36.88" r="0.9"/>
          <circle cx="66.66" cy="42.56" r="0.9"/>
          <circle cx="49.73" cy="45.2" r="0.9"/>
          <circle cx="76.01" cy="35.89" r="0.9"/>
          <circle cx="61.71" cy="41.39" r="0.9"/>
          <circle cx="77.59" cy="33.12" r="0.9"/>
          <circle cx="41.38" cy="53.95" r="0.9"/>
          <circle cx="71.29" cy="35.27" r="0.9"/>
          <circle cx="68.07" cy="35.94" r="0.9"/>
          <circle cx="50.83" cy="39.08" r="0.9"/>
          <circle cx="67.51" cy="37.51" r="0.9"/>
          <circle cx="68.92" cy="42.99" r="0.9"/>
          <circle cx="72.73" cy="43.79" r="0.9"/>
          <circle cx="72.8" cy="39.09" r="0.9"/>
          <circle cx="79.96" cy="36.83" r="0.9"/>
          <circle cx="71.4" cy="37.56" r="0.9"/>
          <circle cx="66.84" cy="39.7" r="0.9"/>
          <circle cx="76.08" cy="32.95" r="0.9"/>
          <circle cx="64.44" cy="39.1" r="0.9"/>
          <circle cx="66.34" cy="37.24" r="0.9"/>
          <circle cx="58.51" cy="42.49" r="0.9"/>
          <circle cx="87.72" cy="37.56" r="0.9"/>
          <circle cx="54.8" cy="37.92" r="0.9"/>
          <circle cx="55.16" cy="41.59" r="0.9"/>
          <circle cx="67.99" cy="34.85" r="0.9"/>
          <circle cx="77.53" cy="30.99" r="0.9"/>
          <circle cx="34.95" cy="48.62" r="0.9"/>
          <circle cx="56.06" cy="43.6" r="0.9"/>
          <circle cx="59.88" cy="41.23" r="0.9"/>
          <circle cx="44.71" cy="55.7" r="0.9"/>
          <circle cx="44.69" cy="50.19" r="0.9"/>
          <circle cx="58.53" cy="55.53" r="0.9"/>
          <circle cx="40.71" cy="52.67" r="0.9"/>
          <circle cx="69.55" cy="38.64" r="0.9"/>
          <circle cx="63.45" cy="40.06" r="0.9"/>
          <circle cx="42.85" cy="56.62" r="0.9"/>
          <circle cx="48.87" cy="42.51" r="0.9"/>
          <circle cx="58.81" cy="45.8" r="0.9"/>
          <circle cx="45.95" cy="50.79" r="0.9"/>
          <circle cx="66.21" cy="39.65" r="0.9"/>
          <circle cx="79.39" cy="39.82" r="0.9"/>
          <circle cx="48.95" cy="43.81" r="0.9"/>
          <circle cx="62.89" cy="37.4" r="0.9"/>
          <circle cx="46.88" cy="48.98" r="0.9"/>
          <circle cx="69.46" cy="41.77" r="0.9"/>
          <circle cx="85.28" cy="30.77" r="0.9"/>
          <circle cx="55.19" cy="53.84" r="0.9"/>
          <circle cx="103.78" cy="30.57" r="0.9"/>
          <circle cx="57.81" cy="39.62" r="0.9"/>
          <circle cx="79.02" cy="34.05" r="0.9"/>
          <circle cx="57.27" cy="40.08" r="0.9"/>
          <circle cx="68.78" cy="40.57" r="0.9"/>
          <circle cx="40.59" cy="54.6" r="0.9"/>
          <circle cx="39.29" cy="48.38" r="0.9"/>
          <circle cx="56.15" cy="46.29" r="0.9"/>
          <circle cx="71.22" cy="33.77" r="0.9"/>
          <circle cx="80.76" cy="31.45" r="0.9"/>
          <circle cx="43.31" cy="48.93" r="0.9"/>
          <circle cx="68.87" cy="37.16" r="0.9"/>
          <circle cx="84.49" cy="33.65" r="0.9"/>
          <circle cx="58.97" cy="39.98" r="0.9"/>
          <circle cx="60.99" cy="41.16" r="0.9"/>
          <circle cx="56.91" cy="45.92" r="0.9"/>
          <circle cx="54.78" cy="45.63" r="0.9"/>
          <circle cx="63.2" cy="39.31" r="0.9"/>
          <circle cx="70.5" cy="33.74" r="0.9"/>
          <circle cx="61.54" cy="37.58" r="0.9"/>
          <circle cx="79.03" cy="37.66" r="0.9"/>
          <circle cx="95.63" cy="23.92" r="0.9"/>
          <circle cx="77.66" cy="33.37" r="0.9"/>
          <circle cx="61.89" cy="42.16" r="0.9"/>
          <circle cx="72.68" cy="34.54" r="0.9"/>
          <circle cx="58.7" cy="43.95" r="0.9"/>
          <circle cx="84.73" cy="30.46" r="0.9"/>
          <circle cx="78.23" cy="37.67" r="0.9"/>
          <circle cx="95.5" cy="28.39" r="0.9"/>
          <circle cx="59.49" cy="46.23" r="0.9"/>
          <circle cx="84.62" cy="35.38" r="0.9"/>
          <circle cx="80.7" cy="34.45" r="0.9"/>
          <circle cx="86.53" cy="31.1" r="0.9"/>
          <circle cx="79.05" cy="36.54" r="0.9"/>
          <circle cx="58.75" cy="47.37" r="0.9"/>
          <circle cx="73.83" cy="35.75" r="0.9"/>
          <circle cx="83.15" cy="31.14" r="0.9"/>
          <circle cx="62.94" cy="42.46" r="0.9"/>
          <circle cx="79.68" cy="31.95" r="0.9"/>
          <circle cx="75.21" cy="34" r="0.9"/>
          <circle cx="82.01" cy="31.92" r="0.9"/>
          <circle cx="75.75" cy="35.84" r="0.9"/>
          <circle cx="76.93" cy="34.9" r="0.9"/>
          <circle cx="80.65" cy="34.59" r="0.9"/>
          <circle cx="82.08" cy="36.67" r="0.9"/>
          <circle cx="57.93" cy="40.12" r="0.9"/>
          <circle cx="86.34" cy="31.71" r="0.9"/>
          <circle cx="81.2" cy="32.28" r="0.9"/>
          <circle cx="89.58" cy="32.03" r="0.9"/>
          <circle cx="89.22" cy="31.19" r="0.9"/>
          <circle cx="66.32" cy="41.92" r="0.9"/>
          <circle cx="73.24" cy="36.44" r="0.9"/>
          <circle cx="75.12" cy="35.84" r="0.9"/>
          <circle cx="71.49" cy="32.75" r="0.9"/>
          <circle cx="76.8" cy="33.83" r="0.9"/>
          <circle cx="65.53" cy="36.1" r="0.9"/>
          <circle cx="72.77" cy="36.11" r="0.9"/>
          <circle cx="74.46" cy="36.21" r="0.9"/>
          <circle cx="88.47" cy="26.01" r="0.9"/>
          <circle cx="81.61" cy="29.56" r="0.9"/>
          <circle cx="77.52" cy="35.61" r="0.9"/>
          <circle cx="83.98" cy="37.14" r="0.9"/>
          <circle cx="93.79" cy="28.54" r="0.9"/>
          <circle cx="56.19" cy="42.97" r="0.9"/>
          <circle cx="66.79" cy="37.27" r="0.9"/>
          <circle cx="85.92" cy="33.31" r="0.9"/>
          <circle cx="59.4" cy="43.29" r="0.9"/>
          <circle cx="64.98" cy="43.28" r="0.9"/>
          <circle cx="81.86" cy="33.85" r="0.9"/>
          <circle cx="72.44" cy="38.4" r="0.9"/>
          <circle cx="82.42" cy="36.1" r="0.9"/>
          <circle cx="79.48" cy="34.43" r="0.9"/>
          <circle cx="69.03" cy="42.69" r="0.9"/>
          <circle cx="87.47" cy="31.6" r="0.9"/>
          <circle cx="74.07" cy="37.05" r="0.9"/>
          <circle cx="99.61" cy="31.75" r="0.9"/>
          <circle cx="91.11" cy="32.34" r="0.9"/>
          <circle cx="86.09" cy="29.47" r="0.9"/>
          <circle cx="85.61" cy="32.22" r="0.9"/>
          <circle cx="91.68" cy="27" r="0.9"/>
          <circle cx="76.81" cy="36.41" r="0.9"/>
          <circle cx="96.4" cy="33.71" r="0.9"/>
          <circle cx="79.42" cy="37.21" r="0.9"/>
          <circle cx="80.3" cy="29.77" r="0.9"/>
          <circle cx="98.64" cy="31.52" r="0.9"/>
          <circle cx="88.35" cy="33.36" r="0.9"/>
          <circle cx="92" cy="32.08" r="0.9"/>
          <circle cx="68.13" cy="43.21" r="0.9"/>
          <circle cx="93.85" cy="30.14" r="0.9"/>
          <circle cx="77.52" cy="37.94" r="0.9"/>
          <circle cx="69.18" cy="44.88" r="0.9"/>
          <circle cx="80.11" cy="34.12" r="0.9"/>
          <circle cx="74.34" cy="33" r="0.9"/>
          <circle cx="68.27" cy="39.94" r="0.9"/>
          <circle cx="69.23" cy="36.58" r="0.9"/>
          <circle cx="69.09" cy="39.32" r="0.9"/>
          <circle cx="73.54" cy="38.28" r="0.9"/>
          <circle cx="90.05" cy="30.28" r="0.9"/>
          <circle cx="85.9" cy="31.09" r="0.9"/>
          <circle cx="67.17" cy="36.13" r="0.9"/>
          <circle cx="77.2" cy="30.53" r="0.9"/>
          <circle cx="76.76" cy="37.87" r="0.9"/>
          <circle cx="73.96" cy="40.19" r="0.9"/>
          <circle cx="73.54" cy="35.4" r="0.9"/>
          <circle cx="82.73" cy="32.01" r="0.9"/>
          <circle cx="76.19" cy="33.92" r="0.9"/>
          <circle cx="34.76" cy="52.81" r="0.9"/>
          <circle cx="67.18" cy="35.34" r="0.9"/>
          <circle cx="77.71" cy="32.71" r="0.9"/>
          <circle cx="81.37" cy="34.03" r="0.9"/>
          <circle cx="81.91" cy="34.99" r="0.9"/>
          <circle cx="92.8" cy="30.56" r="0.9"/>
          <circle cx="75.35" cy="39.51" r="0.9"/>
          <circle cx="58.82" cy="41.38" r="0.9"/>
          <circle cx="55.43" cy="47.23" r="0.9"/>
          <circle cx="64.88" cy="42.15" r="0.9"/>
          <circle cx="71.26" cy="37.38" r="0.9"/>
          <circle cx="75.28" cy="37.75" r="0.9"/>
          <circle cx="83.55" cy="33.95" r="0.9"/>
          <circle cx="82.26" cy="37.85" r="0.9"/>
          <circle cx="76.62" cy="35.14" r="0.9"/>
          <circle cx="79.09" cy="36.14" r="0.9"/>
          <circle cx="83.15" cy="36.75" r="0.9"/>
          <circle cx="76.65" cy="40.81" r="0.9"/>
          <circle cx="83.61" cy="36.85" r="0.9"/>
          <circle cx="63.28" cy="40.29" r="0.9"/>
          <circle cx="60.22" cy="43.29" r="0.9"/>
          <circle cx="97.48" cy="30.61" r="0.9"/>
          <circle cx="83.66" cy="31.61" r="0.9"/>
          <circle cx="93.1" cy="29.63" r="0.9"/>
          <circle cx="77.43" cy="35.29" r="0.9"/>
          <circle cx="81.73" cy="33.99" r="0.9"/>
          <circle cx="80.05" cy="30.92" r="0.9"/>
          <circle cx="74.08" cy="35.37" r="0.9"/>
          <circle cx="74.71" cy="41.06" r="0.9"/>
          <circle cx="73.57" cy="40.01" r="0.9"/>
          <circle cx="67.08" cy="38.79" r="0.9"/>
          <circle cx="65.94" cy="38.14" r="0.9"/>
          <circle cx="69.97" cy="38.5" r="0.9"/>
          <circle cx="77.24" cy="60.66" r="0.9"/>
          <circle cx="64.75" cy="39.65" r="0.9"/>
          <circle cx="67.99" cy="39.08" r="0.9"/>
          <circle cx="41.81" cy="51.13" r="0.9"/>
          <circle cx="39.38" cy="48.05" r="0.9"/>
          <circle cx="83.95" cy="32.58" r="0.9"/>
          <circle cx="74.79" cy="35.19" r="0.9"/>
          <circle cx="38.94" cy="58.78" r="0.9"/>
          <circle cx="66.56" cy="37.49" r="0.9"/>
          <circle cx="55.6" cy="44.63" r="0.9"/>
          <circle cx="54.89" cy="49.5" r="0.9"/>
          <circle cx="63.83" cy="41.91" r="0.9"/>
          <circle cx="63.85" cy="40.31" r="0.9"/>
          <circle cx="59.03" cy="46.43" r="0.9"/>
          <circle cx="71.04" cy="38.29" r="0.9"/>
          <circle cx="63.72" cy="39.96" r="0.9"/>
          <circle cx="57.48" cy="46.39" r="0.9"/>
          <circle cx="40.21" cy="48.5" r="0.9"/>
          <circle cx="62.45" cy="35.81" r="0.9"/>
          <circle cx="64.97" cy="43.82" r="0.9"/>
          <circle cx="79.34" cy="29.7" r="0.9"/>
          <circle cx="75" cy="36.37" r="0.9"/>
          <circle cx="51.47" cy="49.5" r="0.9"/>
          <circle cx="55.86" cy="41.42" r="0.9"/>
          <circle cx="88.39" cy="27.15" r="0.9"/>
          <circle cx="63.04" cy="41.86" r="0.9"/>
          <circle cx="72.39" cy="38.37" r="0.9"/>
          <circle cx="45.84" cy="35.33" r="0.9"/>
          <circle cx="69.41" cy="43.28" r="0.9"/>
          <circle cx="68.92" cy="38.99" r="0.9"/>
          <circle cx="64.17" cy="40.63" r="0.9"/>
          <circle cx="83.43" cy="34.21" r="0.9"/>
          <circle cx="76.08" cy="32.95" r="0.9"/>
          <circle cx="70.1" cy="37.88" r="0.9"/>
          <circle cx="87.88" cy="31.9" r="0.9"/>
          <circle cx="91.72" cy="31.71" r="0.9"/>
          <circle cx="81.14" cy="27.66" r="0.9"/>
          <circle cx="75" cy="37.2" r="0.9"/>
          <circle cx="69.31" cy="35.94" r="0.9"/>
          <circle cx="60.86" cy="40.49" r="0.9"/>
          <circle cx="62.28" cy="36.98" r="0.9"/>
          <circle cx="73.93" cy="33.78" r="0.9"/>
          <circle cx="62.2" cy="36.31" r="0.9"/>
          <circle cx="70.18" cy="33.96" r="0.9"/>
          <circle cx="57.53" cy="39.68" r="0.9"/>
          <circle cx="71.45" cy="31.84" r="0.9"/>
          <circle cx="75.1" cy="32.21" r="0.9"/>
          <circle cx="87.6" cy="31.32" r="0.9"/>
          <circle cx="81.35" cy="29.21" r="0.9"/>
          <circle cx="61.48" cy="39.11" r="0.9"/>
          <circle cx="77.67" cy="38.87" r="0.9"/>
          <circle cx="68.58" cy="42.55" r="0.9"/>
          <circle cx="64.48" cy="50.78" r="0.9"/>
          <circle cx="61.58" cy="39.45" r="0.9"/>
          <circle cx="82.25" cy="37.66" r="0.9"/>
          <circle cx="60.87" cy="44.45" r="0.9"/>
          <circle cx="65.53" cy="38.75" r="0.9"/>
          <circle cx="86.52" cy="35.58" r="0.9"/>
          <circle cx="70.23" cy="39.93" r="0.9"/>
          <circle cx="77.08" cy="38.16" r="0.9"/>
          <circle cx="75.16" cy="36.46" r="0.9"/>
          <circle cx="75.79" cy="36.04" r="0.9"/>
          <circle cx="68.12" cy="42.44" r="0.9"/>
          <circle cx="70.54" cy="37.89" r="0.9"/>
          <circle cx="67.08" cy="41.85" r="0.9"/>
          <circle cx="64.82" cy="36.47" r="0.9"/>
          <circle cx="70.34" cy="38.81" r="0.9"/>
          <circle cx="63.29" cy="41.93" r="0.9"/>
          <circle cx="60.36" cy="42.48" r="0.9"/>
          <circle cx="82.59" cy="35.24" r="0.9"/>
          <circle cx="55.8" cy="39.87" r="0.9"/>
          <circle cx="64.59" cy="41.86" r="0.9"/>
          <circle cx="71.06" cy="37.53" r="0.9"/>
          <circle cx="82.48" cy="32.4" r="0.9"/>
          <circle cx="85.66" cy="28.52" r="0.9"/>
          <circle cx="88.74" cy="33.88" r="0.9"/>
          <circle cx="74.25" cy="39.65" r="0.9"/>
          <circle cx="56.75" cy="46.12" r="0.9"/>
          <circle cx="96.18" cy="28.62" r="0.9"/>
          <circle cx="79.65" cy="31.56" r="0.9"/>
          <circle cx="59.92" cy="39.77" r="0.9"/>
          <circle cx="57.16" cy="39.26" r="0.9"/>
          <circle cx="71.78" cy="47.13" r="0.9"/>
          <circle cx="72.3" cy="39.72" r="0.9"/>
          <circle cx="62.52" cy="43.57" r="0.9"/>
          <circle cx="69.99" cy="38.87" r="0.9"/>
          <circle cx="80.87" cy="35.01" r="0.9"/>
          <circle cx="52.19" cy="39.22" r="0.9"/>
          <circle cx="51.72" cy="41.61" r="0.9"/>
          <circle cx="64.91" cy="34.91" r="0.9"/>
          <circle cx="76.3" cy="39.93" r="0.9"/>
          <circle cx="61.6" cy="37.84" r="0.9"/>
          <circle cx="66.78" cy="34.23" r="0.9"/>
          <circle cx="79.37" cy="35.46" r="0.9"/>
          <circle cx="86.64" cy="30.24" r="0.9"/>
          <circle cx="81.44" cy="41.24" r="0.9"/>
          <circle cx="67.12" cy="32.8" r="0.9"/>
          <circle cx="84.2" cy="39.5" r="0.9"/>
          <circle cx="80.38" cy="32.88" r="0.9"/>
          <circle cx="73.62" cy="33.07" r="0.9"/>
          <circle cx="65.17" cy="40.93" r="0.9"/>
          <circle cx="83.73" cy="35.32" r="0.9"/>
          <circle cx="66.33" cy="38" r="0.9"/>
          <circle cx="69.38" cy="33.73" r="0.9"/>
          <circle cx="56.13" cy="42.73" r="0.9"/>
          <circle cx="93.2" cy="29.72" r="0.9"/>
          <circle cx="61.23" cy="37.42" r="0.9"/>
          <circle cx="75.7" cy="35.05" r="0.9"/>
          <circle cx="67.53" cy="37.59" r="0.9"/>
          <circle cx="63.05" cy="39.7" r="0.9"/>
          <circle cx="54.5" cy="36.66" r="0.9"/>
          <circle cx="66.77" cy="36.81" r="0.9"/>
          <circle cx="64.83" cy="42.74" r="0.9"/>
          <circle cx="53.36" cy="46.81" r="0.9"/>
          <circle cx="52.2" cy="42.63" r="0.9"/>
          <circle cx="86.92" cy="35.93" r="0.9"/>
          <circle cx="63.7" cy="34.63" r="0.9"/>
          <circle cx="54.47" cy="37.91" r="0.9"/>
          <circle cx="75.17" cy="36.09" r="0.9"/>
          <circle cx="72.08" cy="40.59" r="0.9"/>
          <circle cx="67.48" cy="38.15" r="0.9"/>
          <circle cx="65.77" cy="39.46" r="0.9"/>
          <circle cx="79.01" cy="31.68" r="0.9"/>
          <circle cx="79.96" cy="32.6" r="0.9"/>
          <circle cx="51.21" cy="45.48" r="0.9"/>
          <circle cx="55.45" cy="39.32" r="0.9"/>
          <circle cx="71.5" cy="38.68" r="0.9"/>
          <circle cx="53.23" cy="41.07" r="0.9"/>
          <circle cx="54.85" cy="41.5" r="0.9"/>
          <circle cx="66.23" cy="38.42" r="0.9"/>
          <circle cx="51.86" cy="41.69" r="0.9"/>
          <circle cx="86.25" cy="34.13" r="0.9"/>
          <circle cx="84.42" cy="34.33" r="0.9"/>
          <circle cx="95.2" cy="26.92" r="0.9"/>
          <circle cx="69.69" cy="38.15" r="0.9"/>
          <circle cx="60.77" cy="39.07" r="0.9"/>
          <circle cx="55.53" cy="40.09" r="0.9"/>
          <circle cx="81.17" cy="37.38" r="0.9"/>
          <circle cx="86" cy="34.51" r="0.9"/>
          <circle cx="62.89" cy="42.74" r="0.9"/>
          <circle cx="83.38" cy="32.33" r="0.9"/>
          <circle cx="26.41" cy="64.9" r="0.9"/>
          <circle cx="70.48" cy="35.37" r="0.9"/>
          <circle cx="75.27" cy="34.73" r="0.9"/>
          <circle cx="54.95" cy="49.14" r="0.9"/>
          <circle cx="67.26" cy="39.37" r="0.9"/>
          <circle cx="86.11" cy="37.94" r="0.9"/>
          <circle cx="67.77" cy="47.48" r="0.9"/>
          <circle cx="57.66" cy="43.52" r="0.9"/>
          <circle cx="55.56" cy="41.53" r="0.9"/>
          <circle cx="72.5" cy="34.37" r="0.9"/>
          <circle cx="77.35" cy="33.22" r="0.9"/>
          <circle cx="65.81" cy="40.94" r="0.9"/>
          <circle cx="32.44" cy="63.81" r="0.9"/>
          <circle cx="65.07" cy="40.4" r="0.9"/>
          <circle cx="54.22" cy="36.55" r="0.9"/>
          <circle cx="56.53" cy="39.95" r="0.9"/>
          <circle cx="73.88" cy="63.09" r="0.9"/>
          <circle cx="78.86" cy="32.09" r="0.9"/>
          <circle cx="53.52" cy="38.37" r="0.9"/>
          <circle cx="62.62" cy="43.14" r="0.9"/>
          <circle cx="74.09" cy="34.74" r="0.9"/>
          <circle cx="79.16" cy="44.21" r="0.9"/>
          <circle cx="71.11" cy="35.38" r="0.9"/>
          <circle cx="66.95" cy="36.74" r="0.9"/>
          <circle cx="76.15" cy="37.91" r="0.9"/>
          <circle cx="65.42" cy="35.74" r="0.9"/>
          <circle cx="82.87" cy="35.81" r="0.9"/>
          <circle cx="80.53" cy="35.17" r="0.9"/>
          <circle cx="72.3" cy="37.05" r="0.9"/>
          <circle cx="61.72" cy="31.82" r="0.9"/>
          <circle cx="54.34" cy="37.92" r="0.9"/>
          <circle cx="43.54" cy="46.94" r="0.9"/>
          <circle cx="71.08" cy="44.87" r="0.9"/>
          <circle cx="79.14" cy="33.4" r="0.9"/>
          <circle cx="72.82" cy="33.38" r="0.9"/>
          <circle cx="69.26" cy="36.3" r="0.9"/>
          <circle cx="69.72" cy="33.19" r="0.9"/>
          <circle cx="74.14" cy="39.79" r="0.9"/>
          <circle cx="75.42" cy="38.2" r="0.9"/>
          <circle cx="56.57" cy="40.54" r="0.9"/>
          <circle cx="77.49" cy="35.99" r="0.9"/>
          <circle cx="76.73" cy="38.83" r="0.9"/>
          <circle cx="59.03" cy="47.27" r="0.9"/>
          <circle cx="52.36" cy="39.5" r="0.9"/>
          <circle cx="96.6" cy="29.58" r="0.9"/>
          <circle cx="74.97" cy="38.32" r="0.9"/>
          <circle cx="63.53" cy="40.84" r="0.9"/>
          <circle cx="89.42" cy="32.93" r="0.9"/>
          <circle cx="88.43" cy="33.44" r="0.9"/>
          <circle cx="57.67" cy="38.23" r="0.9"/>
          <circle cx="69.52" cy="35.47" r="0.9"/>
          <circle cx="89.86" cy="25.87" r="0.9"/>
          <circle cx="77.11" cy="36.28" r="0.9"/>
          <circle cx="78.68" cy="33.05" r="0.9"/>
          <circle cx="56.63" cy="49.75" r="0.9"/>
          <circle cx="80.63" cy="33.1" r="0.9"/>
          <circle cx="67.53" cy="38.2" r="0.9"/>
          <circle cx="81.73" cy="32.65" r="0.9"/>
          <circle cx="96.02" cy="27.76" r="0.9"/>
          <circle cx="64.24" cy="38.95" r="0.9"/>
          <circle cx="78.84" cy="34.21" r="0.9"/>
          <circle cx="60.21" cy="36.65" r="0.9"/>
          <circle cx="87.01" cy="34.51" r="0.9"/>
          <circle cx="77.55" cy="39.57" r="0.9"/>
          <circle cx="85.43" cy="34.4" r="0.9"/>
          <circle cx="77.67" cy="35.36" r="0.9"/>
          <circle cx="69.47" cy="37.76" r="0.9"/>
          <circle cx="57.03" cy="43.19" r="0.9"/>
          <circle cx="61.39" cy="37.9" r="0.9"/>
          <circle cx="71.63" cy="35.62" r="0.9"/>
          <circle cx="67.25" cy="37.22" r="0.9"/>
          <circle cx="68.68" cy="39.98" r="0.9"/>
          <circle cx="86.82" cy="35.1" r="0.9"/>
          <circle cx="52.82" cy="42.91" r="0.9"/>
          <circle cx="52.75" cy="45.68" r="0.9"/>
          <circle cx="92.17" cy="32.84" r="0.9"/>
          <circle cx="69.93" cy="41" r="0.9"/>
          <circle cx="70.88" cy="39.73" r="0.9"/>
          <circle cx="66.8" cy="41.67" r="0.9"/>
          <circle cx="78.29" cy="38.66" r="0.9"/>
          <circle cx="79.82" cy="32.14" r="0.9"/>
          <circle cx="52.01" cy="41.11" r="0.9"/>
          <circle cx="81.37" cy="34.03" r="0.9"/>
          <circle cx="76.57" cy="29.8" r="0.9"/>
          <circle cx="65.57" cy="39.69" r="0.9"/>
          <circle cx="79.54" cy="34.32" r="0.9"/>
          <circle cx="76.68" cy="30.21" r="0.9"/>
          <circle cx="89.08" cy="31.45" r="0.9"/>
          <circle cx="64.2" cy="41.72" r="0.9"/>
          <circle cx="70.21" cy="37.46" r="0.9"/>
          <circle cx="65.16" cy="40.03" r="0.9"/>
          <circle cx="73.04" cy="33.23" r="0.9"/>
          <circle cx="77.62" cy="34.59" r="0.9"/>
          <circle cx="87.7" cy="28.89" r="0.9"/>
          <circle cx="67.9" cy="40.36" r="0.9"/>
          <circle cx="85.28" cy="33.17" r="0.9"/>
          <circle cx="56.6" cy="40.76" r="0.9"/>
          <circle cx="75.36" cy="39.48" r="0.9"/>
          <circle cx="58.91" cy="40.96" r="0.9"/>
          <circle cx="57.37" cy="41.36" r="0.9"/>
          <circle cx="54.63" cy="40.89" r="0.9"/>
          <circle cx="59.48" cy="41.64" r="0.9"/>
          <circle cx="74.76" cy="32.94" r="0.9"/>
          <circle cx="72.18" cy="32.68" r="0.9"/>
          <circle cx="56.35" cy="39.3" r="0.9"/>
          <circle cx="67.37" cy="38.81" r="0.9"/>
          <circle cx="63.45" cy="44.22" r="0.9"/>
          <circle cx="61.99" cy="41.64" r="0.9"/>
          <circle cx="79.44" cy="37.83" r="0.9"/>
          <circle cx="75.53" cy="34.03" r="0.9"/>
          <circle cx="68.08" cy="37.69" r="0.9"/>
          <circle cx="79.2" cy="32.78" r="0.9"/>
          <circle cx="78.54" cy="35.4" r="0.9"/>
          <circle cx="81.3" cy="41.84" r="0.9"/>
          <circle cx="69.15" cy="32.74" r="0.9"/>
          <circle cx="75.55" cy="42.54" r="0.9"/>
          <circle cx="67.9" cy="38.87" r="0.9"/>
          <circle cx="69.59" cy="40.44" r="0.9"/>
          <circle cx="48.1" cy="48.76" r="0.9"/>
          <circle cx="72.79" cy="33.54" r="0.9"/>
          <circle cx="82.93" cy="33.34" r="0.9"/>
          <circle cx="87.37" cy="36.15" r="0.9"/>
          <circle cx="71.8" cy="35.66" r="0.9"/>
          <circle cx="78.68" cy="34.74" r="0.9"/>
          <circle cx="65.91" cy="45.41" r="0.9"/>
          <circle cx="54.34" cy="44.71" r="0.9"/>
          <circle cx="83.87" cy="31.76" r="0.9"/>
          <circle cx="88.83" cy="29.11" r="0.9"/>
          <circle cx="82.64" cy="35.66" r="0.9"/>
          <circle cx="66.44" cy="42.15" r="0.9"/>
          <circle cx="84.12" cy="32.78" r="0.9"/>
          <circle cx="90.15" cy="31.79" r="0.9"/>
          <circle cx="84.28" cy="44.61" r="0.9"/>
          <circle cx="50.58" cy="50.6" r="0.9"/>
          <circle cx="73.57" cy="33.6" r="0.9"/>
          <circle cx="84.57" cy="33.94" r="0.9"/>
          <circle cx="67.32" cy="37.08" r="0.9"/>
          <circle cx="47" cy="51.34" r="0.9"/>
          <circle cx="72.34" cy="33.53" r="0.9"/>
          <circle cx="75.02" cy="34.55" r="0.9"/>
          <circle cx="60.23" cy="42.93" r="0.9"/>
          <circle cx="72.6" cy="37.06" r="0.9"/>
          <circle cx="64.28" cy="40.4" r="0.9"/>
          <circle cx="57.2" cy="43.78" r="0.9"/>
          <circle cx="73.76" cy="36.13" r="0.9"/>
          <circle cx="46.01" cy="50.03" r="0.9"/>
          <circle cx="69.39" cy="37.71" r="0.9"/>
          <circle cx="74.39" cy="37.23" r="0.9"/>
          <circle cx="83.91" cy="30.29" r="0.9"/>
          <circle cx="59.31" cy="37.85" r="0.9"/>
          <circle cx="72.17" cy="34.54" r="0.9"/>
          <circle cx="76.42" cy="35.32" r="0.9"/>
          <circle cx="54.95" cy="46.97" r="0.9"/>
          <circle cx="70.12" cy="36.69" r="0.9"/>
          <circle cx="70.96" cy="37.64" r="0.9"/>
          <circle cx="75.13" cy="32.76" r="0.9"/>
          <circle cx="77.02" cy="32.02" r="0.9"/>
          <circle cx="56.77" cy="29.91" r="0.9"/>
          <circle cx="80.87" cy="33.02" r="0.9"/>
          <circle cx="73.12" cy="38.83" r="0.9"/>
          <circle cx="63.67" cy="33.02" r="0.9"/>
          <circle cx="79.98" cy="30.09" r="0.9"/>
          <circle cx="81.02" cy="36.53" r="0.9"/>
          <circle cx="66.88" cy="38.24" r="0.9"/>
          <circle cx="68.59" cy="36.68" r="0.9"/>
          <circle cx="78.06" cy="32.64" r="0.9"/>
          <circle cx="84.64" cy="36.65" r="0.9"/>
          <circle cx="77.5" cy="30.53" r="0.9"/>
          <circle cx="75.01" cy="30.35" r="0.9"/>
          <circle cx="61.04" cy="37.63" r="0.9"/>
          <circle cx="61.28" cy="40.4" r="0.9"/>
          <circle cx="60.4" cy="39.78" r="0.9"/>
          <circle cx="54.6" cy="40.69" r="0.9"/>
          <circle cx="53.84" cy="40.69" r="0.9"/>
          <circle cx="73.41" cy="36.68" r="0.9"/>
          <circle cx="70.13" cy="35.45" r="0.9"/>
          <circle cx="73.79" cy="40.27" r="0.9"/>
          <circle cx="72.2" cy="31.25" r="0.9"/>
          <circle cx="78.56" cy="35.19" r="0.9"/>
          <circle cx="60.69" cy="36.66" r="0.9"/>
          <circle cx="70.01" cy="35.13" r="0.9"/>
          <circle cx="52.59" cy="56.74" r="0.9"/>
          <circle cx="66.88" cy="35.36" r="0.9"/>
          <circle cx="65.9" cy="37.8" r="0.9"/>
          <circle cx="91.21" cy="36.58" r="0.9"/>
          <circle cx="73.28" cy="35.06" r="0.9"/>
          <circle cx="52.43" cy="42.11" r="0.9"/>
          <circle cx="79.09" cy="32.25" r="0.9"/>
          <circle cx="63.74" cy="34.66" r="0.9"/>
          <circle cx="75.74" cy="31.7" r="0.9"/>
          <circle cx="56.09" cy="36.66" r="0.9"/>
          <circle cx="67.38" cy="35.76" r="0.9"/>
          <circle cx="82.45" cy="31.98" r="0.9"/>
          <circle cx="53.26" cy="41.3" r="0.9"/>
          <circle cx="88.57" cy="28.7" r="0.9"/>
          <circle cx="48.64" cy="44.64" r="0.9"/>
          <circle cx="74.55" cy="34.7" r="0.9"/>
          <circle cx="56.74" cy="45.44" r="0.9"/>
          <circle cx="83.43" cy="34.33" r="0.9"/>
          <circle cx="56.38" cy="44.96" r="0.9"/>
          <circle cx="62.69" cy="40.76" r="0.9"/>
          <circle cx="72.13" cy="33.75" r="0.9"/>
          <circle cx="56.37" cy="44.37" r="0.9"/>
          <circle cx="70.72" cy="41.08" r="0.9"/>
          <circle cx="67.77" cy="38.76" r="0.9"/>
          <circle cx="56.13" cy="44.9" r="0.9"/>
          <circle cx="52.08" cy="44.83" r="0.9"/>
          <circle cx="76.58" cy="37.26" r="0.9"/>
          <circle cx="76.53" cy="34.91" r="0.9"/>
          <circle cx="70.97" cy="40.88" r="0.9"/>
          <circle cx="52.42" cy="47.14" r="0.9"/>
          <circle cx="67.12" cy="40.7" r="0.9"/>
          <circle cx="62.32" cy="41.12" r="0.9"/>
          <circle cx="63.96" cy="38.37" r="0.9"/>
          <circle cx="55.71" cy="44.3" r="0.9"/>
          <circle cx="81.82" cy="33.35" r="0.9"/>
          <circle cx="74.46" cy="34.4" r="0.9"/>
          <circle cx="70.71" cy="35.34" r="0.9"/>
          <circle cx="49.27" cy="55.81" r="0.9"/>
          <circle cx="69.75" cy="35.8" r="0.9"/>
          <circle cx="62.57" cy="34.52" r="0.9"/>
          <circle cx="70.33" cy="38.28" r="0.9"/>
          <circle cx="59.26" cy="41.43" r="0.9"/>
          <circle cx="76.49" cy="35.9" r="0.9"/>
          <circle cx="61.63" cy="39.44" r="0.9"/>
          <circle cx="61.44" cy="34.11" r="0.9"/>
          <circle cx="55.2" cy="40.36" r="0.9"/>
          <circle cx="56.49" cy="37.54" r="0.9"/>
          <circle cx="51.41" cy="42.77" r="0.9"/>
          <circle cx="63.76" cy="32.08" r="0.9"/>
          <circle cx="75.69" cy="35.85" r="0.9"/>
          <circle cx="70.46" cy="39.8" r="0.9"/>
          <circle cx="56.71" cy="42.6" r="0.9"/>
          <circle cx="74.44" cy="34.6" r="0.9"/>
          <circle cx="39.24" cy="60.49" r="0.9"/>
          <circle cx="68.81" cy="49.8" r="0.9"/>
          <circle cx="79.43" cy="32.37" r="0.9"/>
          <circle cx="69.2" cy="41" r="0.9"/>
          <circle cx="69.89" cy="38.39" r="0.9"/>
          <circle cx="62.41" cy="38.5" r="0.9"/>
          <circle cx="69.26" cy="37.78" r="0.9"/>
          <circle cx="54.2" cy="39.98" r="0.9"/>
          <circle cx="67.02" cy="38.2" r="0.9"/>
          <circle cx="74.56" cy="36.18" r="0.9"/>
          <circle cx="47.94" cy="42.99" r="0.9"/>
          <circle cx="70.62" cy="39.48" r="0.9"/>
          <circle cx="47.47" cy="42.36" r="0.9"/>
          <circle cx="70.39" cy="32.87" r="0.9"/>
          <circle cx="69.25" cy="36.73" r="0.9"/>
          <circle cx="69.69" cy="35.18" r="0.9"/>
          <circle cx="53.72" cy="41.68" r="0.9"/>
          <circle cx="61.72" cy="36.29" r="0.9"/>
          <circle cx="71.15" cy="38.52" r="0.9"/>
          <circle cx="67.31" cy="35.52" r="0.9"/>
          <circle cx="46.46" cy="48.38" r="0.9"/>
          <circle cx="44.59" cy="44.68" r="0.9"/>
          <circle cx="56.46" cy="42.76" r="0.9"/>
          <circle cx="61.41" cy="41.83" r="0.9"/>
          <circle cx="66.91" cy="37.47" r="0.9"/>
          <circle cx="62.78" cy="42.09" r="0.9"/>
          <circle cx="74.69" cy="38.27" r="0.9"/>
          <circle cx="63.16" cy="41.07" r="0.9"/>
          <circle cx="53.48" cy="56.54" r="0.9"/>
          <circle cx="77.77" cy="29.97" r="0.9"/>
          <circle cx="70.95" cy="42.53" r="0.9"/>
          <circle cx="86.65" cy="26.2" r="0.9"/>
          <circle cx="70.69" cy="34.43" r="0.9"/>
          <circle cx="80.87" cy="37.53" r="0.9"/>
          <circle cx="58.9" cy="38.57" r="0.9"/>
          <circle cx="64.22" cy="39.75" r="0.9"/>
          <circle cx="62.49" cy="43.91" r="0.9"/>
          <circle cx="65.53" cy="39.74" r="0.9"/>
          <circle cx="68.85" cy="37.19" r="0.9"/>
          <circle cx="74.29" cy="37.4" r="0.9"/>
          <circle cx="79.85" cy="34.21" r="0.9"/>
          <circle cx="61.59" cy="43.28" r="0.9"/>
          <circle cx="73.96" cy="37.89" r="0.9"/>
          <circle cx="46.88" cy="39.79" r="0.9"/>
          <circle cx="65.01" cy="30.68" r="0.9"/>
          <circle cx="61.11" cy="41.32" r="0.9"/>
          <circle cx="79" cy="35.79" r="0.9"/>
          <circle cx="64.05" cy="39.46" r="0.9"/>
          <circle cx="58.45" cy="42.24" r="0.9"/>
          <circle cx="81.32" cy="35.5" r="0.9"/>
          <circle cx="72.3" cy="35.62" r="0.9"/>
          <circle cx="68.51" cy="34.79" r="0.9"/>
          <circle cx="57.3" cy="48.35" r="0.9"/>
          <circle cx="77.41" cy="36.2" r="0.9"/>
          <circle cx="80.78" cy="34.71" r="0.9"/>
          <circle cx="84.71" cy="37.33" r="0.9"/>
          <circle cx="75.35" cy="38.2" r="0.9"/>
          <circle cx="82.52" cy="33.38" r="0.9"/>
          <circle cx="73.14" cy="38.51" r="0.9"/>
          <circle cx="84.85" cy="33.67" r="0.9"/>
          <circle cx="71.21" cy="43.13" r="0.9"/>
          <circle cx="70.3" cy="37.03" r="0.9"/>
          <circle cx="85.18" cy="29.9" r="0.9"/>
          <circle cx="53.24" cy="42.71" r="0.9"/>
          <circle cx="63.97" cy="40.69" r="0.9"/>
          <circle cx="73.86" cy="37.82" r="0.9"/>
          <circle cx="58.19" cy="40.45" r="0.9"/>
          <circle cx="67.79" cy="37.57" r="0.9"/>
          <circle cx="90.85" cy="27.14" r="0.9"/>
          <circle cx="95.57" cy="26.13" r="0.9"/>
          <circle cx="69.74" cy="33.08" r="0.9"/>
          <circle cx="77.07" cy="31.75" r="0.9"/>
          <circle cx="71.81" cy="39.04" r="0.9"/>
          <circle cx="60.17" cy="40.08" r="0.9"/>
          <circle cx="78.64" cy="35.44" r="0.9"/>
          <circle cx="64.62" cy="41.43" r="0.9"/>
          <circle cx="38.95" cy="49.09" r="0.9"/>
          <circle cx="73.89" cy="32.58" r="0.9"/>
          <circle cx="63.47" cy="39.13" r="0.9"/>
          <circle cx="76" cy="35.71" r="0.9"/>
          <circle cx="82.21" cy="37.84" r="0.9"/>
          <circle cx="79.53" cy="30.13" r="0.9"/>
          <circle cx="82.11" cy="28.63" r="0.9"/>
          <circle cx="97.65" cy="29.64" r="0.9"/>
          <circle cx="78.85" cy="30.73" r="0.9"/>
          <circle cx="78.31" cy="39.79" r="0.9"/>
          <circle cx="61.9" cy="44.13" r="0.9"/>
          <circle cx="66.43" cy="36.43" r="0.9"/>
          <circle cx="61.38" cy="40.32" r="0.9"/>
          <circle cx="84.01" cy="31.31" r="0.9"/>
          <circle cx="70.83" cy="40.21" r="0.9"/>
          <circle cx="88.25" cy="32.42" r="0.9"/>
          <circle cx="77.7" cy="30.76" r="0.9"/>
          <circle cx="68.56" cy="30.92" r="0.9"/>
          <circle cx="77.27" cy="30.84" r="0.9"/>
          <circle cx="78.37" cy="35.63" r="0.9"/>
          <circle cx="72.34" cy="37.81" r="0.9"/>
          <circle cx="81.83" cy="32.39" r="0.9"/>
          <circle cx="65.77" cy="40.32" r="0.9"/>
          <circle cx="81.49" cy="35.78" r="0.9"/>
          <circle cx="76.6" cy="36.34" r="0.9"/>
          <circle cx="67.13" cy="36.72" r="0.9"/>
          <circle cx="65.39" cy="35.31" r="0.9"/>
          <circle cx="72.62" cy="35.62" r="0.9"/>
          <circle cx="83.29" cy="34.77" r="0.9"/>
          <circle cx="61.52" cy="38.21" r="0.9"/>
          <circle cx="64.45" cy="39.21" r="0.9"/>
          <circle cx="80.34" cy="31.71" r="0.9"/>
          <circle cx="77.81" cy="32.45" r="0.9"/>
          <circle cx="70.86" cy="36.4" r="0.9"/>
          <circle cx="77.28" cy="31.96" r="0.9"/>
          <circle cx="83.45" cy="32.08" r="0.9"/>
          <circle cx="73.65" cy="31.3" r="0.9"/>
          <circle cx="84.87" cy="31.76" r="0.9"/>
          <circle cx="92.57" cy="25.74" r="0.9"/>
          <circle cx="59.18" cy="39.29" r="0.9"/>
          <circle cx="45.71" cy="45.24" r="0.9"/>
          <circle cx="80.65" cy="33.22" r="0.9"/>
          <circle cx="75.55" cy="37.48" r="0.9"/>
          <circle cx="86.42" cy="33.07" r="0.9"/>
          <circle cx="76.24" cy="36.13" r="0.9"/>
          <circle cx="97.74" cy="27.35" r="0.9"/>
          <circle cx="78.97" cy="34.85" r="0.9"/>
          <circle cx="83.28" cy="37.9" r="0.9"/>
          <circle cx="61.76" cy="44.52" r="0.9"/>
          <circle cx="68.88" cy="36.82" r="0.9"/>
          <circle cx="69.14" cy="43.12" r="0.9"/>
          <circle cx="87.59" cy="28.92" r="0.9"/>
          <circle cx="71.51" cy="39.07" r="0.9"/>
          <circle cx="82.55" cy="30.3" r="0.9"/>
          <circle cx="76.19" cy="34.61" r="0.9"/>
          <circle cx="86.87" cy="28.72" r="0.9"/>
          <circle cx="88.05" cy="28.12" r="0.9"/>
          <circle cx="80.01" cy="32.23" r="0.9"/>
          <circle cx="63.75" cy="42.87" r="0.9"/>
          <circle cx="66.27" cy="37.51" r="0.9"/>
          <circle cx="71.48" cy="35.79" r="0.9"/>
          <circle cx="62.77" cy="41.08" r="0.9"/>
          <circle cx="82.91" cy="28.89" r="0.9"/>
          <circle cx="71.94" cy="34.41" r="0.9"/>
          <circle cx="70.99" cy="38.37" r="0.9"/>
          <circle cx="73.61" cy="33.55" r="0.9"/>
          <circle cx="93.55" cy="26.9" r="0.9"/>
          <circle cx="72.08" cy="35.59" r="0.9"/>
          <circle cx="79.02" cy="33.76" r="0.9"/>
          <circle cx="88.61" cy="28.02" r="0.9"/>
          <circle cx="85.13" cy="29.53" r="0.9"/>
          <circle cx="83.22" cy="36.14" r="0.9"/>
          <circle cx="95.33" cy="24.87" r="0.9"/>
          <circle cx="74.19" cy="39.59" r="0.9"/>
          <circle cx="76.22" cy="31.88" r="0.9"/>
          <circle cx="72.3" cy="37.1" r="0.9"/>
          <circle cx="66.01" cy="37.07" r="0.9"/>
          <circle cx="79.81" cy="30.67" r="0.9"/>
          <circle cx="67.36" cy="37.26" r="0.9"/>
          <circle cx="80.77" cy="34.51" r="0.9"/>
          <circle cx="70.79" cy="34.67" r="0.9"/>
          <circle cx="69.54" cy="36.99" r="0.9"/>
          <circle cx="73.51" cy="35.73" r="0.9"/>
          <circle cx="72.38" cy="34.7" r="0.9"/>
          <circle cx="77.15" cy="30.31" r="0.9"/>
          <circle cx="74.21" cy="34.68" r="0.9"/>
          <circle cx="83.17" cy="31.92" r="0.9"/>
          <circle cx="62.3" cy="40.13" r="0.9"/>
          <circle cx="74.77" cy="36.3" r="0.9"/>
          <circle cx="68.01" cy="35.96" r="0.9"/>
          <circle cx="69.47" cy="35.63" r="0.9"/>
          <circle cx="65.18" cy="36.84" r="0.9"/>
          <circle cx="86.27" cy="29.48" r="0.9"/>
          <circle cx="54.73" cy="40.79" r="0.9"/>
          <circle cx="57.52" cy="49.23" r="0.9"/>
          <circle cx="72.79" cy="30.4" r="0.9"/>
          <circle cx="62.81" cy="38.02" r="0.9"/>
          <circle cx="71.99" cy="36.39" r="0.9"/>
          <circle cx="70.56" cy="38.28" r="0.9"/>
          <circle cx="71.23" cy="35.86" r="0.9"/>
          <circle cx="80.46" cy="30.45" r="0.9"/>
          <circle cx="80.92" cy="33.27" r="0.9"/>
          <circle cx="74.5" cy="33.76" r="0.9"/>
          <circle cx="80.6" cy="34.31" r="0.9"/>
          <circle cx="75.3" cy="34.81" r="0.9"/>
          <circle cx="93.59" cy="30.42" r="0.9"/>
          <circle cx="83.23" cy="28.54" r="0.9"/>
          <circle cx="59.82" cy="35.11" r="0.9"/>
          <circle cx="70.03" cy="33.3" r="0.9"/>
          <circle cx="67.24" cy="36.89" r="0.9"/>
          <circle cx="69.91" cy="39.28" r="0.9"/>
          <circle cx="82.74" cy="35.11" r="0.9"/>
          <circle cx="76.81" cy="30.18" r="0.9"/>
          <circle cx="69.98" cy="35.67" r="0.9"/>
          <circle cx="57.72" cy="36.39" r="0.9"/>
          <circle cx="80.07" cy="34.31" r="0.9"/>
          <circle cx="62.23" cy="41.08" r="0.9"/>
          <circle cx="68.51" cy="32.51" r="0.9"/>
          <circle cx="63.58" cy="42.44" r="0.9"/>
          <circle cx="57.45" cy="40.39" r="0.9"/>
          <circle cx="65.8" cy="34.82" r="0.9"/>
          <circle cx="87.43" cy="31.31" r="0.9"/>
          <circle cx="91.97" cy="31.38" r="0.9"/>
          <circle cx="71.16" cy="39.82" r="0.9"/>
          <circle cx="75.12" cy="32.02" r="0.9"/>
          <circle cx="68.03" cy="40.21" r="0.9"/>
          <circle cx="59.36" cy="41.89" r="0.9"/>
          <circle cx="84.61" cy="31.47" r="0.9"/>
          <circle cx="66.71" cy="38.14" r="0.9"/>
          <circle cx="74.03" cy="33.51" r="0.9"/>
          <circle cx="77.66" cy="32.09" r="0.9"/>
          <circle cx="74.22" cy="33.51" r="0.9"/>
          <circle cx="61.72" cy="40.4" r="0.9"/>
          <circle cx="65.65" cy="37.25" r="0.9"/>
          <circle cx="76.49" cy="37.15" r="0.9"/>
          <circle cx="72.45" cy="33.39" r="0.9"/>
          <circle cx="78.97" cy="34.71" r="0.9"/>
          <circle cx="64.03" cy="41.22" r="0.9"/>
          <circle cx="73.1" cy="39.2" r="0.9"/>
          <circle cx="64.16" cy="34.43" r="0.9"/>
          <circle cx="69.95" cy="41.59" r="0.9"/>
          <circle cx="81.57" cy="32.17" r="0.9"/>
          <circle cx="80.85" cy="33.33" r="0.9"/>
          <circle cx="87.58" cy="32.28" r="0.9"/>
          <circle cx="78.12" cy="36.4" r="0.9"/>
          <circle cx="87.36" cy="30.66" r="0.9"/>
          <circle cx="93.34" cy="28.63" r="0.9"/>
          <circle cx="77.24" cy="37.62" r="0.9"/>
          <circle cx="78.1" cy="35.84" r="0.9"/>
          <circle cx="93.76" cy="27.79" r="0.9"/>
          <circle cx="87.4" cy="30.98" r="0.9"/>
          <circle cx="71.22" cy="37.96" r="0.9"/>
          <circle cx="74.51" cy="35.73" r="0.9"/>
          <circle cx="66.19" cy="38.49" r="0.9"/>
          <circle cx="85.91" cy="32.72" r="0.9"/>
          <circle cx="58.2" cy="45.41" r="0.9"/>
          <circle cx="70.57" cy="34.33" r="0.9"/>
          <circle cx="72.24" cy="35.9" r="0.9"/>
          <circle cx="68.32" cy="36.09" r="0.9"/>
          <circle cx="63.66" cy="43.38" r="0.9"/>
          <circle cx="77.68" cy="35.67" r="0.9"/>
          <circle cx="66.59" cy="38.28" r="0.9"/>
          <circle cx="75.47" cy="38.54" r="0.9"/>
          <circle cx="75.4" cy="29.26" r="0.9"/>
          <circle cx="86.82" cy="28.17" r="0.9"/>
          <circle cx="72.37" cy="36.49" r="0.9"/>
          <circle cx="84.55" cy="34.92" r="0.9"/>
          <circle cx="72.43" cy="41.52" r="0.9"/>
          <circle cx="73.56" cy="39.64" r="0.9"/>
          <circle cx="66.15" cy="39.95" r="0.9"/>
          <circle cx="79.61" cy="38.38" r="0.9"/>
          <circle cx="74.13" cy="35.53" r="0.9"/>
          <circle cx="52.5" cy="43.43" r="0.9"/>
          <circle cx="76.15" cy="36.06" r="0.9"/>
          <circle cx="63.84" cy="37.12" r="0.9"/>
          <circle cx="89.8" cy="33.57" r="0.9"/>
          <circle cx="93.83" cy="28.92" r="0.9"/>
          <circle cx="87.5" cy="30.52" r="0.9"/>
          <circle cx="87.2" cy="30.71" r="0.9"/>
          <circle cx="85.93" cy="27.31" r="0.9"/>
          <circle cx="73.06" cy="32.29" r="0.9"/>
          <circle cx="72.37" cy="45.11" r="0.9"/>
          <circle cx="74.06" cy="38.6" r="0.9"/>
          <circle cx="73.19" cy="34.19" r="0.9"/>
          <circle cx="78.04" cy="34.16" r="0.9"/>
          <circle cx="70.05" cy="32.44" r="0.9"/>
          <circle cx="64.91" cy="41.1" r="0.9"/>
          <circle cx="79.01" cy="35.24" r="0.9"/>
          <circle cx="73.62" cy="36.88" r="0.9"/>
          <circle cx="71.63" cy="38.95" r="0.9"/>
          <circle cx="80.64" cy="33.93" r="0.9"/>
          <circle cx="91.87" cy="32.92" r="0.9"/>
          <circle cx="71.45" cy="36.88" r="0.9"/>
          <circle cx="73.13" cy="34.82" r="0.9"/>
          <circle cx="67.28" cy="34.62" r="0.9"/>
          <circle cx="65.71" cy="34" r="0.9"/>
          <circle cx="74.42" cy="30" r="0.9"/>
          <circle cx="82.36" cy="33.25" r="0.9"/>
          <circle cx="87.92" cy="29.52" r="0.9"/>
          <circle cx="67.9" cy="38.79" r="0.9"/>
          <circle cx="67.22" cy="35.3" r="0.9"/>
          <circle cx="58.42" cy="43.5" r="0.9"/>
          <circle cx="67.13" cy="39.09" r="0.9"/>
          <circle cx="71.64" cy="44.92" r="0.9"/>
          <circle cx="71.03" cy="33.87" r="0.9"/>
          <circle cx="63.27" cy="41.91" r="0.9"/>
          <circle cx="83.28" cy="31.05" r="0.9"/>
          <circle cx="84.86" cy="28.82" r="0.9"/>
          <circle cx="78.43" cy="29.92" r="0.9"/>
          <circle cx="71.44" cy="34.59" r="0.9"/>
          <circle cx="60.84" cy="40.02" r="0.9"/>
          <circle cx="74.56" cy="39.15" r="0.9"/>
          <circle cx="75.75" cy="35.9" r="0.9"/>
          <circle cx="68.42" cy="35.79" r="0.9"/>
          <circle cx="76.37" cy="34.53" r="0.9"/>
          <circle cx="59.99" cy="42.43" r="0.9"/>
          <circle cx="69.79" cy="36.79" r="0.9"/>
          <circle cx="63.73" cy="37.64" r="0.9"/>
          <circle cx="54.76" cy="48.07" r="0.9"/>
          <circle cx="62.15" cy="38.49" r="0.9"/>
          <circle cx="80.18" cy="32.04" r="0.9"/>
          <circle cx="80.42" cy="31.55" r="0.9"/>
          <circle cx="78.29" cy="34.82" r="0.9"/>
          <circle cx="73.52" cy="30.69" r="0.9"/>
          <circle cx="78.1" cy="33.47" r="0.9"/>
          <circle cx="77.69" cy="32.44" r="0.9"/>
          <circle cx="76.21" cy="32.08" r="0.9"/>
          <circle cx="74.8" cy="33.79" r="0.9"/>
          <circle cx="82.35" cy="34.23" r="0.9"/>
          <circle cx="82.78" cy="29.74" r="0.9"/>
          <circle cx="76.95" cy="34.53" r="0.9"/>
          <circle cx="76.73" cy="35.5" r="0.9"/>
          <circle cx="86.65" cy="31.01" r="0.9"/>
          <circle cx="79.96" cy="35.87" r="0.9"/>
          <circle cx="86.26" cy="31.68" r="0.9"/>
          <circle cx="65.05" cy="37.17" r="0.9"/>
          <circle cx="61.77" cy="41.31" r="0.9"/>
          <circle cx="65.62" cy="37.27" r="0.9"/>
          <circle cx="67.7" cy="42.36" r="0.9"/>
          <circle cx="80.07" cy="34.64" r="0.9"/>
          <circle cx="67.07" cy="35.92" r="0.9"/>
          <circle cx="70.73" cy="32.08" r="0.9"/>
          <circle cx="81.64" cy="34.47" r="0.9"/>
          <circle cx="60.07" cy="40.22" r="0.9"/>
          <circle cx="64.59" cy="42.07" r="0.9"/>
          <circle cx="61.94" cy="40.8" r="0.9"/>
          <circle cx="67.58" cy="40.97" r="0.9"/>
          <circle cx="61.59" cy="38.38" r="0.9"/>
          <circle cx="62.78" cy="36.53" r="0.9"/>
          <circle cx="82.7" cy="37.12" r="0.9"/>
          <circle cx="78.68" cy="31.46" r="0.9"/>
          <circle cx="81.42" cy="40.06" r="0.9"/>
          <circle cx="66.8" cy="36.52" r="0.9"/>
          <circle cx="71.45" cy="39.1" r="0.9"/>
          <circle cx="75.39" cy="31.07" r="0.9"/>
          <circle cx="69.93" cy="38.51" r="0.9"/>
          <circle cx="66.14" cy="37.55" r="0.9"/>
          <circle cx="59.48" cy="36.67" r="0.9"/>
          <circle cx="73.5" cy="32.42" r="0.9"/>
          <circle cx="68.42" cy="39.99" r="0.9"/>
          <circle cx="73.91" cy="39.22" r="0.9"/>
          <circle cx="71.78" cy="38.47" r="0.9"/>
          <circle cx="73.2" cy="37.39" r="0.9"/>
          <circle cx="80.58" cy="35.07" r="0.9"/>
          <circle cx="74.88" cy="32.13" r="0.9"/>
          <circle cx="83.95" cy="37.26" r="0.9"/>
          <circle cx="82.86" cy="37.82" r="0.9"/>
          <circle cx="66.32" cy="39.56" r="0.9"/>
          <circle cx="80.16" cy="36.38" r="0.9"/>
          <circle cx="61.17" cy="40.69" r="0.9"/>
          <circle cx="85.7" cy="31.57" r="0.9"/>
          <circle cx="91.5" cy="29.91" r="0.9"/>
          <circle cx="77.86" cy="33.12" r="0.9"/>
          <circle cx="74.16" cy="33.9" r="0.9"/>
          <circle cx="81.09" cy="34.2" r="0.9"/>
          <circle cx="76.42" cy="34.56" r="0.9"/>
          <circle cx="68.36" cy="38.16" r="0.9"/>
          <circle cx="83.1" cy="32.8" r="0.9"/>
          <circle cx="81.75" cy="30.24" r="0.9"/>
          <circle cx="91.26" cy="35.58" r="0.9"/>
          <circle cx="68.79" cy="39.38" r="0.9"/>
          <circle cx="86.02" cy="32.6" r="0.9"/>
          <circle cx="73.51" cy="45.76" r="0.9"/>
          <circle cx="84.1" cy="32.5" r="0.9"/>
          <circle cx="91.13" cy="27.66" r="0.9"/>
          <circle cx="76.99" cy="36.38" r="0.9"/>
          <circle cx="70.26" cy="33.83" r="0.9"/>
          <circle cx="71.31" cy="38.72" r="0.9"/>
          <circle cx="75.74" cy="33.16" r="0.9"/>
          <circle cx="73.04" cy="34.72" r="0.9"/>
          <circle cx="67.66" cy="45.09" r="0.9"/>
          <circle cx="74.7" cy="34.09" r="0.9"/>
          <circle cx="54.82" cy="41.98" r="0.9"/>
          <circle cx="78.02" cy="36.05" r="0.9"/>
          <circle cx="77.88" cy="34.62" r="0.9"/>
          <circle cx="64.58" cy="39.83" r="0.9"/>
          <circle cx="57.29" cy="44.05" r="0.9"/>
          <circle cx="81.96" cy="33.4" r="0.9"/>
          <circle cx="54.05" cy="49.74" r="0.9"/>
          <circle cx="81.38" cy="29.72" r="0.9"/>
          <circle cx="59.58" cy="41.21" r="0.9"/>
          <circle cx="60.42" cy="45.84" r="0.9"/>
          <circle cx="53.36" cy="43.24" r="0.9"/>
          <circle cx="82.91" cy="30.84" r="0.9"/>
          <circle cx="85.07" cy="35.4" r="0.9"/>
          <circle cx="85.56" cy="30.17" r="0.9"/>
          <circle cx="69.97" cy="34.09" r="0.9"/>
          <circle cx="87.89" cy="29.24" r="0.9"/>
          <circle cx="86.97" cy="33.69" r="0.9"/>
          <circle cx="92.98" cy="26.29" r="0.9"/>
          <circle cx="85.71" cy="31.03" r="0.9"/>
          <circle cx="49.68" cy="42.99" r="0.9"/>
          <circle cx="74.81" cy="34.58" r="0.9"/>
          <circle cx="76.84" cy="37.94" r="0.9"/>
          <circle cx="77.22" cy="37.01" r="0.9"/>
          <circle cx="87.61" cy="36.32" r="0.9"/>
          <circle cx="66.17" cy="42.12" r="0.9"/>
          <circle cx="65.31" cy="36.24" r="0.9"/>
          <circle cx="79.42" cy="33.2" r="0.9"/>
          <circle cx="81.16" cy="42.84" r="0.9"/>
          <circle cx="85.53" cy="27.09" r="0.9"/>
          <circle cx="74.69" cy="30.85" r="0.9"/>
          <circle cx="70.82" cy="35.52" r="0.9"/>
          <circle cx="82.27" cy="29.97" r="0.9"/>
          <circle cx="67.87" cy="38.72" r="0.9"/>
          <circle cx="79.31" cy="31.92" r="0.9"/>
          <circle cx="66.57" cy="35.26" r="0.9"/>
          <circle cx="72.18" cy="31.99" r="0.9"/>
          <circle cx="72.2" cy="37.7" r="0.9"/>
          <circle cx="57.37" cy="47.26" r="0.9"/>
          <circle cx="73.36" cy="31.02" r="0.9"/>
          <circle cx="63.56" cy="41.04" r="0.9"/>
          <circle cx="76.58" cy="34.75" r="0.9"/>
          <circle cx="57.66" cy="39.21" r="0.9"/>
          <circle cx="73.25" cy="40.41" r="0.9"/>
          <circle cx="43.45" cy="48.13" r="0.9"/>
          <circle cx="77.8" cy="35.47" r="0.9"/>
          <circle cx="67.56" cy="33.23" r="0.9"/>
          <circle cx="93.83" cy="32.65" r="0.9"/>
          <circle cx="88.93" cy="30.63" r="0.9"/>
          <circle cx="67.75" cy="40.4" r="0.9"/>
          <circle cx="77.27" cy="33.53" r="0.9"/>
          <circle cx="84.11" cy="28.39" r="0.9"/>
          <circle cx="75.47" cy="31.45" r="0.9"/>
          <circle cx="75.64" cy="35.46" r="0.9"/>
          <circle cx="80.54" cy="31.69" r="0.9"/>
          <circle cx="62.24" cy="41.69" r="0.9"/>
          <circle cx="85.77" cy="31.77" r="0.9"/>
          <circle cx="77.05" cy="38.57" r="0.9"/>
          <circle cx="72.44" cy="39.06" r="0.9"/>
          <circle cx="74.02" cy="33.6" r="0.9"/>
          <circle cx="73.08" cy="36.87" r="0.9"/>
          <circle cx="64.19" cy="41.35" r="0.9"/>
          <circle cx="71.24" cy="33.87" r="0.9"/>
          <circle cx="77.07" cy="38.38" r="0.9"/>
          <circle cx="79.79" cy="37.12" r="0.9"/>
          <circle cx="59.86" cy="38.29" r="0.9"/>
          <circle cx="75.28" cy="36.13" r="0.9"/>
          <circle cx="82.8" cy="34.59" r="0.9"/>
          <circle cx="68.09" cy="38.72" r="0.9"/>
          <circle cx="68.6" cy="40.9" r="0.9"/>
          <circle cx="78.95" cy="36.21" r="0.9"/>
          <circle cx="88.35" cy="34.38" r="0.9"/>
          <circle cx="85.34" cy="33.97" r="0.9"/>
          <circle cx="78.87" cy="32.99" r="0.9"/>
          <circle cx="82.11" cy="37.37" r="0.9"/>
          <circle cx="76.52" cy="39.53" r="0.9"/>
          <circle cx="64.39" cy="42" r="0.9"/>
          <circle cx="73" cy="36.68" r="0.9"/>
          <circle cx="71.5" cy="39.79" r="0.9"/>
          <circle cx="83.41" cy="32.28" r="0.9"/>
          <circle cx="64.25" cy="38.34" r="0.9"/>
          <circle cx="88.91" cy="32.6" r="0.9"/>
          <circle cx="60.92" cy="38.77" r="0.9"/>
          <circle cx="67.82" cy="38.92" r="0.9"/>
          <circle cx="57.28" cy="48.93" r="0.9"/>
          <circle cx="64.6" cy="35.97" r="0.9"/>
          <circle cx="67.92" cy="40.86" r="0.9"/>
          <circle cx="69.59" cy="35.6" r="0.9"/>
          <circle cx="74.47" cy="36.78" r="0.9"/>
          <circle cx="63.99" cy="40.35" r="0.9"/>
          <circle cx="82.86" cy="32.59" r="0.9"/>
          <circle cx="68.33" cy="31.26" r="0.9"/>
          <circle cx="74.41" cy="29.67" r="0.9"/>
          <circle cx="64.6" cy="37.51" r="0.9"/>
          <circle cx="93.96" cy="39.73" r="0.9"/>
          <circle cx="84.25" cy="30.57" r="0.9"/>
          <circle cx="83.83" cy="31.43" r="0.9"/>
          <circle cx="76.81" cy="35.06" r="0.9"/>
          <circle cx="68.85" cy="39.4" r="0.9"/>
          <circle cx="71.93" cy="36.04" r="0.9"/>
          <circle cx="56.18" cy="39.32" r="0.9"/>
          <circle cx="73.74" cy="30.33" r="0.9"/>
          <circle cx="81.51" cy="34.98" r="0.9"/>
          <circle cx="79.87" cy="33.31" r="0.9"/>
          <circle cx="40.26" cy="49.61" r="0.9"/>
          <circle cx="66.73" cy="36.46" r="0.9"/>
          <circle cx="69.18" cy="38.77" r="0.9"/>
          <circle cx="87.63" cy="27.91" r="0.9"/>
          <circle cx="62.37" cy="34.51" r="0.9"/>
          <circle cx="79.66" cy="33.75" r="0.9"/>
          <circle cx="71.97" cy="31.39" r="0.9"/>
          <circle cx="61.07" cy="33.45" r="0.9"/>
          <circle cx="61.25" cy="46.1" r="0.9"/>
          <circle cx="67.96" cy="38.39" r="0.9"/>
          <circle cx="84.66" cy="34.33" r="0.9"/>
          <circle cx="59.37" cy="45.38" r="0.9"/>
          <circle cx="81.17" cy="34.36" r="0.9"/>
          <circle cx="87.36" cy="33.17" r="0.9"/>
          <circle cx="87.89" cy="27.34" r="0.9"/>
          <circle cx="72.43" cy="42.04" r="0.9"/>
          <circle cx="81.41" cy="35.12" r="0.9"/>
          <circle cx="84.42" cy="33.91" r="0.9"/>
          <circle cx="81.21" cy="37.11" r="0.9"/>
          <circle cx="62.27" cy="38.25" r="0.9"/>
          <circle cx="75.67" cy="34.09" r="0.9"/>
          <circle cx="64.66" cy="42.68" r="0.9"/>
          <circle cx="59.08" cy="45.38" r="0.9"/>
          <circle cx="74.4" cy="44.02" r="0.9"/>
          <circle cx="77.92" cy="37.53" r="0.9"/>
          <circle cx="64.9" cy="42.17" r="0.9"/>
          <circle cx="74.6" cy="38.99" r="0.9"/>
          <circle cx="63.58" cy="38.57" r="0.9"/>
          <circle cx="68.38" cy="41.91" r="0.9"/>
          <circle cx="81.89" cy="31.28" r="0.9"/>
          <circle cx="61.8" cy="39.06" r="0.9"/>
          <circle cx="66.46" cy="35.71" r="0.9"/>
          <circle cx="73.92" cy="37.09" r="0.9"/>
          <circle cx="84.74" cy="28.39" r="0.9"/>
          <circle cx="81.2" cy="28.58" r="0.9"/>
          <circle cx="78.06" cy="31.24" r="0.9"/>
          <circle cx="71.99" cy="40.48" r="0.9"/>
          <circle cx="82.04" cy="37.64" r="0.9"/>
          <circle cx="78.4" cy="37.49" r="0.9"/>
          <circle cx="82.53" cy="44.32" r="0.9"/>
          <circle cx="67.79" cy="39.47" r="0.9"/>
          <circle cx="76.35" cy="35.73" r="0.9"/>
          <circle cx="71.14" cy="33.3" r="0.9"/>
          <circle cx="64.17" cy="41.01" r="0.9"/>
          <circle cx="70.03" cy="40.21" r="0.9"/>
          <circle cx="81.65" cy="34.27" r="0.9"/>
          <circle cx="72.7" cy="36.69" r="0.9"/>
          <circle cx="79.37" cy="37.48" r="0.9"/>
          <circle cx="69.36" cy="34.44" r="0.9"/>
          <circle cx="67.24" cy="42.16" r="0.9"/>
          <circle cx="71.83" cy="40.96" r="0.9"/>
          <circle cx="67.28" cy="45.82" r="0.9"/>
          <circle cx="83.73" cy="31.17" r="0.9"/>
          <circle cx="84.73" cy="31.5" r="0.9"/>
          <circle cx="71.11" cy="39.8" r="0.9"/>
          <circle cx="78.36" cy="38.2" r="0.9"/>
          <circle cx="66.01" cy="38.61" r="0.9"/>
          <circle cx="58.01" cy="45.27" r="0.9"/>
          <circle cx="62.42" cy="38.05" r="0.9"/>
          <circle cx="64.67" cy="36.21" r="0.9"/>
          <circle cx="77.9" cy="33.31" r="0.9"/>
          <circle cx="78.48" cy="30.59" r="0.9"/>
          <circle cx="69.85" cy="36.17" r="0.9"/>
          <circle cx="68.3" cy="41.62" r="0.9"/>
          <circle cx="68.94" cy="41.29" r="0.9"/>
          <circle cx="89.92" cy="28.73" r="0.9"/>
          <circle cx="85.43" cy="30.65" r="0.9"/>
          <circle cx="100.36" cy="33.04" r="0.9"/>
          <circle cx="79.67" cy="45.77" r="0.9"/>
          <circle cx="82.35" cy="33.36" r="0.9"/>
          <circle cx="90.8" cy="34.62" r="0.9"/>
          <circle cx="91.13" cy="35.15" r="0.9"/>
          <circle cx="80.53" cy="32.26" r="0.9"/>
          <circle cx="80.26" cy="32.08" r="0.9"/>
          <circle cx="83.68" cy="30.5" r="0.9"/>
          <circle cx="64.16" cy="41.91" r="0.9"/>
          <circle cx="75.35" cy="32.37" r="0.9"/>
          <circle cx="83.68" cy="31.68" r="0.9"/>
          <circle cx="84.65" cy="33.84" r="0.9"/>
          <circle cx="78.12" cy="32.22" r="0.9"/>
          <circle cx="67.44" cy="39.68" r="0.9"/>
          <circle cx="68.46" cy="34.89" r="0.9"/>
          <circle cx="60.32" cy="37.83" r="0.9"/>
          <circle cx="74.67" cy="33.76" r="0.9"/>
          <circle cx="70.08" cy="34.94" r="0.9"/>
          <circle cx="69.08" cy="39.69" r="0.9"/>
          <circle cx="71.11" cy="37.23" r="0.9"/>
          <circle cx="67.03" cy="41.95" r="0.9"/>
          <circle cx="79.13" cy="35.14" r="0.9"/>
          <circle cx="75.29" cy="35.01" r="0.9"/>
          <circle cx="53.21" cy="39.33" r="0.9"/>
          <circle cx="65.85" cy="37.7" r="0.9"/>
          <circle cx="67.36" cy="36.77" r="0.9"/>
          <circle cx="79.33" cy="35.03" r="0.9"/>
          <circle cx="79.79" cy="34.15" r="0.9"/>
          <circle cx="66.2" cy="40.5" r="0.9"/>
          <circle cx="90.85" cy="29.81" r="0.9"/>
          <circle cx="74.99" cy="42.75" r="0.9"/>
          <circle cx="89.81" cy="26.37" r="0.9"/>
          <circle cx="72.66" cy="37.21" r="0.9"/>
          <circle cx="61.59" cy="41.79" r="0.9"/>
          <circle cx="70.95" cy="36.79" r="0.9"/>
          <circle cx="73.45" cy="35.11" r="0.9"/>
          <circle cx="68.6" cy="40.79" r="0.9"/>
          <circle cx="69.17" cy="36.54" r="0.9"/>
          <circle cx="63.43" cy="41.3" r="0.9"/>
          <circle cx="65.47" cy="36.1" r="0.9"/>
          <circle cx="73.05" cy="30.84" r="0.9"/>
          <circle cx="63.31" cy="39.43" r="0.9"/>
          <circle cx="53.47" cy="44.71" r="0.9"/>
          <circle cx="71.01" cy="37.53" r="0.9"/>
          <circle cx="60.23" cy="40.22" r="0.9"/>
          <circle cx="65.91" cy="39.01" r="0.9"/>
          <circle cx="83.22" cy="30" r="0.9"/>
          <circle cx="65.81" cy="41.58" r="0.9"/>
          <circle cx="71.87" cy="37.95" r="0.9"/>
          <circle cx="85.88" cy="35.69" r="0.9"/>
          <circle cx="70.09" cy="41.76" r="0.9"/>
          <circle cx="66.82" cy="38.88" r="0.9"/>
          <circle cx="61.87" cy="42.57" r="0.9"/>
          <circle cx="74.09" cy="37.65" r="0.9"/>
          <circle cx="67.94" cy="41.1" r="0.9"/>
          <circle cx="67.03" cy="37.79" r="0.9"/>
          <circle cx="50.13" cy="49.04" r="0.9"/>
          <circle cx="82.72" cy="32.55" r="0.9"/>
          <circle cx="70.16" cy="38.3" r="0.9"/>
          <circle cx="70.27" cy="42.12" r="0.9"/>
          <circle cx="62.54" cy="40.88" r="0.9"/>
          <circle cx="75.15" cy="35.65" r="0.9"/>
          <circle cx="69.75" cy="39.65" r="0.9"/>
          <circle cx="68.92" cy="36.59" r="0.9"/>
          <circle cx="76.83" cy="36.37" r="0.9"/>
          <circle cx="86.65" cy="32.66" r="0.9"/>
          <circle cx="78.46" cy="35.78" r="0.9"/>
          <circle cx="73.05" cy="32.37" r="0.9"/>
          <circle cx="66.67" cy="41.95" r="0.9"/>
          <circle cx="64.28" cy="36.09" r="0.9"/>
          <circle cx="55.74" cy="42.68" r="0.9"/>
          <circle cx="82.22" cy="32.03" r="0.9"/>
          <circle cx="58.96" cy="44.17" r="0.9"/>
          <circle cx="59.2" cy="33.62" r="0.9"/>
          <circle cx="66.32" cy="33.49" r="0.9"/>
          <circle cx="58.38" cy="39.54" r="0.9"/>
          <circle cx="78.23" cy="30.19" r="0.9"/>
          <circle cx="65.48" cy="31.48" r="0.9"/>
          <circle cx="62.16" cy="34.02" r="0.9"/>
          <circle cx="83.67" cy="27.91" r="0.9"/>
          <circle cx="63.69" cy="40.91" r="0.9"/>
          <circle cx="61.83" cy="35.63" r="0.9"/>
          <circle cx="60.03" cy="34.52" r="0.9"/>
          <circle cx="72.32" cy="39.71" r="0.9"/>
          <circle cx="68.22" cy="33.15" r="0.9"/>
          <circle cx="57.35" cy="34.95" r="0.9"/>
          <circle cx="63.49" cy="36.42" r="0.9"/>
          <circle cx="62.38" cy="46.11" r="0.9"/>
          <circle cx="58.75" cy="42.21" r="0.9"/>
          <circle cx="56.31" cy="40.93" r="0.9"/>
          <circle cx="62.39" cy="38.31" r="0.9"/>
          <circle cx="78.01" cy="34.35" r="0.9"/>
          <circle cx="64.42" cy="32.02" r="0.9"/>
          <circle cx="51.05" cy="41.3" r="0.9"/>
          <circle cx="59.16" cy="42.31" r="0.9"/>
          <circle cx="56.31" cy="39.27" r="0.9"/>
          <circle cx="57.94" cy="44.41" r="0.9"/>
          <circle cx="62.49" cy="31.63" r="0.9"/>
          <circle cx="80.84" cy="30.07" r="0.9"/>
          <circle cx="74.97" cy="38.52" r="0.9"/>
          <circle cx="89.29" cy="26.51" r="0.9"/>
          <circle cx="78.84" cy="36.8" r="0.9"/>
          <circle cx="66.14" cy="39.77" r="0.9"/>
          <circle cx="86" cy="30.05" r="0.9"/>
          <circle cx="73.71" cy="33.66" r="0.9"/>
          <circle cx="76.07" cy="33.75" r="0.9"/>
          <circle cx="59.85" cy="35.12" r="0.9"/>
          <circle cx="66.68" cy="37.28" r="0.9"/>
          <circle cx="55.68" cy="43.64" r="0.9"/>
          <circle cx="62.64" cy="42.78" r="0.9"/>
          <circle cx="73.84" cy="37.39" r="0.9"/>
          <circle cx="70.46" cy="37.13" r="0.9"/>
          <circle cx="65.9" cy="38.85" r="0.9"/>
          <circle cx="66.9" cy="38.54" r="0.9"/>
          <circle cx="72.12" cy="40.07" r="0.9"/>
          <circle cx="78.29" cy="34.7" r="0.9"/>
          <circle cx="68.48" cy="42.77" r="0.9"/>
          <circle cx="59.63" cy="43.93" r="0.9"/>
          <circle cx="83.02" cy="39.9" r="0.9"/>
          <circle cx="78.44" cy="40.99" r="0.9"/>
          <circle cx="80.51" cy="35.06" r="0.9"/>
          <circle cx="73.2" cy="41.04" r="0.9"/>
          <circle cx="77.59" cy="35.62" r="0.9"/>
          <circle cx="56.91" cy="49.21" r="0.9"/>
          <circle cx="94.99" cy="33.52" r="0.9"/>
          <circle cx="51.86" cy="46.91" r="0.9"/>
          <circle cx="61.8" cy="41.97" r="0.9"/>
          <circle cx="59.13" cy="42.39" r="0.9"/>
          <circle cx="52.82" cy="49.94" r="0.9"/>
          <circle cx="67.82" cy="38.03" r="0.9"/>
          <circle cx="58.19" cy="44.02" r="0.9"/>
          <circle cx="78.72" cy="36.92" r="0.9"/>
          <circle cx="74.35" cy="36.33" r="0.9"/>
          <circle cx="68.49" cy="39.51" r="0.9"/>
          <circle cx="79.5" cy="39.04" r="0.9"/>
          <circle cx="83.73" cy="37.76" r="0.9"/>
          <circle cx="82.61" cy="37.4" r="0.9"/>
          <circle cx="75.51" cy="37.61" r="0.9"/>
          <circle cx="67.25" cy="42.29" r="0.9"/>
          <circle cx="83.35" cy="35.53" r="0.9"/>
          <circle cx="59.01" cy="41.44" r="0.9"/>
          <circle cx="73.29" cy="37.61" r="0.9"/>
          <circle cx="57.19" cy="43.8" r="0.9"/>
          <circle cx="82.2" cy="32.72" r="0.9"/>
          <circle cx="57.3" cy="43" r="0.9"/>
          <circle cx="84.26" cy="31.99" r="0.9"/>
          <circle cx="57.24" cy="41.34" r="0.9"/>
          <circle cx="62.41" cy="37.04" r="0.9"/>
          <circle cx="64.73" cy="39.71" r="0.9"/>
          <circle cx="76.01" cy="41.73" r="0.9"/>
          <circle cx="65.62" cy="41.08" r="0.9"/>
          <circle cx="63.06" cy="39.82" r="0.9"/>
          <circle cx="63.47" cy="39.72" r="0.9"/>
          <circle cx="61.01" cy="41.37" r="0.9"/>
          <circle cx="78.72" cy="32.8" r="0.9"/>
          <circle cx="53.76" cy="43.7" r="0.9"/>
          <circle cx="77.11" cy="37.73" r="0.9"/>
          <circle cx="73.57" cy="35.14" r="0.9"/>
          <circle cx="86.83" cy="34.25" r="0.9"/>
          <circle cx="66.15" cy="45.78" r="0.9"/>
          <circle cx="68.29" cy="37.4" r="0.9"/>
          <circle cx="88.93" cy="39.2" r="0.9"/>
          <circle cx="82.29" cy="32.24" r="0.9"/>
          <circle cx="66.71" cy="45.7" r="0.9"/>
          <circle cx="64.94" cy="36.45" r="0.9"/>
          <circle cx="82.8" cy="33.93" r="0.9"/>
          <circle cx="85.28" cy="30.62" r="0.9"/>
          <circle cx="81.97" cy="36.42" r="0.9"/>
          <circle cx="70.92" cy="40.9" r="0.9"/>
          <circle cx="81.52" cy="38.43" r="0.9"/>
          <circle cx="80.89" cy="34.35" r="0.9"/>
          <circle cx="88.61" cy="30.68" r="0.9"/>
          <circle cx="79.39" cy="37.22" r="0.9"/>
          <circle cx="84.47" cy="31.47" r="0.9"/>
          <circle cx="73.06" cy="42.01" r="0.9"/>
        </g>
      </g>
      <g stroke-width="0.3" fill="#000000" fill-opacity="0.000" class="geometry" stroke-dasharray="none" stroke="#008000" id="fig-8e4db1c2bd88480990578bd69afd8733-element-16">
        <path fill="none" d="M26.41,71.82 L 32.44 55.37 34.76 52.66 34.95 52.49 38.63 50.16 38.94 50.01 38.95 50.01 39.24 49.89 39.29 49.87 39.38 49.83 40.21 49.5 40.26 49.48 40.59 49.35 40.71 49.31 41.38 49.07 41.81 48.92 42.85 48.55 42.93 48.52 43.31 48.39 43.45 48.34 43.54 48.31 44.1 48.11 44.59 47.94 44.69 47.91 44.71 47.9 45.71 47.53 45.84 47.48 45.93 47.44 45.95 47.43 46.01 47.41 46.46 47.24 46.88 47.07 46.88 47.07 47 47.02 47.47 46.83 47.82 46.68 47.94 46.63 48.1 46.56 48.64 46.33 48.87 46.23 48.95 46.19 49.27 46.05 49.68 45.86 49.71 45.85 49.73 45.84 50.13 45.65 50.32 45.56 50.58 45.44 50.83 45.32 51.04 45.22 51.05 45.22 51.15 45.17 51.21 45.14 51.41 45.04 51.46 45.01 51.47 45.01 51.72 44.89 51.82 44.84 51.86 44.82 51.86 44.82 51.92 44.79 52 44.75 52.01 44.74 52.08 44.71 52.19 44.65 52.2 44.65 52.36 44.57 52.42 44.54 52.43 44.54 52.43 44.53 52.5 44.5 52.59 44.45 52.75 44.37 52.81 44.34 52.82 44.34 52.82 44.34 53.21 44.14 53.23 44.13 53.24 44.12 53.26 44.12 53.36 44.06 53.36 44.06 53.47 44.01 53.48 44 53.52 43.99 53.64 43.92 53.72 43.88 53.76 43.86 53.84 43.82 53.94 43.77 54.05 43.71 54.2 43.63 54.22 43.62 54.34 43.56 54.34 43.56 54.47 43.49 54.48 43.49 54.5 43.48 54.6 43.43 54.63 43.41 54.73 43.36 54.76 43.35 54.78 43.34 54.8 43.33 54.82 43.31 54.85 43.3 54.89 43.28 54.91 43.27 54.92 43.27 54.95 43.25 54.95 43.25 55.07 43.19 55.16 43.14 55.19 43.12 55.2 43.12 55.43 43 55.45 42.99 55.53 42.95 55.56 42.93 55.6 42.91 55.68 42.87 55.71 42.86 55.74 42.84 55.8 42.81 55.86 42.78 56.06 42.68 56.09 42.66 56.13 42.64 56.13 42.64 56.15 42.63 56.17 42.62 56.18 42.62 56.19 42.61 56.31 42.55 56.31 42.55 56.35 42.53 56.37 42.52 56.38 42.51 56.46 42.47 56.49 42.46 56.53 42.44 56.57 42.42 56.6 42.4 56.63 42.39 56.71 42.35 56.74 42.33 56.75 42.33 56.77 42.32 56.91 42.25 56.91 42.24 57.03 42.18 57.16 42.12 57.19 42.1 57.2 42.1 57.24 42.08 57.27 42.06 57.27 42.06 57.28 42.06 57.29 42.06 57.3 42.05 57.3 42.05 57.35 42.02 57.37 42.01 57.37 42.01 57.45 41.97 57.48 41.96 57.52 41.94 57.53 41.93 57.66 41.87 57.66 41.87 57.67 41.86 57.72 41.84 57.81 41.79 57.93 41.73 57.94 41.73 58.01 41.69 58.18 41.61 58.19 41.6 58.19 41.6 58.2 41.6 58.38 41.51 58.42 41.49 58.45 41.48 58.5 41.45 58.51 41.45 58.53 41.44 58.7 41.35 58.75 41.33 58.75 41.33 58.81 41.3 58.82 41.29 58.9 41.26 58.91 41.25 58.96 41.23 58.97 41.22 59.01 41.2 59.03 41.19 59.03 41.19 59.08 41.17 59.13 41.14 59.16 41.13 59.18 41.12 59.2 41.11 59.26 41.08 59.31 41.06 59.31 41.06 59.36 41.03 59.37 41.03 59.4 41.02 59.48 40.98 59.48 40.98 59.49 40.97 59.58 40.93 59.63 40.91 59.79 40.83 59.82 40.82 59.84 40.81 59.85 40.8 59.86 40.8 59.88 40.79 59.92 40.77 59.93 40.77 59.99 40.74 60.03 40.72 60.07 40.7 60.08 40.7 60.17 40.65 60.21 40.63 60.22 40.63 60.23 40.63 60.23 40.63 60.32 40.58 60.36 40.56 60.4 40.55 60.42 40.54 60.47 40.51 60.69 40.42 60.77 40.38 60.84 40.35 60.86 40.34 60.87 40.34 60.9 40.32 60.92 40.31 60.99 40.28 61.01 40.27 61.04 40.26 61.07 40.25 61.11 40.23 61.17 40.2 61.23 40.17 61.25 40.17 61.28 40.15 61.38 40.11 61.39 40.11 61.41 40.09 61.44 40.08 61.48 40.07 61.52 40.05 61.54 40.04 61.58 40.02 61.59 40.02 61.59 40.02 61.59 40.02 61.6 40.01 61.63 40 61.71 39.97 61.72 39.96 61.72 39.96 61.72 39.96 61.76 39.94 61.77 39.94 61.8 39.93 61.8 39.93 61.83 39.91 61.87 39.9 61.89 39.89 61.9 39.88 61.94 39.87 61.99 39.85 62.15 39.78 62.16 39.77 62.2 39.76 62.23 39.74 62.24 39.74 62.27 39.73 62.28 39.72 62.3 39.71 62.32 39.71 62.37 39.69 62.38 39.68 62.39 39.68 62.41 39.67 62.41 39.67 62.42 39.66 62.45 39.65 62.49 39.64 62.49 39.64 62.52 39.62 62.54 39.62 62.57 39.6 62.62 39.58 62.64 39.58 62.67 39.56 62.69 39.55 62.77 39.52 62.78 39.52 62.78 39.52 62.81 39.5 62.82 39.5 62.89 39.47 62.89 39.47 62.94 39.45 63.04 39.41 63.05 39.41 63.06 39.41 63.16 39.37 63.2 39.35 63.27 39.32 63.28 39.32 63.29 39.31 63.31 39.31 63.43 39.26 63.45 39.25 63.45 39.25 63.47 39.24 63.47 39.24 63.49 39.24 63.49 39.23 63.53 39.22 63.55 39.21 63.56 39.21 63.58 39.2 63.58 39.2 63.66 39.17 63.67 39.16 63.68 39.16 63.69 39.16 63.7 39.15 63.72 39.15 63.73 39.14 63.74 39.14 63.75 39.13 63.76 39.13 63.83 39.1 63.84 39.1 63.85 39.1 63.96 39.05 63.97 39.05 63.99 39.04 64.03 39.03 64.05 39.02 64.1 39 64.13 38.99 64.16 38.98 64.16 38.98 64.17 38.98 64.17 38.98 64.17 38.98 64.19 38.97 64.2 38.96 64.22 38.96 64.24 38.95 64.25 38.95 64.28 38.94 64.28 38.93 64.39 38.9 64.42 38.88 64.44 38.87 64.45 38.87 64.48 38.86 64.58 38.83 64.59 38.82 64.59 38.82 64.6 38.82 64.6 38.82 64.62 38.81 64.66 38.8 64.67 38.79 64.73 38.77 64.75 38.76 64.82 38.74 64.83 38.74 64.88 38.72 64.9 38.71 64.91 38.71 64.91 38.71 64.94 38.7 64.97 38.69 64.98 38.68 65.01 38.67 65.05 38.66 65.07 38.65 65.16 38.62 65.17 38.62 65.18 38.61 65.18 38.61 65.24 38.59 65.31 38.57 65.39 38.54 65.41 38.53 65.42 38.53 65.47 38.51 65.48 38.51 65.53 38.49 65.53 38.49 65.53 38.49 65.57 38.48 65.62 38.46 65.62 38.46 65.65 38.45 65.71 38.43 65.77 38.41 65.77 38.41 65.8 38.4 65.81 38.4 65.81 38.4 65.85 38.38 65.9 38.37 65.9 38.37 65.91 38.37 65.91 38.36 65.94 38.36 66.01 38.33 66.01 38.33 66.12 38.3 66.14 38.29 66.14 38.29 66.15 38.29 66.15 38.29 66.17 38.28 66.19 38.27 66.2 38.27 66.21 38.26 66.23 38.26 66.27 38.25 66.32 38.23 66.32 38.23 66.32 38.23 66.33 38.23 66.34 38.22 66.36 38.22 66.43 38.19 66.44 38.19 66.46 38.19 66.56 38.15 66.57 38.15 66.59 38.14 66.63 38.13 66.66 38.12 66.67 38.12 66.68 38.12 66.7 38.11 66.71 38.11 66.71 38.11 66.73 38.1 66.77 38.09 66.78 38.09 66.79 38.08 66.8 38.08 66.8 38.08 66.82 38.07 66.84 38.07 66.88 38.06 66.88 38.05 66.88 38.05 66.9 38.05 66.91 38.05 66.95 38.03 67.02 38.01 67.03 38.01 67.03 38.01 67.07 38 67.08 38 67.08 37.99 67.12 37.98 67.12 37.98 67.13 37.98 67.13 37.98 67.17 37.97 67.18 37.96 67.22 37.95 67.24 37.95 67.24 37.95 67.25 37.94 67.25 37.94 67.26 37.94 67.28 37.93 67.28 37.93 67.31 37.92 67.32 37.92 67.35 37.91 67.36 37.91 67.36 37.91 67.37 37.91 67.38 37.9 67.44 37.88 67.48 37.87 67.49 37.87 67.51 37.87 67.53 37.86 67.53 37.86 67.56 37.85 67.58 37.85 67.66 37.82 67.69 37.81 67.7 37.81 67.75 37.8 67.77 37.79 67.77 37.79 67.79 37.78 67.79 37.78 67.82 37.78 67.82 37.78 67.87 37.76 67.9 37.75 67.9 37.75 67.9 37.75 67.92 37.75 67.94 37.74 67.96 37.74 67.99 37.73 67.99 37.73 68.01 37.72 68.03 37.71 68.07 37.7 68.08 37.7 68.09 37.7 68.12 37.69 68.13 37.69 68.22 37.66 68.27 37.65 68.29 37.64 68.3 37.64 68.32 37.63 68.33 37.63 68.36 37.62 68.38 37.62 68.42 37.61 68.42 37.61 68.46 37.6 68.48 37.59 68.49 37.59 68.51 37.58 68.51 37.58 68.56 37.57 68.58 37.56 68.59 37.56 68.6 37.56 68.6 37.56 68.68 37.53 68.78 37.51 68.79 37.51 68.81 37.5 68.85 37.49 68.85 37.49 68.87 37.49 68.88 37.48 68.92 37.47 68.92 37.47 68.92 37.47 68.94 37.47 69.03 37.44 69.08 37.43 69.09 37.43 69.14 37.41 69.15 37.41 69.15 37.41 69.17 37.4 69.18 37.4 69.18 37.4 69.19 37.4 69.2 37.4 69.23 37.39 69.25 37.39 69.25 37.38 69.26 37.38 69.26 37.38 69.31 37.37 69.36 37.36 69.38 37.35 69.39 37.35 69.41 37.34 69.46 37.33 69.47 37.33 69.47 37.33 69.52 37.32 69.54 37.31 69.55 37.31 69.57 37.3 69.58 37.3 69.59 37.3 69.59 37.3 69.61 37.29 69.69 37.27 69.69 37.27 69.72 37.27 69.74 37.26 69.75 37.26 69.75 37.26 69.79 37.25 69.83 37.24 69.85 37.23 69.89 37.22 69.91 37.22 69.93 37.21 69.93 37.21 69.95 37.21 69.97 37.2 69.97 37.2 69.98 37.2 69.99 37.2 70.01 37.19 70.03 37.19 70.03 37.19 70.05 37.18 70.08 37.17 70.09 37.17 70.1 37.17 70.12 37.16 70.13 37.16 70.16 37.16 70.18 37.15 70.21 37.14 70.23 37.14 70.26 37.13 70.27 37.13 70.3 37.12 70.33 37.11 70.34 37.11 70.39 37.1 70.46 37.08 70.46 37.08 70.48 37.08 70.5 37.07 70.54 37.06 70.56 37.06 70.57 37.06 70.62 37.04 70.69 37.03 70.71 37.02 70.72 37.02 70.73 37.02 70.79 37 70.82 36.99 70.83 36.99 70.84 36.99 70.86 36.99 70.88 36.98 70.91 36.97 70.92 36.97 70.95 36.96 70.95 36.96 70.96 36.96 70.97 36.96 70.99 36.95 71.01 36.95 71.03 36.95 71.04 36.94 71.06 36.94 71.08 36.93 71.11 36.93 71.11 36.93 71.11 36.93 71.14 36.92 71.15 36.92 71.16 36.91 71.21 36.9 71.22 36.9 71.22 36.9 71.23 36.9 71.23 36.9 71.24 36.9 71.26 36.89 71.29 36.89 71.31 36.88 71.4 36.86 71.44 36.85 71.45 36.85 71.45 36.85 71.45 36.85 71.48 36.84 71.49 36.84 71.5 36.84 71.5 36.84 71.51 36.83 71.51 36.83 71.63 36.81 71.63 36.81 71.64 36.8 71.78 36.77 71.78 36.77 71.8 36.77 71.81 36.76 71.83 36.76 71.87 36.75 71.93 36.74 71.94 36.74 71.97 36.73 71.99 36.72 71.99 36.72 72.08 36.7 72.08 36.7 72.12 36.69 72.13 36.69 72.17 36.68 72.18 36.68 72.18 36.68 72.2 36.68 72.2 36.68 72.24 36.67 72.28 36.66 72.3 36.66 72.3 36.66 72.3 36.66 72.3 36.65 72.32 36.65 72.34 36.65 72.34 36.64 72.37 36.64 72.37 36.64 72.38 36.64 72.39 36.63 72.43 36.63 72.43 36.62 72.44 36.62 72.44 36.62 72.45 36.62 72.49 36.61 72.5 36.61 72.6 36.59 72.62 36.58 72.65 36.58 72.66 36.57 72.68 36.57 72.7 36.56 72.73 36.56 72.77 36.55 72.79 36.55 72.79 36.54 72.8 36.54 72.82 36.54 72.92 36.52 73 36.5 73.04 36.49 73.04 36.49 73.05 36.49 73.05 36.49 73.06 36.48 73.06 36.48 73.08 36.48 73.1 36.48 73.12 36.47 73.13 36.47 73.14 36.47 73.19 36.46 73.19 36.46 73.2 36.45 73.2 36.45 73.24 36.44 73.25 36.44 73.28 36.44 73.29 36.43 73.29 36.43 73.3 36.43 73.36 36.42 73.41 36.41 73.45 36.4 73.5 36.39 73.51 36.38 73.51 36.38 73.52 36.38 73.54 36.38 73.54 36.38 73.55 36.38 73.56 36.37 73.57 36.37 73.57 36.37 73.57 36.37 73.61 36.36 73.62 36.36 73.62 36.36 73.65 36.35 73.71 36.34 73.74 36.33 73.76 36.33 73.79 36.32 73.83 36.31 73.84 36.31 73.86 36.31 73.88 36.3 73.89 36.3 73.91 36.3 73.92 36.29 73.93 36.29 73.96 36.29 73.96 36.28 74.02 36.27 74.03 36.27 74.06 36.26 74.07 36.26 74.08 36.26 74.09 36.26 74.09 36.26 74.13 36.25 74.14 36.25 74.16 36.24 74.19 36.24 74.21 36.23 74.22 36.23 74.25 36.22 74.29 36.21 74.34 36.2 74.35 36.2 74.39 36.19 74.4 36.19 74.41 36.19 74.42 36.18 74.44 36.18 74.46 36.18 74.46 36.17 74.47 36.17 74.49 36.17 74.5 36.17 74.51 36.16 74.55 36.15 74.56 36.15 74.56 36.15 74.6 36.14 74.67 36.13 74.69 36.12 74.69 36.12 74.7 36.12 74.71 36.12 74.76 36.11 74.77 36.1 74.79 36.1 74.8 36.1 74.81 36.1 74.88 36.08 74.92 36.07 74.97 36.06 74.97 36.06 74.99 36.06 75 36.05 75 36.05 75.01 36.05 75.02 36.05 75.1 36.03 75.12 36.03 75.12 36.03 75.12 36.02 75.13 36.02 75.15 36.02 75.16 36.02 75.17 36.01 75.21 36 75.27 35.99 75.28 35.99 75.28 35.99 75.29 35.99 75.3 35.98 75.35 35.97 75.35 35.97 75.35 35.97 75.36 35.97 75.39 35.96 75.4 35.96 75.42 35.96 75.47 35.95 75.47 35.94 75.5 35.94 75.51 35.94 75.53 35.93 75.55 35.93 75.55 35.93 75.59 35.92 75.64 35.91 75.67 35.9 75.69 35.89 75.7 35.89 75.74 35.88 75.74 35.88 75.75 35.88 75.75 35.88 75.79 35.87 76 35.82 76.01 35.82 76.01 35.82 76.07 35.8 76.08 35.8 76.08 35.8 76.15 35.79 76.15 35.79 76.19 35.78 76.19 35.78 76.21 35.77 76.22 35.77 76.24 35.77 76.3 35.75 76.35 35.74 76.37 35.73 76.42 35.72 76.42 35.72 76.49 35.71 76.49 35.71 76.52 35.7 76.53 35.7 76.57 35.69 76.58 35.68 76.58 35.68 76.6 35.68 76.62 35.67 76.65 35.67 76.68 35.66 76.73 35.65 76.73 35.65 76.76 35.64 76.8 35.63 76.81 35.63 76.81 35.63 76.81 35.63 76.83 35.62 76.84 35.62 76.93 35.6 76.95 35.59 76.99 35.58 77.02 35.58 77.05 35.57 77.07 35.56 77.07 35.56 77.08 35.56 77.11 35.55 77.11 35.55 77.15 35.54 77.2 35.53 77.22 35.52 77.24 35.52 77.24 35.52 77.27 35.51 77.27 35.51 77.28 35.51 77.35 35.49 77.41 35.48 77.43 35.47 77.49 35.46 77.5 35.45 77.52 35.45 77.52 35.45 77.53 35.44 77.54 35.44 77.55 35.44 77.59 35.43 77.59 35.43 77.59 35.43 77.62 35.42 77.66 35.41 77.66 35.41 77.67 35.41 77.67 35.41 77.68 35.41 77.69 35.4 77.7 35.4 77.71 35.4 77.77 35.38 77.8 35.37 77.81 35.37 77.86 35.36 77.88 35.35 77.89 35.35 77.9 35.35 77.92 35.34 78.01 35.32 78.02 35.31 78.04 35.31 78.06 35.31 78.06 35.3 78.1 35.29 78.1 35.29 78.12 35.29 78.12 35.29 78.23 35.26 78.23 35.26 78.29 35.24 78.29 35.24 78.29 35.24 78.31 35.24 78.36 35.22 78.37 35.22 78.4 35.21 78.43 35.2 78.44 35.2 78.46 35.2 78.48 35.19 78.54 35.17 78.56 35.17 78.64 35.14 78.68 35.13 78.68 35.13 78.68 35.13 78.72 35.12 78.72 35.12 78.84 35.09 78.84 35.09 78.85 35.08 78.86 35.08 78.87 35.08 78.95 35.05 78.97 35.05 78.97 35.05 79 35.04 79.01 35.04 79.01 35.04 79.02 35.04 79.02 35.03 79.03 35.03 79.05 35.03 79.07 35.02 79.09 35.01 79.09 35.01 79.13 35 79.14 35 79.16 34.99 79.2 34.98 79.31 34.95 79.33 34.94 79.34 34.94 79.37 34.93 79.37 34.93 79.39 34.93 79.39 34.92 79.42 34.92 79.42 34.92 79.43 34.91 79.44 34.91 79.48 34.9 79.5 34.89 79.53 34.88 79.54 34.88 79.61 34.86 79.65 34.85 79.66 34.84 79.67 34.84 79.68 34.84 79.79 34.8 79.79 34.8 79.81 34.8 79.82 34.79 79.85 34.78 79.87 34.78 79.96 34.75 79.96 34.75 79.96 34.75 79.98 34.74 80.01 34.73 80.05 34.72 80.07 34.72 80.07 34.71 80.08 34.71 80.11 34.7 80.16 34.69 80.18 34.68 80.26 34.65 80.3 34.64 80.34 34.63 80.38 34.61 80.42 34.6 80.46 34.59 80.51 34.57 80.53 34.57 80.53 34.56 80.54 34.56 80.58 34.55 80.6 34.54 80.63 34.53 80.64 34.53 80.65 34.52 80.65 34.52 80.7 34.51 80.76 34.49 80.77 34.48 80.78 34.48 80.84 34.46 80.85 34.46 80.87 34.45 80.87 34.45 80.87 34.45 80.89 34.44 80.92 34.43 81.02 34.4 81.09 34.37 81.14 34.36 81.16 34.35 81.17 34.34 81.17 34.34 81.2 34.34 81.2 34.33 81.21 34.33 81.3 34.3 81.32 34.29 81.35 34.28 81.37 34.27 81.37 34.27 81.38 34.27 81.41 34.26 81.42 34.26 81.44 34.25 81.49 34.23 81.51 34.22 81.52 34.22 81.57 34.2 81.61 34.19 81.64 34.18 81.65 34.17 81.73 34.14 81.73 34.14 81.75 34.14 81.82 34.11 81.83 34.11 81.86 34.09 81.89 34.08 81.91 34.07 81.96 34.06 81.97 34.05 82.01 34.04 82.04 34.03 82.04 34.03 82.08 34.01 82.11 34 82.11 34 82.2 33.96 82.21 33.96 82.22 33.96 82.25 33.95 82.26 33.94 82.27 33.94 82.29 33.93 82.35 33.91 82.35 33.91 82.36 33.9 82.42 33.88 82.45 33.87 82.48 33.86 82.51 33.85 82.52 33.84 82.53 33.84 82.55 33.83 82.59 33.81 82.61 33.8 82.64 33.79 82.7 33.77 82.72 33.76 82.73 33.76 82.74 33.76 82.78 33.74 82.8 33.73 82.8 33.73 82.86 33.71 82.86 33.7 82.87 33.7 82.91 33.69 82.91 33.68 82.93 33.68 83.02 33.64 83.1 33.61 83.15 33.59 83.15 33.59 83.17 33.58 83.22 33.56 83.22 33.56 83.23 33.55 83.28 33.53 83.28 33.53 83.29 33.53 83.35 33.5 83.38 33.49 83.41 33.48 83.43 33.47 83.43 33.47 83.45 33.46 83.55 33.42 83.61 33.39 83.66 33.37 83.67 33.37 83.68 33.36 83.68 33.36 83.73 33.34 83.73 33.34 83.73 33.34 83.83 33.3 83.87 33.28 83.91 33.26 83.95 33.25 83.95 33.24 83.98 33.23 84.01 33.22 84.1 33.18 84.11 33.17 84.12 33.17 84.2 33.14 84.25 33.11 84.26 33.11 84.28 33.1 84.42 33.04 84.42 33.04 84.47 33.01 84.49 33.01 84.55 32.98 84.57 32.97 84.61 32.95 84.62 32.94 84.64 32.93 84.65 32.93 84.66 32.93 84.71 32.9 84.73 32.9 84.73 32.89 84.74 32.89 84.85 32.84 84.86 32.83 84.87 32.83 85.07 32.74 85.13 32.71 85.18 32.69 85.28 32.64 85.28 32.64 85.28 32.64 85.34 32.61 85.43 32.56 85.43 32.56 85.53 32.51 85.56 32.5 85.61 32.48 85.66 32.45 85.7 32.43 85.71 32.43 85.77 32.4 85.88 32.34 85.9 32.34 85.91 32.33 85.92 32.33 85.93 32.32 86 32.29 86 32.29 86.02 32.28 86.09 32.24 86.11 32.23 86.25 32.16 86.26 32.16 86.27 32.16 86.34 32.12 86.42 32.08 86.52 32.03 86.53 32.02 86.64 31.97 86.65 31.96 86.65 31.96 86.65 31.96 86.82 31.88 86.82 31.88 86.83 31.87 86.87 31.85 86.92 31.83 86.97 31.8 87.01 31.78 87.2 31.68 87.36 31.6 87.36 31.6 87.37 31.59 87.4 31.58 87.43 31.56 87.47 31.55 87.5 31.53 87.58 31.48 87.59 31.48 87.6 31.48 87.61 31.47 87.63 31.46 87.7 31.42 87.72 31.41 87.88 31.33 87.89 31.33 87.89 31.33 87.92 31.31 88.05 31.24 88.25 31.14 88.35 31.09 88.35 31.09 88.39 31.06 88.43 31.05 88.47 31.02 88.57 30.97 88.61 30.95 88.61 30.95 88.74 30.88 88.83 30.84 88.91 30.8 88.93 30.79 88.93 30.78 89.05 30.72 89.08 30.71 89.22 30.63 89.29 30.6 89.42 30.53 89.58 30.45 89.74 30.37 89.8 30.34 89.81 30.33 89.86 30.31 89.92 30.28 90.05 30.22 90.15 30.16 90.8 29.85 90.85 29.83 90.85 29.82 91.11 29.7 91.13 29.69 91.13 29.69 91.21 29.66 91.26 29.64 91.5 29.53 91.68 29.45 91.72 29.43 91.87 29.37 91.97 29.33 92 29.32 92.17 29.24 92.57 29.09 92.8 29.01 92.98 28.95 93.1 28.91 93.2 28.88 93.34 28.84 93.55 28.78 93.59 28.77 93.76 28.72 93.79 28.72 93.83 28.71 93.83 28.71 93.85 28.7 93.96 28.68 94 28.67 94.99 28.53 95.2 28.51 95.33 28.51 95.5 28.51 95.57 28.51 95.63 28.52 96.02 28.55 96.18 28.57 96.4 28.61 96.6 28.66 97.48 28.98 97.65 29.06 97.74 29.11 98.64 29.74 99.61 30.73 100.36 31.77 103.78 40.33"/>
      </g>
    </g>
  </g>
  <g class="guide ylabels" font-size="2.82" font-family="'PT Sans Caption','Helvetica Neue','Helvetica',sans-serif" fill="#6C606B" id="fig-8e4db1c2bd88480990578bd69afd8733-element-17">
    <text x="16.96" y="78.72" text-anchor="end" dy="0.35em">4</text>
    <text x="16.96" y="62.69" text-anchor="end" dy="0.35em">6</text>
    <text x="16.96" y="46.66" text-anchor="end" dy="0.35em">8</text>
    <text x="16.96" y="30.64" text-anchor="end" dy="0.35em">10</text>
    <text x="16.96" y="14.61" text-anchor="end" dy="0.35em">12</text>
  </g>
  <g font-size="3.88" font-family="'PT Sans','Helvetica Neue','Helvetica',sans-serif" fill="#564A55" stroke="#000000" stroke-opacity="0.000" id="fig-8e4db1c2bd88480990578bd69afd8733-element-18">
    <text x="8.81" y="44.66" text-anchor="middle" dy="0.35em" transform="rotate(-90, 8.81, 46.66)">Y0tc</text>
  </g>
  <g font-size="3.88" font-family="'PT Sans','Helvetica Neue','Helvetica',sans-serif" fill="#564A55" stroke="#000000" stroke-opacity="0.000" id="fig-8e4db1c2bd88480990578bd69afd8733-element-19">
    <text x="64.97" y="10.61" text-anchor="middle">Actual Data vs. Least Squares Fit, K = 12</text>
  </g>
</g>
<defs>
<clipPath id="fig-8e4db1c2bd88480990578bd69afd8733-element-9">
  <path d="M17.96,12.61 L 111.97 12.61 111.97 80.72 17.96 80.72" />
</clipPath
></defs>
</svg>
