<?xml version="1.0" encoding="UTF-8"?>
<svg xmlns="http://www.w3.org/2000/svg"
     xmlns:xlink="http://www.w3.org/1999/xlink"
     xmlns:gadfly="http://www.gadflyjl.org/ns"
     version="1.2"
     width="141.42mm" height="100mm" viewBox="0 0 141.42 100"
     stroke="none"
     fill="#000000"
     stroke-width="0.3"
     font-size="3.88"
>
<g class="plotroot xscalable yscalable" id="fig-7bcdc48aba5247bc85298794dc10164e-element-1">
  <g font-size="3.88" font-family="'PT Sans','Helvetica Neue','Helvetica',sans-serif" fill="#564A55" stroke="#000000" stroke-opacity="0.000" id="fig-7bcdc48aba5247bc85298794dc10164e-element-2">
    <text x="66.43" y="88.39" text-anchor="middle" dy="0.6em">X0te</text>
  </g>
  <g class="guide xlabels" font-size="2.82" font-family="'PT Sans Caption','Helvetica Neue','Helvetica',sans-serif" fill="#6C606B" id="fig-7bcdc48aba5247bc85298794dc10164e-element-3">
    <text x="19.96" y="81.72" text-anchor="middle" dy="0.6em">7</text>
    <text x="38.55" y="81.72" text-anchor="middle" dy="0.6em">8</text>
    <text x="57.13" y="81.72" text-anchor="middle" dy="0.6em">9</text>
    <text x="75.72" y="81.72" text-anchor="middle" dy="0.6em">10</text>
    <text x="94.31" y="81.72" text-anchor="middle" dy="0.6em">11</text>
    <text x="112.89" y="81.72" text-anchor="middle" dy="0.6em">12</text>
  </g>
  <g class="guide colorkey" id="fig-7bcdc48aba5247bc85298794dc10164e-element-4">
    <g fill="#4C404B" font-size="2.82" font-family="'PT Sans','Helvetica Neue','Helvetica',sans-serif" id="fig-7bcdc48aba5247bc85298794dc10164e-element-5">
      <text x="118.71" y="46.66" dy="0.35em">Soft Threshold</text>
      <text x="118.71" y="50.29" dy="0.35em">Data</text>
    </g>
    <g stroke="#000000" stroke-opacity="0.000" id="fig-7bcdc48aba5247bc85298794dc10164e-element-6">
      <rect x="115.89" y="45.76" width="1.81" height="1.81" fill="#008000"/>
      <rect x="115.89" y="49.38" width="1.81" height="1.81" fill="#00BFFF"/>
    </g>
    <g fill="#362A35" font-size="3.88" font-family="'PT Sans','Helvetica Neue','Helvetica',sans-serif" stroke="#000000" stroke-opacity="0.000" id="fig-7bcdc48aba5247bc85298794dc10164e-element-7">
      <text x="115.89" y="42.84">Legend</text>
    </g>
  </g>
  <g clip-path="url(#fig-7bcdc48aba5247bc85298794dc10164e-element-9)" id="fig-7bcdc48aba5247bc85298794dc10164e-element-8">
    <g pointer-events="visible" opacity="1" fill="#000000" fill-opacity="0.000" stroke="#000000" stroke-opacity="0.000" class="guide background" id="fig-7bcdc48aba5247bc85298794dc10164e-element-10">
      <rect x="17.96" y="12.61" width="96.94" height="68.1"/>
    </g>
    <g class="guide ygridlines xfixed" stroke-dasharray="0.5,0.5" stroke-width="0.2" stroke="#D0D0E0" id="fig-7bcdc48aba5247bc85298794dc10164e-element-11">
      <path fill="none" d="M17.96,78.71 L 114.89 78.71"/>
      <path fill="none" d="M17.96,68.03 L 114.89 68.03"/>
      <path fill="none" d="M17.96,57.35 L 114.89 57.35"/>
      <path fill="none" d="M17.96,46.66 L 114.89 46.66"/>
      <path fill="none" d="M17.96,35.98 L 114.89 35.98"/>
      <path fill="none" d="M17.96,25.3 L 114.89 25.3"/>
      <path fill="none" d="M17.96,14.61 L 114.89 14.61"/>
    </g>
    <g class="guide xgridlines yfixed" stroke-dasharray="0.5,0.5" stroke-width="0.2" stroke="#D0D0E0" id="fig-7bcdc48aba5247bc85298794dc10164e-element-12">
      <path fill="none" d="M19.96,12.61 L 19.96 80.72"/>
      <path fill="none" d="M38.55,12.61 L 38.55 80.72"/>
      <path fill="none" d="M57.13,12.61 L 57.13 80.72"/>
      <path fill="none" d="M75.72,12.61 L 75.72 80.72"/>
      <path fill="none" d="M94.31,12.61 L 94.31 80.72"/>
      <path fill="none" d="M112.89,12.61 L 112.89 80.72"/>
    </g>
    <g class="plotpanel" id="fig-7bcdc48aba5247bc85298794dc10164e-element-13">
      <g class="geometry" id="fig-7bcdc48aba5247bc85298794dc10164e-element-14">
        <g class="color_RGBA{Float32}(0.0f0,0.74736935f0,1.0f0,1.0f0)" stroke="#FFFFFF" stroke-width="0.3" fill="#00BFFF" id="fig-7bcdc48aba5247bc85298794dc10164e-element-15">
          <circle cx="74.19" cy="35.32" r="0.9"/>
          <circle cx="43.68" cy="48.04" r="0.9"/>
          <circle cx="39.23" cy="43.85" r="0.9"/>
          <circle cx="61.08" cy="35.37" r="0.9"/>
          <circle cx="72.49" cy="36.47" r="0.9"/>
          <circle cx="75.03" cy="27.76" r="0.9"/>
          <circle cx="68.89" cy="33.41" r="0.9"/>
          <circle cx="79.41" cy="26.85" r="0.9"/>
          <circle cx="68.15" cy="28.85" r="0.9"/>
          <circle cx="71.18" cy="31.79" r="0.9"/>
          <circle cx="58.48" cy="38.74" r="0.9"/>
          <circle cx="74.92" cy="26.29" r="0.9"/>
          <circle cx="61.38" cy="33.76" r="0.9"/>
          <circle cx="55.6" cy="35.04" r="0.9"/>
          <circle cx="46.77" cy="48.33" r="0.9"/>
          <circle cx="62.23" cy="35.29" r="0.9"/>
          <circle cx="73.97" cy="27.41" r="0.9"/>
          <circle cx="76.26" cy="39.55" r="0.9"/>
          <circle cx="75.02" cy="32.4" r="0.9"/>
          <circle cx="64.9" cy="32.8" r="0.9"/>
          <circle cx="66.71" cy="33.1" r="0.9"/>
          <circle cx="72.89" cy="30.52" r="0.9"/>
          <circle cx="64.21" cy="35.41" r="0.9"/>
          <circle cx="64.97" cy="40.44" r="0.9"/>
          <circle cx="59.75" cy="37.45" r="0.9"/>
          <circle cx="56.05" cy="39.52" r="0.9"/>
          <circle cx="77.3" cy="29.78" r="0.9"/>
          <circle cx="76.91" cy="37.38" r="0.9"/>
          <circle cx="53.48" cy="41.9" r="0.9"/>
          <circle cx="67.61" cy="33.06" r="0.9"/>
          <circle cx="65.56" cy="36.29" r="0.9"/>
          <circle cx="70.78" cy="33.64" r="0.9"/>
          <circle cx="64.06" cy="37.02" r="0.9"/>
          <circle cx="66.65" cy="38.43" r="0.9"/>
          <circle cx="68.4" cy="28.26" r="0.9"/>
          <circle cx="52.04" cy="34.71" r="0.9"/>
          <circle cx="66.88" cy="31.23" r="0.9"/>
          <circle cx="50.68" cy="41.82" r="0.9"/>
          <circle cx="96.4" cy="20.93" r="0.9"/>
          <circle cx="52.48" cy="38.7" r="0.9"/>
          <circle cx="65.53" cy="33.32" r="0.9"/>
          <circle cx="71.22" cy="29.78" r="0.9"/>
          <circle cx="54.73" cy="37.74" r="0.9"/>
          <circle cx="72.56" cy="32.54" r="0.9"/>
          <circle cx="84.54" cy="23.7" r="0.9"/>
          <circle cx="71.19" cy="33.79" r="0.9"/>
          <circle cx="56.21" cy="42.67" r="0.9"/>
          <circle cx="52.85" cy="40.47" r="0.9"/>
          <circle cx="59.42" cy="30.89" r="0.9"/>
          <circle cx="61.14" cy="34.91" r="0.9"/>
          <circle cx="61.79" cy="29" r="0.9"/>
          <circle cx="56.05" cy="35.93" r="0.9"/>
          <circle cx="79.46" cy="24.77" r="0.9"/>
          <circle cx="79.77" cy="26.09" r="0.9"/>
          <circle cx="82.03" cy="35.22" r="0.9"/>
          <circle cx="67.86" cy="33.11" r="0.9"/>
          <circle cx="84.06" cy="27.97" r="0.9"/>
          <circle cx="65.6" cy="29.04" r="0.9"/>
          <circle cx="80.99" cy="29.54" r="0.9"/>
          <circle cx="92" cy="23.23" r="0.9"/>
          <circle cx="48.72" cy="46.06" r="0.9"/>
          <circle cx="91.29" cy="23.4" r="0.9"/>
          <circle cx="77.39" cy="33.29" r="0.9"/>
          <circle cx="53.87" cy="40.37" r="0.9"/>
          <circle cx="51.3" cy="44.54" r="0.9"/>
          <circle cx="68.22" cy="32.34" r="0.9"/>
          <circle cx="69.24" cy="28.06" r="0.9"/>
          <circle cx="44.88" cy="50.69" r="0.9"/>
          <circle cx="65.1" cy="38.43" r="0.9"/>
          <circle cx="74.63" cy="30.29" r="0.9"/>
          <circle cx="71.44" cy="30.05" r="0.9"/>
          <circle cx="53.04" cy="39.45" r="0.9"/>
          <circle cx="69.03" cy="33.97" r="0.9"/>
          <circle cx="57.34" cy="38.27" r="0.9"/>
          <circle cx="70.74" cy="28.66" r="0.9"/>
          <circle cx="61.22" cy="34.38" r="0.9"/>
          <circle cx="75.29" cy="24.86" r="0.9"/>
          <circle cx="60.59" cy="37.94" r="0.9"/>
          <circle cx="70.85" cy="30.87" r="0.9"/>
          <circle cx="74.36" cy="43.4" r="0.9"/>
          <circle cx="55.04" cy="38.93" r="0.9"/>
          <circle cx="52.96" cy="46.51" r="0.9"/>
          <circle cx="73.18" cy="34.29" r="0.9"/>
          <circle cx="52.16" cy="37.57" r="0.9"/>
          <circle cx="76.71" cy="33.62" r="0.9"/>
          <circle cx="68.18" cy="41.19" r="0.9"/>
          <circle cx="50.7" cy="44.71" r="0.9"/>
          <circle cx="77.82" cy="32.3" r="0.9"/>
          <circle cx="63.06" cy="39.64" r="0.9"/>
          <circle cx="79.46" cy="28.6" r="0.9"/>
          <circle cx="42.08" cy="56.37" r="0.9"/>
          <circle cx="72.95" cy="31.47" r="0.9"/>
          <circle cx="69.63" cy="32.36" r="0.9"/>
          <circle cx="51.83" cy="36.55" r="0.9"/>
          <circle cx="69.05" cy="34.46" r="0.9"/>
          <circle cx="70.51" cy="41.76" r="0.9"/>
          <circle cx="74.44" cy="42.83" r="0.9"/>
          <circle cx="74.52" cy="36.56" r="0.9"/>
          <circle cx="81.91" cy="33.55" r="0.9"/>
          <circle cx="73.06" cy="34.52" r="0.9"/>
          <circle cx="68.36" cy="37.37" r="0.9"/>
          <circle cx="77.9" cy="28.38" r="0.9"/>
          <circle cx="65.89" cy="36.58" r="0.9"/>
          <circle cx="67.85" cy="34.1" r="0.9"/>
          <circle cx="59.76" cy="41.1" r="0.9"/>
          <circle cx="89.92" cy="34.52" r="0.9"/>
          <circle cx="55.93" cy="35.01" r="0.9"/>
          <circle cx="56.3" cy="39.9" r="0.9"/>
          <circle cx="69.55" cy="30.92" r="0.9"/>
          <circle cx="79.4" cy="25.77" r="0.9"/>
          <circle cx="35.43" cy="49.27" r="0.9"/>
          <circle cx="57.23" cy="42.58" r="0.9"/>
          <circle cx="61.17" cy="39.42" r="0.9"/>
          <circle cx="45.52" cy="58.71" r="0.9"/>
          <circle cx="45.49" cy="51.36" r="0.9"/>
          <circle cx="59.78" cy="58.49" r="0.9"/>
          <circle cx="41.38" cy="54.68" r="0.9"/>
          <circle cx="71.15" cy="35.96" r="0.9"/>
          <circle cx="64.86" cy="37.85" r="0.9"/>
          <circle cx="43.6" cy="59.94" r="0.9"/>
          <circle cx="49.8" cy="41.12" r="0.9"/>
          <circle cx="60.07" cy="45.51" r="0.9"/>
          <circle cx="46.8" cy="52.16" r="0.9"/>
          <circle cx="67.72" cy="37.31" r="0.9"/>
          <circle cx="81.32" cy="37.53" r="0.9"/>
          <circle cx="49.89" cy="42.86" r="0.9"/>
          <circle cx="64.28" cy="34.31" r="0.9"/>
          <circle cx="47.76" cy="49.75" r="0.9"/>
          <circle cx="71.07" cy="40.14" r="0.9"/>
          <circle cx="87.4" cy="25.47" r="0.9"/>
          <circle cx="56.34" cy="56.24" r="0.9"/>
          <circle cx="106.5" cy="25.2" r="0.9"/>
          <circle cx="59.04" cy="37.27" r="0.9"/>
          <circle cx="80.93" cy="29.85" r="0.9"/>
          <circle cx="58.48" cy="37.88" r="0.9"/>
          <circle cx="70.36" cy="38.54" r="0.9"/>
          <circle cx="41.26" cy="57.25" r="0.9"/>
          <circle cx="39.91" cy="48.95" r="0.9"/>
          <circle cx="57.33" cy="46.16" r="0.9"/>
          <circle cx="72.89" cy="29.47" r="0.9"/>
          <circle cx="82.73" cy="26.37" r="0.9"/>
          <circle cx="44.07" cy="49.69" r="0.9"/>
          <circle cx="70.46" cy="33.99" r="0.9"/>
          <circle cx="86.58" cy="29.32" r="0.9"/>
          <circle cx="60.23" cy="37.76" r="0.9"/>
          <circle cx="62.33" cy="39.32" r="0.9"/>
          <circle cx="58.11" cy="45.67" r="0.9"/>
          <circle cx="55.91" cy="45.29" r="0.9"/>
          <circle cx="64.61" cy="36.85" r="0.9"/>
          <circle cx="72.14" cy="29.43" r="0.9"/>
          <circle cx="62.88" cy="34.55" r="0.9"/>
          <circle cx="80.94" cy="34.65" r="0.9"/>
          <circle cx="98.08" cy="16.34" r="0.9"/>
          <circle cx="79.53" cy="28.94" r="0.9"/>
          <circle cx="63.25" cy="40.66" r="0.9"/>
          <circle cx="74.39" cy="30.5" r="0.9"/>
          <circle cx="59.95" cy="43.05" r="0.9"/>
          <circle cx="86.83" cy="25.07" r="0.9"/>
          <circle cx="80.12" cy="34.67" r="0.9"/>
          <circle cx="97.95" cy="22.3" r="0.9"/>
          <circle cx="60.78" cy="46.09" r="0.9"/>
          <circle cx="86.72" cy="31.61" r="0.9"/>
          <circle cx="82.67" cy="30.38" r="0.9"/>
          <circle cx="88.69" cy="25.91" r="0.9"/>
          <circle cx="80.97" cy="33.16" r="0.9"/>
          <circle cx="60.01" cy="47.61" r="0.9"/>
          <circle cx="75.58" cy="32.11" r="0.9"/>
          <circle cx="85.2" cy="25.96" r="0.9"/>
          <circle cx="64.33" cy="41.05" r="0.9"/>
          <circle cx="81.62" cy="27.05" r="0.9"/>
          <circle cx="77.01" cy="29.78" r="0.9"/>
          <circle cx="84.03" cy="27.01" r="0.9"/>
          <circle cx="77.56" cy="32.24" r="0.9"/>
          <circle cx="78.78" cy="30.98" r="0.9"/>
          <circle cx="82.62" cy="30.57" r="0.9"/>
          <circle cx="84.09" cy="33.34" r="0.9"/>
          <circle cx="59.16" cy="37.94" r="0.9"/>
          <circle cx="88.49" cy="26.73" r="0.9"/>
          <circle cx="83.19" cy="27.49" r="0.9"/>
          <circle cx="91.84" cy="27.16" r="0.9"/>
          <circle cx="91.47" cy="26.03" r="0.9"/>
          <circle cx="67.83" cy="40.34" r="0.9"/>
          <circle cx="74.97" cy="33.03" r="0.9"/>
          <circle cx="76.91" cy="32.23" r="0.9"/>
          <circle cx="73.16" cy="28.11" r="0.9"/>
          <circle cx="78.65" cy="29.56" r="0.9"/>
          <circle cx="67" cy="32.58" r="0.9"/>
          <circle cx="74.48" cy="32.59" r="0.9"/>
          <circle cx="76.23" cy="32.72" r="0.9"/>
          <circle cx="90.7" cy="19.12" r="0.9"/>
          <circle cx="83.61" cy="23.85" r="0.9"/>
          <circle cx="79.39" cy="31.92" r="0.9"/>
          <circle cx="86.06" cy="33.96" r="0.9"/>
          <circle cx="96.19" cy="22.49" r="0.9"/>
          <circle cx="57.36" cy="41.73" r="0.9"/>
          <circle cx="68.31" cy="34.15" r="0.9"/>
          <circle cx="88.06" cy="28.87" r="0.9"/>
          <circle cx="60.68" cy="42.16" r="0.9"/>
          <circle cx="66.44" cy="42.15" r="0.9"/>
          <circle cx="83.87" cy="29.58" r="0.9"/>
          <circle cx="74.14" cy="35.65" r="0.9"/>
          <circle cx="84.44" cy="32.59" r="0.9"/>
          <circle cx="81.41" cy="30.35" r="0.9"/>
          <circle cx="70.62" cy="41.37" r="0.9"/>
          <circle cx="89.66" cy="26.58" r="0.9"/>
          <circle cx="75.82" cy="33.85" r="0.9"/>
          <circle cx="102.19" cy="26.77" r="0.9"/>
          <circle cx="93.42" cy="27.57" r="0.9"/>
          <circle cx="88.23" cy="23.74" r="0.9"/>
          <circle cx="87.74" cy="27.41" r="0.9"/>
          <circle cx="94.01" cy="20.45" r="0.9"/>
          <circle cx="78.65" cy="33" r="0.9"/>
          <circle cx="98.88" cy="29.4" r="0.9"/>
          <circle cx="81.35" cy="34.06" r="0.9"/>
          <circle cx="82.26" cy="24.14" r="0.9"/>
          <circle cx="101.19" cy="26.47" r="0.9"/>
          <circle cx="90.57" cy="28.93" r="0.9"/>
          <circle cx="94.33" cy="27.22" r="0.9"/>
          <circle cx="69.69" cy="42.06" r="0.9"/>
          <circle cx="96.25" cy="24.63" r="0.9"/>
          <circle cx="79.39" cy="35.03" r="0.9"/>
          <circle cx="70.77" cy="44.28" r="0.9"/>
          <circle cx="82.06" cy="29.93" r="0.9"/>
          <circle cx="76.1" cy="28.45" r="0.9"/>
          <circle cx="69.83" cy="37.7" r="0.9"/>
          <circle cx="70.83" cy="33.22" r="0.9"/>
          <circle cx="70.69" cy="36.88" r="0.9"/>
          <circle cx="75.28" cy="35.49" r="0.9"/>
          <circle cx="92.32" cy="24.81" r="0.9"/>
          <circle cx="88.04" cy="25.9" r="0.9"/>
          <circle cx="68.7" cy="32.62" r="0.9"/>
          <circle cx="79.05" cy="25.16" r="0.9"/>
          <circle cx="78.6" cy="34.94" r="0.9"/>
          <circle cx="75.71" cy="38.03" r="0.9"/>
          <circle cx="75.28" cy="31.65" r="0.9"/>
          <circle cx="84.77" cy="27.13" r="0.9"/>
          <circle cx="78.02" cy="29.67" r="0.9"/>
          <circle cx="35.24" cy="54.85" r="0.9"/>
          <circle cx="68.72" cy="31.57" r="0.9"/>
          <circle cx="79.58" cy="28.06" r="0.9"/>
          <circle cx="83.36" cy="29.82" r="0.9"/>
          <circle cx="83.92" cy="31.09" r="0.9"/>
          <circle cx="95.17" cy="25.2" r="0.9"/>
          <circle cx="77.15" cy="37.13" r="0.9"/>
          <circle cx="60.08" cy="39.62" r="0.9"/>
          <circle cx="56.58" cy="47.41" r="0.9"/>
          <circle cx="66.33" cy="40.64" r="0.9"/>
          <circle cx="72.93" cy="34.28" r="0.9"/>
          <circle cx="77.08" cy="34.78" r="0.9"/>
          <circle cx="85.61" cy="29.71" r="0.9"/>
          <circle cx="84.28" cy="34.92" r="0.9"/>
          <circle cx="78.46" cy="31.3" r="0.9"/>
          <circle cx="81.01" cy="32.63" r="0.9"/>
          <circle cx="85.2" cy="33.44" r="0.9"/>
          <circle cx="78.49" cy="38.86" r="0.9"/>
          <circle cx="85.68" cy="33.57" r="0.9"/>
          <circle cx="64.69" cy="38.17" r="0.9"/>
          <circle cx="61.52" cy="42.16" r="0.9"/>
          <circle cx="100" cy="25.26" r="0.9"/>
          <circle cx="85.73" cy="26.59" r="0.9"/>
          <circle cx="95.47" cy="23.95" r="0.9"/>
          <circle cx="79.29" cy="31.49" r="0.9"/>
          <circle cx="83.73" cy="29.76" r="0.9"/>
          <circle cx="82" cy="25.68" r="0.9"/>
          <circle cx="75.83" cy="31.6" r="0.9"/>
          <circle cx="76.48" cy="39.19" r="0.9"/>
          <circle cx="75.31" cy="37.8" r="0.9"/>
          <circle cx="68.6" cy="36.16" r="0.9"/>
          <circle cx="67.43" cy="35.3" r="0.9"/>
          <circle cx="71.59" cy="35.77" r="0.9"/>
          <circle cx="79.09" cy="65.33" r="0.9"/>
          <circle cx="66.21" cy="37.32" r="0.9"/>
          <circle cx="69.55" cy="36.56" r="0.9"/>
          <circle cx="42.52" cy="52.62" r="0.9"/>
          <circle cx="40.01" cy="48.52" r="0.9"/>
          <circle cx="86.03" cy="27.89" r="0.9"/>
          <circle cx="76.57" cy="31.37" r="0.9"/>
          <circle cx="39.56" cy="62.81" r="0.9"/>
          <circle cx="68.07" cy="34.43" r="0.9"/>
          <circle cx="56.76" cy="43.96" r="0.9"/>
          <circle cx="56.03" cy="50.44" r="0.9"/>
          <circle cx="65.26" cy="40.33" r="0.9"/>
          <circle cx="65.27" cy="38.2" r="0.9"/>
          <circle cx="60.3" cy="46.35" r="0.9"/>
          <circle cx="72.69" cy="35.49" r="0.9"/>
          <circle cx="65.14" cy="37.72" r="0.9"/>
          <circle cx="58.7" cy="46.3" r="0.9"/>
          <circle cx="40.87" cy="49.11" r="0.9"/>
          <circle cx="63.82" cy="32.2" r="0.9"/>
          <circle cx="66.43" cy="42.87" r="0.9"/>
          <circle cx="81.27" cy="24.04" r="0.9"/>
          <circle cx="76.78" cy="32.94" r="0.9"/>
          <circle cx="52.5" cy="50.45" r="0.9"/>
          <circle cx="57.03" cy="39.67" r="0.9"/>
          <circle cx="90.61" cy="20.65" r="0.9"/>
          <circle cx="64.44" cy="40.26" r="0.9"/>
          <circle cx="74.09" cy="35.61" r="0.9"/>
          <circle cx="46.68" cy="31.55" r="0.9"/>
          <circle cx="71.01" cy="42.16" r="0.9"/>
          <circle cx="70.51" cy="36.43" r="0.9"/>
          <circle cx="65.6" cy="38.62" r="0.9"/>
          <circle cx="85.49" cy="30.06" r="0.9"/>
          <circle cx="77.9" cy="28.38" r="0.9"/>
          <circle cx="71.73" cy="34.95" r="0.9"/>
          <circle cx="90.08" cy="26.97" r="0.9"/>
          <circle cx="94.05" cy="26.72" r="0.9"/>
          <circle cx="83.12" cy="21.32" r="0.9"/>
          <circle cx="76.78" cy="34.05" r="0.9"/>
          <circle cx="70.91" cy="32.37" r="0.9"/>
          <circle cx="62.18" cy="38.44" r="0.9"/>
          <circle cx="63.66" cy="33.75" r="0.9"/>
          <circle cx="75.68" cy="29.48" r="0.9"/>
          <circle cx="63.57" cy="32.86" r="0.9"/>
          <circle cx="71.81" cy="29.73" r="0.9"/>
          <circle cx="58.75" cy="37.35" r="0.9"/>
          <circle cx="73.12" cy="26.9" r="0.9"/>
          <circle cx="76.89" cy="27.39" r="0.9"/>
          <circle cx="89.79" cy="26.21" r="0.9"/>
          <circle cx="83.34" cy="23.39" r="0.9"/>
          <circle cx="62.83" cy="36.59" r="0.9"/>
          <circle cx="79.54" cy="36.27" r="0.9"/>
          <circle cx="70.16" cy="41.18" r="0.9"/>
          <circle cx="65.93" cy="52.15" r="0.9"/>
          <circle cx="62.93" cy="37.04" r="0.9"/>
          <circle cx="84.27" cy="34.66" r="0.9"/>
          <circle cx="62.2" cy="43.71" r="0.9"/>
          <circle cx="67.01" cy="36.11" r="0.9"/>
          <circle cx="88.67" cy="31.89" r="0.9"/>
          <circle cx="71.87" cy="37.69" r="0.9"/>
          <circle cx="78.93" cy="35.32" r="0.9"/>
          <circle cx="76.95" cy="33.06" r="0.9"/>
          <circle cx="77.61" cy="32.5" r="0.9"/>
          <circle cx="69.69" cy="41.04" r="0.9"/>
          <circle cx="72.18" cy="34.97" r="0.9"/>
          <circle cx="68.61" cy="40.24" r="0.9"/>
          <circle cx="66.27" cy="33.07" r="0.9"/>
          <circle cx="71.98" cy="36.19" r="0.9"/>
          <circle cx="64.7" cy="40.36" r="0.9"/>
          <circle cx="61.68" cy="41.08" r="0.9"/>
          <circle cx="84.62" cy="31.43" r="0.9"/>
          <circle cx="56.96" cy="37.61" r="0.9"/>
          <circle cx="66.04" cy="40.26" r="0.9"/>
          <circle cx="72.72" cy="34.49" r="0.9"/>
          <circle cx="84.51" cy="27.65" r="0.9"/>
          <circle cx="87.79" cy="22.47" r="0.9"/>
          <circle cx="90.97" cy="29.62" r="0.9"/>
          <circle cx="76.01" cy="37.31" r="0.9"/>
          <circle cx="57.94" cy="45.94" r="0.9"/>
          <circle cx="98.65" cy="22.61" r="0.9"/>
          <circle cx="81.58" cy="26.53" r="0.9"/>
          <circle cx="61.21" cy="37.47" r="0.9"/>
          <circle cx="58.36" cy="36.79" r="0.9"/>
          <circle cx="73.46" cy="47.29" r="0.9"/>
          <circle cx="73.99" cy="37.41" r="0.9"/>
          <circle cx="63.91" cy="42.54" r="0.9"/>
          <circle cx="71.61" cy="36.27" r="0.9"/>
          <circle cx="82.84" cy="31.13" r="0.9"/>
          <circle cx="53.24" cy="36.74" r="0.9"/>
          <circle cx="52.75" cy="39.93" r="0.9"/>
          <circle cx="66.37" cy="30.99" r="0.9"/>
          <circle cx="78.12" cy="37.69" r="0.9"/>
          <circle cx="62.95" cy="34.9" r="0.9"/>
          <circle cx="68.3" cy="30.08" r="0.9"/>
          <circle cx="81.3" cy="31.72" r="0.9"/>
          <circle cx="88.8" cy="24.76" r="0.9"/>
          <circle cx="83.43" cy="39.43" r="0.9"/>
          <circle cx="68.65" cy="28.17" r="0.9"/>
          <circle cx="86.28" cy="37.11" r="0.9"/>
          <circle cx="82.34" cy="28.29" r="0.9"/>
          <circle cx="75.36" cy="28.54" r="0.9"/>
          <circle cx="66.64" cy="39.02" r="0.9"/>
          <circle cx="85.8" cy="31.54" r="0.9"/>
          <circle cx="67.83" cy="35.12" r="0.9"/>
          <circle cx="70.98" cy="29.43" r="0.9"/>
          <circle cx="57.3" cy="41.42" r="0.9"/>
          <circle cx="95.57" cy="24.07" r="0.9"/>
          <circle cx="62.57" cy="34.34" r="0.9"/>
          <circle cx="77.51" cy="31.18" r="0.9"/>
          <circle cx="69.07" cy="34.57" r="0.9"/>
          <circle cx="64.45" cy="37.38" r="0.9"/>
          <circle cx="55.62" cy="33.33" r="0.9"/>
          <circle cx="68.29" cy="33.53" r="0.9"/>
          <circle cx="66.28" cy="41.44" r="0.9"/>
          <circle cx="54.45" cy="46.85" r="0.9"/>
          <circle cx="53.24" cy="41.28" r="0.9"/>
          <circle cx="89.09" cy="32.36" r="0.9"/>
          <circle cx="65.12" cy="30.62" r="0.9"/>
          <circle cx="55.59" cy="34.99" r="0.9"/>
          <circle cx="76.96" cy="32.57" r="0.9"/>
          <circle cx="73.77" cy="38.57" r="0.9"/>
          <circle cx="69.02" cy="35.31" r="0.9"/>
          <circle cx="67.25" cy="37.06" r="0.9"/>
          <circle cx="80.92" cy="26.69" r="0.9"/>
          <circle cx="81.91" cy="27.91" r="0.9"/>
          <circle cx="52.22" cy="45.08" r="0.9"/>
          <circle cx="56.6" cy="36.88" r="0.9"/>
          <circle cx="73.18" cy="36.02" r="0.9"/>
          <circle cx="54.31" cy="39.21" r="0.9"/>
          <circle cx="55.98" cy="39.78" r="0.9"/>
          <circle cx="67.73" cy="35.67" r="0.9"/>
          <circle cx="52.9" cy="40.03" r="0.9"/>
          <circle cx="88.4" cy="29.95" r="0.9"/>
          <circle cx="86.51" cy="30.22" r="0.9"/>
          <circle cx="97.64" cy="20.34" r="0.9"/>
          <circle cx="71.3" cy="35.31" r="0.9"/>
          <circle cx="62.1" cy="36.54" r="0.9"/>
          <circle cx="56.69" cy="37.9" r="0.9"/>
          <circle cx="83.16" cy="34.28" r="0.9"/>
          <circle cx="88.14" cy="30.45" r="0.9"/>
          <circle cx="64.28" cy="41.43" r="0.9"/>
          <circle cx="85.44" cy="27.55" r="0.9"/>
          <circle cx="26.62" cy="70.98" r="0.9"/>
          <circle cx="72.12" cy="31.61" r="0.9"/>
          <circle cx="77.06" cy="30.75" r="0.9"/>
          <circle cx="56.08" cy="49.96" r="0.9"/>
          <circle cx="68.79" cy="36.94" r="0.9"/>
          <circle cx="88.26" cy="35.04" r="0.9"/>
          <circle cx="69.32" cy="47.75" r="0.9"/>
          <circle cx="58.89" cy="42.48" r="0.9"/>
          <circle cx="56.72" cy="39.82" r="0.9"/>
          <circle cx="74.2" cy="30.27" r="0.9"/>
          <circle cx="79.22" cy="28.73" r="0.9"/>
          <circle cx="67.3" cy="39.03" r="0.9"/>
          <circle cx="32.85" cy="69.53" r="0.9"/>
          <circle cx="66.53" cy="38.31" r="0.9"/>
          <circle cx="55.33" cy="33.18" r="0.9"/>
          <circle cx="57.72" cy="37.71" r="0.9"/>
          <circle cx="75.63" cy="68.57" r="0.9"/>
          <circle cx="80.77" cy="27.23" r="0.9"/>
          <circle cx="54.6" cy="35.6" r="0.9"/>
          <circle cx="64" cy="41.97" r="0.9"/>
          <circle cx="75.84" cy="30.76" r="0.9"/>
          <circle cx="81.08" cy="43.39" r="0.9"/>
          <circle cx="72.77" cy="31.62" r="0.9"/>
          <circle cx="68.47" cy="33.43" r="0.9"/>
          <circle cx="77.97" cy="35" r="0.9"/>
          <circle cx="66.89" cy="32.1" r="0.9"/>
          <circle cx="84.91" cy="32.19" r="0.9"/>
          <circle cx="82.49" cy="31.34" r="0.9"/>
          <circle cx="73.99" cy="33.84" r="0.9"/>
          <circle cx="63.08" cy="26.88" r="0.9"/>
          <circle cx="55.46" cy="35" r="0.9"/>
          <circle cx="44.31" cy="47.03" r="0.9"/>
          <circle cx="72.74" cy="44.27" r="0.9"/>
          <circle cx="81.06" cy="28.98" r="0.9"/>
          <circle cx="74.53" cy="28.95" r="0.9"/>
          <circle cx="70.86" cy="32.85" r="0.9"/>
          <circle cx="71.33" cy="28.7" r="0.9"/>
          <circle cx="75.9" cy="37.5" r="0.9"/>
          <circle cx="77.21" cy="35.37" r="0.9"/>
          <circle cx="57.75" cy="38.5" r="0.9"/>
          <circle cx="79.36" cy="32.43" r="0.9"/>
          <circle cx="78.58" cy="36.21" r="0.9"/>
          <circle cx="60.3" cy="47.47" r="0.9"/>
          <circle cx="53.41" cy="37.11" r="0.9"/>
          <circle cx="99.09" cy="23.89" r="0.9"/>
          <circle cx="76.76" cy="35.53" r="0.9"/>
          <circle cx="64.94" cy="38.9" r="0.9"/>
          <circle cx="91.68" cy="28.36" r="0.9"/>
          <circle cx="90.65" cy="29.03" r="0.9"/>
          <circle cx="58.89" cy="35.42" r="0.9"/>
          <circle cx="71.12" cy="31.74" r="0.9"/>
          <circle cx="92.13" cy="18.94" r="0.9"/>
          <circle cx="78.96" cy="32.83" r="0.9"/>
          <circle cx="80.58" cy="28.51" r="0.9"/>
          <circle cx="57.82" cy="50.78" r="0.9"/>
          <circle cx="82.6" cy="28.58" r="0.9"/>
          <circle cx="69.07" cy="35.39" r="0.9"/>
          <circle cx="83.73" cy="27.98" r="0.9"/>
          <circle cx="98.49" cy="21.46" r="0.9"/>
          <circle cx="65.68" cy="36.37" r="0.9"/>
          <circle cx="80.75" cy="30.06" r="0.9"/>
          <circle cx="61.52" cy="33.31" r="0.9"/>
          <circle cx="89.18" cy="30.45" r="0.9"/>
          <circle cx="79.42" cy="37.21" r="0.9"/>
          <circle cx="87.56" cy="30.31" r="0.9"/>
          <circle cx="79.55" cy="31.6" r="0.9"/>
          <circle cx="71.08" cy="34.79" r="0.9"/>
          <circle cx="58.24" cy="42.03" r="0.9"/>
          <circle cx="62.73" cy="34.98" r="0.9"/>
          <circle cx="73.3" cy="31.94" r="0.9"/>
          <circle cx="68.78" cy="34.07" r="0.9"/>
          <circle cx="70.26" cy="37.75" r="0.9"/>
          <circle cx="88.99" cy="31.25" r="0.9"/>
          <circle cx="53.89" cy="41.66" r="0.9"/>
          <circle cx="53.81" cy="45.36" r="0.9"/>
          <circle cx="94.51" cy="28.23" r="0.9"/>
          <circle cx="71.55" cy="39.12" r="0.9"/>
          <circle cx="72.54" cy="37.42" r="0.9"/>
          <circle cx="68.32" cy="40.01" r="0.9"/>
          <circle cx="80.18" cy="36" r="0.9"/>
          <circle cx="81.76" cy="27.3" r="0.9"/>
          <circle cx="53.05" cy="39.26" r="0.9"/>
          <circle cx="83.36" cy="29.82" r="0.9"/>
          <circle cx="78.4" cy="24.18" r="0.9"/>
          <circle cx="67.05" cy="37.36" r="0.9"/>
          <circle cx="81.47" cy="30.2" r="0.9"/>
          <circle cx="78.52" cy="24.73" r="0.9"/>
          <circle cx="91.32" cy="26.38" r="0.9"/>
          <circle cx="65.64" cy="40.08" r="0.9"/>
          <circle cx="71.84" cy="34.39" r="0.9"/>
          <circle cx="66.63" cy="37.82" r="0.9"/>
          <circle cx="74.76" cy="28.76" r="0.9"/>
          <circle cx="79.49" cy="30.56" r="0.9"/>
          <circle cx="89.9" cy="22.96" r="0.9"/>
          <circle cx="69.46" cy="38.26" r="0.9"/>
          <circle cx="87.4" cy="28.67" r="0.9"/>
          <circle cx="57.79" cy="38.79" r="0.9"/>
          <circle cx="77.15" cy="37.08" r="0.9"/>
          <circle cx="60.18" cy="39.06" r="0.9"/>
          <circle cx="58.59" cy="39.6" r="0.9"/>
          <circle cx="55.75" cy="38.96" r="0.9"/>
          <circle cx="60.76" cy="39.96" r="0.9"/>
          <circle cx="76.54" cy="28.36" r="0.9"/>
          <circle cx="73.87" cy="28.02" r="0.9"/>
          <circle cx="57.54" cy="36.84" r="0.9"/>
          <circle cx="68.9" cy="36.19" r="0.9"/>
          <circle cx="64.86" cy="43.4" r="0.9"/>
          <circle cx="63.35" cy="39.97" r="0.9"/>
          <circle cx="81.37" cy="34.88" r="0.9"/>
          <circle cx="77.33" cy="29.83" r="0.9"/>
          <circle cx="69.64" cy="34.7" r="0.9"/>
          <circle cx="81.12" cy="28.16" r="0.9"/>
          <circle cx="80.44" cy="31.64" r="0.9"/>
          <circle cx="83.29" cy="40.24" r="0.9"/>
          <circle cx="70.74" cy="28.09" r="0.9"/>
          <circle cx="77.35" cy="41.16" r="0.9"/>
          <circle cx="69.46" cy="36.27" r="0.9"/>
          <circle cx="71.2" cy="38.37" r="0.9"/>
          <circle cx="49.01" cy="49.45" r="0.9"/>
          <circle cx="74.5" cy="29.17" r="0.9"/>
          <circle cx="84.97" cy="28.89" r="0.9"/>
          <circle cx="89.56" cy="32.64" r="0.9"/>
          <circle cx="73.48" cy="31.99" r="0.9"/>
          <circle cx="80.58" cy="30.76" r="0.9"/>
          <circle cx="67.4" cy="44.99" r="0.9"/>
          <circle cx="55.45" cy="44.06" r="0.9"/>
          <circle cx="85.94" cy="26.79" r="0.9"/>
          <circle cx="91.06" cy="23.26" r="0.9"/>
          <circle cx="84.68" cy="32" r="0.9"/>
          <circle cx="67.95" cy="40.65" r="0.9"/>
          <circle cx="86.2" cy="28.16" r="0.9"/>
          <circle cx="92.43" cy="26.83" r="0.9"/>
          <circle cx="86.37" cy="43.93" r="0.9"/>
          <circle cx="51.57" cy="51.91" r="0.9"/>
          <circle cx="75.31" cy="29.25" r="0.9"/>
          <circle cx="86.66" cy="29.7" r="0.9"/>
          <circle cx="68.86" cy="33.89" r="0.9"/>
          <circle cx="47.87" cy="52.9" r="0.9"/>
          <circle cx="74.04" cy="29.15" r="0.9"/>
          <circle cx="76.81" cy="30.51" r="0.9"/>
          <circle cx="61.54" cy="41.69" r="0.9"/>
          <circle cx="74.3" cy="33.87" r="0.9"/>
          <circle cx="65.72" cy="38.31" r="0.9"/>
          <circle cx="58.41" cy="42.82" r="0.9"/>
          <circle cx="75.51" cy="32.62" r="0.9"/>
          <circle cx="46.86" cy="51.16" r="0.9"/>
          <circle cx="71" cy="34.73" r="0.9"/>
          <circle cx="76.16" cy="34.08" r="0.9"/>
          <circle cx="85.98" cy="24.83" r="0.9"/>
          <circle cx="60.59" cy="34.91" r="0.9"/>
          <circle cx="73.86" cy="30.51" r="0.9"/>
          <circle cx="78.25" cy="31.53" r="0.9"/>
          <circle cx="56.08" cy="47.08" r="0.9"/>
          <circle cx="71.75" cy="33.37" r="0.9"/>
          <circle cx="72.62" cy="34.63" r="0.9"/>
          <circle cx="76.92" cy="28.13" r="0.9"/>
          <circle cx="78.87" cy="27.14" r="0.9"/>
          <circle cx="57.97" cy="24.33" r="0.9"/>
          <circle cx="82.85" cy="28.47" r="0.9"/>
          <circle cx="74.84" cy="36.22" r="0.9"/>
          <circle cx="65.09" cy="28.47" r="0.9"/>
          <circle cx="81.93" cy="24.57" r="0.9"/>
          <circle cx="83" cy="33.16" r="0.9"/>
          <circle cx="68.4" cy="35.44" r="0.9"/>
          <circle cx="70.16" cy="33.35" r="0.9"/>
          <circle cx="79.94" cy="27.96" r="0.9"/>
          <circle cx="86.74" cy="33.31" r="0.9"/>
          <circle cx="79.37" cy="25.15" r="0.9"/>
          <circle cx="76.8" cy="24.92" r="0.9"/>
          <circle cx="62.38" cy="34.61" r="0.9"/>
          <circle cx="62.62" cy="38.31" r="0.9"/>
          <circle cx="61.71" cy="37.49" r="0.9"/>
          <circle cx="55.72" cy="38.7" r="0.9"/>
          <circle cx="54.94" cy="38.7" r="0.9"/>
          <circle cx="75.15" cy="33.35" r="0.9"/>
          <circle cx="71.75" cy="31.72" r="0.9"/>
          <circle cx="75.54" cy="38.14" r="0.9"/>
          <circle cx="73.9" cy="26.11" r="0.9"/>
          <circle cx="80.46" cy="31.37" r="0.9"/>
          <circle cx="62.01" cy="33.33" r="0.9"/>
          <circle cx="71.63" cy="31.28" r="0.9"/>
          <circle cx="53.65" cy="60.1" r="0.9"/>
          <circle cx="68.4" cy="31.59" r="0.9"/>
          <circle cx="67.39" cy="34.84" r="0.9"/>
          <circle cx="93.53" cy="33.21" r="0.9"/>
          <circle cx="75.01" cy="31.19" r="0.9"/>
          <circle cx="53.49" cy="40.59" r="0.9"/>
          <circle cx="81.01" cy="27.44" r="0.9"/>
          <circle cx="65.16" cy="30.66" r="0.9"/>
          <circle cx="77.55" cy="26.71" r="0.9"/>
          <circle cx="57.26" cy="33.32" r="0.9"/>
          <circle cx="68.92" cy="32.13" r="0.9"/>
          <circle cx="84.47" cy="27.09" r="0.9"/>
          <circle cx="54.34" cy="39.52" r="0.9"/>
          <circle cx="90.8" cy="22.71" r="0.9"/>
          <circle cx="49.57" cy="43.96" r="0.9"/>
          <circle cx="76.32" cy="30.71" r="0.9"/>
          <circle cx="57.93" cy="45.04" r="0.9"/>
          <circle cx="85.49" cy="30.22" r="0.9"/>
          <circle cx="57.56" cy="44.4" r="0.9"/>
          <circle cx="64.07" cy="38.79" r="0.9"/>
          <circle cx="73.82" cy="29.45" r="0.9"/>
          <circle cx="57.55" cy="43.6" r="0.9"/>
          <circle cx="72.37" cy="39.23" r="0.9"/>
          <circle cx="69.33" cy="36.13" r="0.9"/>
          <circle cx="57.3" cy="44.31" r="0.9"/>
          <circle cx="53.12" cy="44.21" r="0.9"/>
          <circle cx="78.41" cy="34.13" r="0.9"/>
          <circle cx="78.36" cy="31" r="0.9"/>
          <circle cx="72.63" cy="38.95" r="0.9"/>
          <circle cx="53.47" cy="47.3" r="0.9"/>
          <circle cx="68.65" cy="38.71" r="0.9"/>
          <circle cx="63.69" cy="39.27" r="0.9"/>
          <circle cx="65.39" cy="35.6" r="0.9"/>
          <circle cx="56.87" cy="43.51" r="0.9"/>
          <circle cx="83.83" cy="28.91" r="0.9"/>
          <circle cx="76.22" cy="30.31" r="0.9"/>
          <circle cx="72.36" cy="31.56" r="0.9"/>
          <circle cx="50.22" cy="58.86" r="0.9"/>
          <circle cx="71.36" cy="32.18" r="0.9"/>
          <circle cx="63.96" cy="30.48" r="0.9"/>
          <circle cx="71.97" cy="35.48" r="0.9"/>
          <circle cx="60.54" cy="39.68" r="0.9"/>
          <circle cx="78.32" cy="32.32" r="0.9"/>
          <circle cx="62.98" cy="37.03" r="0.9"/>
          <circle cx="62.78" cy="29.92" r="0.9"/>
          <circle cx="56.35" cy="38.26" r="0.9"/>
          <circle cx="57.68" cy="34.49" r="0.9"/>
          <circle cx="52.43" cy="41.47" r="0.9"/>
          <circle cx="65.18" cy="27.22" r="0.9"/>
          <circle cx="77.5" cy="32.25" r="0.9"/>
          <circle cx="72.1" cy="37.51" r="0.9"/>
          <circle cx="57.9" cy="41.25" r="0.9"/>
          <circle cx="76.21" cy="30.58" r="0.9"/>
          <circle cx="39.87" cy="65.09" r="0.9"/>
          <circle cx="70.4" cy="50.84" r="0.9"/>
          <circle cx="81.36" cy="27.61" r="0.9"/>
          <circle cx="70.8" cy="39.11" r="0.9"/>
          <circle cx="71.51" cy="35.63" r="0.9"/>
          <circle cx="63.78" cy="35.79" r="0.9"/>
          <circle cx="70.86" cy="34.81" r="0.9"/>
          <circle cx="55.31" cy="37.76" r="0.9"/>
          <circle cx="68.55" cy="35.38" r="0.9"/>
          <circle cx="76.33" cy="32.69" r="0.9"/>
          <circle cx="48.85" cy="41.77" r="0.9"/>
          <circle cx="72.26" cy="37.09" r="0.9"/>
          <circle cx="48.36" cy="40.93" r="0.9"/>
          <circle cx="72.03" cy="28.28" r="0.9"/>
          <circle cx="70.85" cy="33.42" r="0.9"/>
          <circle cx="71.31" cy="31.35" r="0.9"/>
          <circle cx="54.82" cy="40.02" r="0.9"/>
          <circle cx="63.07" cy="32.83" r="0.9"/>
          <circle cx="72.81" cy="35.81" r="0.9"/>
          <circle cx="68.85" cy="31.8" r="0.9"/>
          <circle cx="47.32" cy="48.95" r="0.9"/>
          <circle cx="45.39" cy="44.01" r="0.9"/>
          <circle cx="57.65" cy="41.46" r="0.9"/>
          <circle cx="62.76" cy="40.21" r="0.9"/>
          <circle cx="68.43" cy="34.4" r="0.9"/>
          <circle cx="64.17" cy="40.56" r="0.9"/>
          <circle cx="76.47" cy="35.47" r="0.9"/>
          <circle cx="64.56" cy="39.21" r="0.9"/>
          <circle cx="54.57" cy="59.83" r="0.9"/>
          <circle cx="79.64" cy="24.41" r="0.9"/>
          <circle cx="72.6" cy="41.15" r="0.9"/>
          <circle cx="88.81" cy="19.38" r="0.9"/>
          <circle cx="72.34" cy="30.35" r="0.9"/>
          <circle cx="82.84" cy="34.49" r="0.9"/>
          <circle cx="60.16" cy="35.88" r="0.9"/>
          <circle cx="65.66" cy="37.45" r="0.9"/>
          <circle cx="63.87" cy="43" r="0.9"/>
          <circle cx="67.01" cy="37.43" r="0.9"/>
          <circle cx="70.43" cy="34.03" r="0.9"/>
          <circle cx="76.05" cy="34.31" r="0.9"/>
          <circle cx="81.79" cy="30.06" r="0.9"/>
          <circle cx="62.94" cy="42.16" r="0.9"/>
          <circle cx="75.72" cy="34.97" r="0.9"/>
          <circle cx="47.76" cy="37.5" r="0.9"/>
          <circle cx="66.47" cy="25.35" r="0.9"/>
          <circle cx="62.45" cy="39.55" r="0.9"/>
          <circle cx="80.91" cy="32.17" r="0.9"/>
          <circle cx="65.49" cy="37.05" r="0.9"/>
          <circle cx="59.7" cy="40.77" r="0.9"/>
          <circle cx="83.31" cy="31.77" r="0.9"/>
          <circle cx="73.99" cy="31.94" r="0.9"/>
          <circle cx="70.09" cy="30.84" r="0.9"/>
          <circle cx="58.51" cy="48.92" r="0.9"/>
          <circle cx="79.27" cy="32.71" r="0.9"/>
          <circle cx="82.75" cy="30.73" r="0.9"/>
          <circle cx="86.81" cy="34.22" r="0.9"/>
          <circle cx="77.15" cy="35.38" r="0.9"/>
          <circle cx="84.55" cy="28.95" r="0.9"/>
          <circle cx="74.86" cy="35.79" r="0.9"/>
          <circle cx="86.96" cy="29.35" r="0.9"/>
          <circle cx="72.87" cy="41.95" r="0.9"/>
          <circle cx="71.93" cy="33.81" r="0.9"/>
          <circle cx="87.29" cy="24.31" r="0.9"/>
          <circle cx="54.32" cy="41.39" r="0.9"/>
          <circle cx="65.4" cy="38.69" r="0.9"/>
          <circle cx="75.61" cy="34.87" r="0.9"/>
          <circle cx="59.43" cy="38.38" r="0.9"/>
          <circle cx="69.34" cy="34.53" r="0.9"/>
          <circle cx="93.15" cy="20.64" r="0.9"/>
          <circle cx="98.02" cy="19.29" r="0.9"/>
          <circle cx="71.36" cy="28.56" r="0.9"/>
          <circle cx="78.92" cy="26.78" r="0.9"/>
          <circle cx="73.49" cy="36.49" r="0.9"/>
          <circle cx="61.48" cy="37.88" r="0.9"/>
          <circle cx="80.54" cy="31.7" r="0.9"/>
          <circle cx="66.06" cy="39.69" r="0.9"/>
          <circle cx="39.57" cy="49.89" r="0.9"/>
          <circle cx="75.64" cy="27.89" r="0.9"/>
          <circle cx="64.88" cy="36.62" r="0.9"/>
          <circle cx="77.82" cy="32.06" r="0.9"/>
          <circle cx="84.22" cy="34.91" r="0.9"/>
          <circle cx="81.47" cy="24.62" r="0.9"/>
          <circle cx="84.13" cy="22.62" r="0.9"/>
          <circle cx="100.17" cy="23.96" r="0.9"/>
          <circle cx="80.76" cy="25.42" r="0.9"/>
          <circle cx="80.2" cy="37.5" r="0.9"/>
          <circle cx="63.26" cy="43.28" r="0.9"/>
          <circle cx="67.94" cy="33.02" r="0.9"/>
          <circle cx="62.72" cy="38.21" r="0.9"/>
          <circle cx="86.09" cy="26.2" r="0.9"/>
          <circle cx="72.48" cy="38.06" r="0.9"/>
          <circle cx="90.47" cy="27.67" r="0.9"/>
          <circle cx="79.58" cy="25.46" r="0.9"/>
          <circle cx="70.14" cy="25.67" r="0.9"/>
          <circle cx="79.13" cy="25.56" r="0.9"/>
          <circle cx="80.27" cy="31.96" r="0.9"/>
          <circle cx="74.04" cy="34.86" r="0.9"/>
          <circle cx="83.83" cy="27.64" r="0.9"/>
          <circle cx="67.25" cy="38.21" r="0.9"/>
          <circle cx="83.49" cy="32.15" r="0.9"/>
          <circle cx="78.44" cy="32.9" r="0.9"/>
          <circle cx="68.66" cy="33.4" r="0.9"/>
          <circle cx="66.86" cy="31.52" r="0.9"/>
          <circle cx="74.33" cy="31.94" r="0.9"/>
          <circle cx="85.34" cy="30.81" r="0.9"/>
          <circle cx="62.87" cy="35.39" r="0.9"/>
          <circle cx="65.89" cy="36.73" r="0.9"/>
          <circle cx="82.3" cy="26.73" r="0.9"/>
          <circle cx="79.68" cy="27.72" r="0.9"/>
          <circle cx="72.51" cy="32.98" r="0.9"/>
          <circle cx="79.14" cy="27.06" r="0.9"/>
          <circle cx="85.51" cy="27.22" r="0.9"/>
          <circle cx="75.4" cy="26.18" r="0.9"/>
          <circle cx="86.97" cy="26.79" r="0.9"/>
          <circle cx="94.93" cy="18.77" r="0.9"/>
          <circle cx="60.45" cy="36.83" r="0.9"/>
          <circle cx="46.54" cy="44.77" r="0.9"/>
          <circle cx="82.62" cy="28.74" r="0.9"/>
          <circle cx="77.35" cy="34.41" r="0.9"/>
          <circle cx="88.58" cy="28.54" r="0.9"/>
          <circle cx="78.06" cy="32.62" r="0.9"/>
          <circle cx="100.26" cy="20.91" r="0.9"/>
          <circle cx="80.89" cy="30.91" r="0.9"/>
          <circle cx="85.33" cy="34.98" r="0.9"/>
          <circle cx="63.12" cy="43.8" r="0.9"/>
          <circle cx="70.47" cy="33.54" r="0.9"/>
          <circle cx="70.74" cy="41.94" r="0.9"/>
          <circle cx="89.79" cy="23" r="0.9"/>
          <circle cx="73.18" cy="36.53" r="0.9"/>
          <circle cx="84.58" cy="24.85" r="0.9"/>
          <circle cx="78.01" cy="30.59" r="0.9"/>
          <circle cx="89.04" cy="22.74" r="0.9"/>
          <circle cx="90.26" cy="21.94" r="0.9"/>
          <circle cx="81.96" cy="27.41" r="0.9"/>
          <circle cx="65.17" cy="41.6" r="0.9"/>
          <circle cx="67.77" cy="34.46" r="0.9"/>
          <circle cx="73.16" cy="32.16" r="0.9"/>
          <circle cx="64.16" cy="39.22" r="0.9"/>
          <circle cx="84.95" cy="22.97" r="0.9"/>
          <circle cx="73.62" cy="30.33" r="0.9"/>
          <circle cx="72.65" cy="35.61" r="0.9"/>
          <circle cx="75.35" cy="29.18" r="0.9"/>
          <circle cx="95.94" cy="20.31" r="0.9"/>
          <circle cx="73.77" cy="31.89" r="0.9"/>
          <circle cx="80.94" cy="29.46" r="0.9"/>
          <circle cx="90.84" cy="21.81" r="0.9"/>
          <circle cx="87.25" cy="23.82" r="0.9"/>
          <circle cx="85.27" cy="32.63" r="0.9"/>
          <circle cx="97.78" cy="17.6" r="0.9"/>
          <circle cx="75.95" cy="37.24" r="0.9"/>
          <circle cx="78.05" cy="26.95" r="0.9"/>
          <circle cx="74" cy="33.91" r="0.9"/>
          <circle cx="67.51" cy="33.87" r="0.9"/>
          <circle cx="81.75" cy="25.33" r="0.9"/>
          <circle cx="68.9" cy="34.13" r="0.9"/>
          <circle cx="82.74" cy="30.46" r="0.9"/>
          <circle cx="72.44" cy="30.67" r="0.9"/>
          <circle cx="71.14" cy="33.76" r="0.9"/>
          <circle cx="75.25" cy="32.09" r="0.9"/>
          <circle cx="74.08" cy="30.72" r="0.9"/>
          <circle cx="79" cy="24.85" r="0.9"/>
          <circle cx="75.97" cy="30.68" r="0.9"/>
          <circle cx="85.22" cy="27.01" r="0.9"/>
          <circle cx="63.68" cy="37.95" r="0.9"/>
          <circle cx="76.55" cy="32.84" r="0.9"/>
          <circle cx="69.57" cy="32.39" r="0.9"/>
          <circle cx="71.08" cy="31.96" r="0.9"/>
          <circle cx="66.65" cy="33.57" r="0.9"/>
          <circle cx="88.42" cy="23.75" r="0.9"/>
          <circle cx="55.85" cy="38.84" r="0.9"/>
          <circle cx="58.74" cy="50.08" r="0.9"/>
          <circle cx="74.5" cy="24.98" r="0.9"/>
          <circle cx="64.2" cy="35.14" r="0.9"/>
          <circle cx="73.68" cy="32.97" r="0.9"/>
          <circle cx="72.2" cy="35.49" r="0.9"/>
          <circle cx="72.89" cy="32.26" r="0.9"/>
          <circle cx="82.42" cy="25.04" r="0.9"/>
          <circle cx="82.9" cy="28.8" r="0.9"/>
          <circle cx="76.27" cy="29.46" r="0.9"/>
          <circle cx="82.57" cy="30.2" r="0.9"/>
          <circle cx="77.1" cy="30.86" r="0.9"/>
          <circle cx="95.98" cy="25.01" r="0.9"/>
          <circle cx="85.28" cy="22.5" r="0.9"/>
          <circle cx="61.11" cy="31.26" r="0.9"/>
          <circle cx="71.66" cy="28.84" r="0.9"/>
          <circle cx="68.78" cy="33.63" r="0.9"/>
          <circle cx="71.53" cy="36.82" r="0.9"/>
          <circle cx="84.77" cy="31.26" r="0.9"/>
          <circle cx="78.65" cy="24.68" r="0.9"/>
          <circle cx="71.6" cy="32" r="0.9"/>
          <circle cx="58.94" cy="32.97" r="0.9"/>
          <circle cx="82.02" cy="30.19" r="0.9"/>
          <circle cx="63.6" cy="39.22" r="0.9"/>
          <circle cx="70.08" cy="27.8" r="0.9"/>
          <circle cx="65" cy="41.04" r="0.9"/>
          <circle cx="58.66" cy="38.3" r="0.9"/>
          <circle cx="67.29" cy="30.87" r="0.9"/>
          <circle cx="89.62" cy="26.19" r="0.9"/>
          <circle cx="94.3" cy="26.29" r="0.9"/>
          <circle cx="72.82" cy="37.54" r="0.9"/>
          <circle cx="76.91" cy="27.14" r="0.9"/>
          <circle cx="69.59" cy="38.06" r="0.9"/>
          <circle cx="60.64" cy="40.3" r="0.9"/>
          <circle cx="86.71" cy="26.41" r="0.9"/>
          <circle cx="68.23" cy="35.29" r="0.9"/>
          <circle cx="75.79" cy="29.12" r="0.9"/>
          <circle cx="79.53" cy="27.23" r="0.9"/>
          <circle cx="75.98" cy="29.13" r="0.9"/>
          <circle cx="63.07" cy="38.31" r="0.9"/>
          <circle cx="67.13" cy="34.12" r="0.9"/>
          <circle cx="78.32" cy="33.98" r="0.9"/>
          <circle cx="74.15" cy="28.97" r="0.9"/>
          <circle cx="80.88" cy="30.72" r="0.9"/>
          <circle cx="65.46" cy="39.41" r="0.9"/>
          <circle cx="74.82" cy="36.71" r="0.9"/>
          <circle cx="65.6" cy="30.35" r="0.9"/>
          <circle cx="71.57" cy="39.9" r="0.9"/>
          <circle cx="83.56" cy="27.33" r="0.9"/>
          <circle cx="82.83" cy="28.88" r="0.9"/>
          <circle cx="89.78" cy="27.49" r="0.9"/>
          <circle cx="80" cy="32.97" r="0.9"/>
          <circle cx="89.55" cy="25.33" r="0.9"/>
          <circle cx="95.72" cy="22.62" r="0.9"/>
          <circle cx="79.1" cy="34.6" r="0.9"/>
          <circle cx="79.98" cy="32.23" r="0.9"/>
          <circle cx="96.16" cy="21.5" r="0.9"/>
          <circle cx="89.59" cy="25.76" r="0.9"/>
          <circle cx="72.88" cy="35.05" r="0.9"/>
          <circle cx="76.28" cy="32.08" r="0.9"/>
          <circle cx="67.69" cy="35.76" r="0.9"/>
          <circle cx="88.05" cy="28.07" r="0.9"/>
          <circle cx="59.44" cy="44.99" r="0.9"/>
          <circle cx="72.21" cy="30.21" r="0.9"/>
          <circle cx="73.94" cy="32.31" r="0.9"/>
          <circle cx="69.89" cy="32.56" r="0.9"/>
          <circle cx="65.08" cy="42.28" r="0.9"/>
          <circle cx="79.55" cy="32" r="0.9"/>
          <circle cx="68.1" cy="35.49" r="0.9"/>
          <circle cx="77.27" cy="35.83" r="0.9"/>
          <circle cx="77.2" cy="23.46" r="0.9"/>
          <circle cx="88.99" cy="22.01" r="0.9"/>
          <circle cx="74.07" cy="33.1" r="0.9"/>
          <circle cx="86.65" cy="31" r="0.9"/>
          <circle cx="74.13" cy="39.81" r="0.9"/>
          <circle cx="75.3" cy="37.3" r="0.9"/>
          <circle cx="67.64" cy="37.71" r="0.9"/>
          <circle cx="81.55" cy="35.63" r="0.9"/>
          <circle cx="75.88" cy="31.82" r="0.9"/>
          <circle cx="53.55" cy="42.36" r="0.9"/>
          <circle cx="77.98" cy="32.53" r="0.9"/>
          <circle cx="65.26" cy="33.93" r="0.9"/>
          <circle cx="92.07" cy="29.2" r="0.9"/>
          <circle cx="96.23" cy="23" r="0.9"/>
          <circle cx="89.69" cy="25.13" r="0.9"/>
          <circle cx="89.38" cy="25.39" r="0.9"/>
          <circle cx="88.07" cy="20.85" r="0.9"/>
          <circle cx="74.79" cy="27.5" r="0.9"/>
          <circle cx="74.07" cy="44.59" r="0.9"/>
          <circle cx="75.82" cy="35.91" r="0.9"/>
          <circle cx="74.92" cy="30.03" r="0.9"/>
          <circle cx="79.93" cy="29.99" r="0.9"/>
          <circle cx="71.68" cy="27.7" r="0.9"/>
          <circle cx="66.37" cy="39.24" r="0.9"/>
          <circle cx="80.92" cy="31.43" r="0.9"/>
          <circle cx="75.36" cy="33.62" r="0.9"/>
          <circle cx="73.31" cy="36.38" r="0.9"/>
          <circle cx="82.6" cy="29.68" r="0.9"/>
          <circle cx="94.21" cy="28.33" r="0.9"/>
          <circle cx="73.12" cy="33.62" r="0.9"/>
          <circle cx="74.86" cy="30.87" r="0.9"/>
          <circle cx="68.82" cy="30.61" r="0.9"/>
          <circle cx="67.19" cy="29.77" r="0.9"/>
          <circle cx="76.19" cy="24.44" r="0.9"/>
          <circle cx="84.38" cy="28.78" r="0.9"/>
          <circle cx="90.12" cy="23.8" r="0.9"/>
          <circle cx="69.46" cy="36.17" r="0.9"/>
          <circle cx="68.76" cy="31.51" r="0.9"/>
          <circle cx="59.67" cy="42.44" r="0.9"/>
          <circle cx="68.66" cy="36.57" r="0.9"/>
          <circle cx="73.32" cy="44.34" r="0.9"/>
          <circle cx="72.69" cy="29.61" r="0.9"/>
          <circle cx="64.68" cy="40.32" r="0.9"/>
          <circle cx="85.33" cy="25.85" r="0.9"/>
          <circle cx="86.97" cy="22.87" r="0.9"/>
          <circle cx="80.32" cy="24.34" r="0.9"/>
          <circle cx="73.11" cy="30.57" r="0.9"/>
          <circle cx="62.16" cy="37.81" r="0.9"/>
          <circle cx="76.34" cy="36.64" r="0.9"/>
          <circle cx="77.56" cy="32.31" r="0.9"/>
          <circle cx="69.99" cy="32.17" r="0.9"/>
          <circle cx="78.2" cy="30.49" r="0.9"/>
          <circle cx="61.28" cy="41.01" r="0.9"/>
          <circle cx="71.41" cy="33.51" r="0.9"/>
          <circle cx="65.15" cy="34.63" r="0.9"/>
          <circle cx="55.89" cy="48.54" r="0.9"/>
          <circle cx="63.52" cy="35.76" r="0.9"/>
          <circle cx="82.13" cy="27.16" r="0.9"/>
          <circle cx="82.38" cy="26.51" r="0.9"/>
          <circle cx="80.18" cy="30.88" r="0.9"/>
          <circle cx="75.25" cy="25.37" r="0.9"/>
          <circle cx="79.98" cy="29.07" r="0.9"/>
          <circle cx="79.56" cy="27.69" r="0.9"/>
          <circle cx="78.04" cy="27.22" r="0.9"/>
          <circle cx="76.58" cy="29.5" r="0.9"/>
          <circle cx="84.37" cy="30.09" r="0.9"/>
          <circle cx="84.82" cy="24.1" r="0.9"/>
          <circle cx="78.8" cy="30.49" r="0.9"/>
          <circle cx="78.57" cy="31.78" r="0.9"/>
          <circle cx="88.81" cy="25.79" r="0.9"/>
          <circle cx="81.91" cy="32.27" r="0.9"/>
          <circle cx="88.41" cy="26.68" r="0.9"/>
          <circle cx="66.51" cy="34" r="0.9"/>
          <circle cx="63.13" cy="39.53" r="0.9"/>
          <circle cx="67.1" cy="34.14" r="0.9"/>
          <circle cx="69.25" cy="40.92" r="0.9"/>
          <circle cx="82.02" cy="30.64" r="0.9"/>
          <circle cx="68.6" cy="32.34" r="0.9"/>
          <circle cx="72.37" cy="27.22" r="0.9"/>
          <circle cx="83.64" cy="30.41" r="0.9"/>
          <circle cx="61.37" cy="38.07" r="0.9"/>
          <circle cx="66.04" cy="40.53" r="0.9"/>
          <circle cx="63.3" cy="38.85" r="0.9"/>
          <circle cx="69.12" cy="39.07" r="0.9"/>
          <circle cx="62.94" cy="35.62" r="0.9"/>
          <circle cx="64.17" cy="33.15" r="0.9"/>
          <circle cx="84.74" cy="33.94" r="0.9"/>
          <circle cx="80.58" cy="26.39" r="0.9"/>
          <circle cx="83.41" cy="37.86" r="0.9"/>
          <circle cx="68.32" cy="33.13" r="0.9"/>
          <circle cx="73.12" cy="36.58" r="0.9"/>
          <circle cx="77.18" cy="25.87" r="0.9"/>
          <circle cx="71.55" cy="35.79" r="0.9"/>
          <circle cx="67.63" cy="34.51" r="0.9"/>
          <circle cx="60.77" cy="33.34" r="0.9"/>
          <circle cx="75.24" cy="27.67" r="0.9"/>
          <circle cx="69.99" cy="37.76" r="0.9"/>
          <circle cx="75.66" cy="36.73" r="0.9"/>
          <circle cx="73.46" cy="35.74" r="0.9"/>
          <circle cx="74.92" cy="34.3" r="0.9"/>
          <circle cx="82.54" cy="31.21" r="0.9"/>
          <circle cx="76.66" cy="27.28" r="0.9"/>
          <circle cx="86.02" cy="34.12" r="0.9"/>
          <circle cx="84.9" cy="34.87" r="0.9"/>
          <circle cx="67.82" cy="37.19" r="0.9"/>
          <circle cx="82.11" cy="32.95" r="0.9"/>
          <circle cx="62.51" cy="38.7" r="0.9"/>
          <circle cx="87.83" cy="26.54" r="0.9"/>
          <circle cx="93.82" cy="24.33" r="0.9"/>
          <circle cx="79.73" cy="28.6" r="0.9"/>
          <circle cx="75.92" cy="29.64" r="0.9"/>
          <circle cx="83.07" cy="30.05" r="0.9"/>
          <circle cx="78.25" cy="30.52" r="0.9"/>
          <circle cx="69.93" cy="35.33" r="0.9"/>
          <circle cx="85.15" cy="28.18" r="0.9"/>
          <circle cx="83.75" cy="24.76" r="0.9"/>
          <circle cx="93.57" cy="31.89" r="0.9"/>
          <circle cx="70.37" cy="36.96" r="0.9"/>
          <circle cx="88.16" cy="27.91" r="0.9"/>
          <circle cx="75.25" cy="45.46" r="0.9"/>
          <circle cx="86.18" cy="27.78" r="0.9"/>
          <circle cx="93.44" cy="21.32" r="0.9"/>
          <circle cx="78.84" cy="32.95" r="0.9"/>
          <circle cx="71.89" cy="29.55" r="0.9"/>
          <circle cx="72.97" cy="36.08" r="0.9"/>
          <circle cx="77.55" cy="28.66" r="0.9"/>
          <circle cx="74.76" cy="30.74" r="0.9"/>
          <circle cx="69.21" cy="44.57" r="0.9"/>
          <circle cx="76.47" cy="29.89" r="0.9"/>
          <circle cx="55.95" cy="40.42" r="0.9"/>
          <circle cx="79.9" cy="32.51" r="0.9"/>
          <circle cx="79.76" cy="30.6" r="0.9"/>
          <circle cx="66.03" cy="37.55" r="0.9"/>
          <circle cx="58.5" cy="43.18" r="0.9"/>
          <circle cx="83.97" cy="28.97" r="0.9"/>
          <circle cx="55.15" cy="50.77" r="0.9"/>
          <circle cx="83.37" cy="24.07" r="0.9"/>
          <circle cx="60.87" cy="39.39" r="0.9"/>
          <circle cx="61.73" cy="45.56" r="0.9"/>
          <circle cx="54.45" cy="42.1" r="0.9"/>
          <circle cx="84.95" cy="25.56" r="0.9"/>
          <circle cx="87.18" cy="31.65" r="0.9"/>
          <circle cx="87.69" cy="24.67" r="0.9"/>
          <circle cx="71.59" cy="29.9" r="0.9"/>
          <circle cx="90.09" cy="23.43" r="0.9"/>
          <circle cx="89.14" cy="29.37" r="0.9"/>
          <circle cx="95.35" cy="19.5" r="0.9"/>
          <circle cx="87.84" cy="25.83" r="0.9"/>
          <circle cx="50.65" cy="41.77" r="0.9"/>
          <circle cx="76.59" cy="30.55" r="0.9"/>
          <circle cx="78.68" cy="35.03" r="0.9"/>
          <circle cx="79.08" cy="33.79" r="0.9"/>
          <circle cx="89.8" cy="32.87" r="0.9"/>
          <circle cx="67.67" cy="40.6" r="0.9"/>
          <circle cx="66.78" cy="32.76" r="0.9"/>
          <circle cx="81.35" cy="28.71" r="0.9"/>
          <circle cx="83.14" cy="41.57" r="0.9"/>
          <circle cx="87.66" cy="20.57" r="0.9"/>
          <circle cx="76.47" cy="25.58" r="0.9"/>
          <circle cx="72.47" cy="31.8" r="0.9"/>
          <circle cx="84.29" cy="24.41" r="0.9"/>
          <circle cx="69.42" cy="36.07" r="0.9"/>
          <circle cx="81.23" cy="27" r="0.9"/>
          <circle cx="68.08" cy="31.45" r="0.9"/>
          <circle cx="73.87" cy="27.1" r="0.9"/>
          <circle cx="73.89" cy="34.71" r="0.9"/>
          <circle cx="58.58" cy="47.46" r="0.9"/>
          <circle cx="75.1" cy="25.81" r="0.9"/>
          <circle cx="64.97" cy="39.16" r="0.9"/>
          <circle cx="78.41" cy="30.78" r="0.9"/>
          <circle cx="58.89" cy="36.72" r="0.9"/>
          <circle cx="74.97" cy="38.32" r="0.9"/>
          <circle cx="44.22" cy="48.62" r="0.9"/>
          <circle cx="79.67" cy="31.73" r="0.9"/>
          <circle cx="69.1" cy="28.76" r="0.9"/>
          <circle cx="96.23" cy="27.98" r="0.9"/>
          <circle cx="91.17" cy="25.29" r="0.9"/>
          <circle cx="69.3" cy="38.31" r="0.9"/>
          <circle cx="79.13" cy="29.15" r="0.9"/>
          <circle cx="86.19" cy="22.3" r="0.9"/>
          <circle cx="77.27" cy="26.38" r="0.9"/>
          <circle cx="77.44" cy="31.72" r="0.9"/>
          <circle cx="82.5" cy="26.69" r="0.9"/>
          <circle cx="63.61" cy="40.03" r="0.9"/>
          <circle cx="87.9" cy="26.8" r="0.9"/>
          <circle cx="78.9" cy="35.87" r="0.9"/>
          <circle cx="74.15" cy="36.53" r="0.9"/>
          <circle cx="75.77" cy="29.24" r="0.9"/>
          <circle cx="74.8" cy="33.6" r="0.9"/>
          <circle cx="65.63" cy="39.58" r="0.9"/>
          <circle cx="72.9" cy="29.61" r="0.9"/>
          <circle cx="78.92" cy="35.62" r="0.9"/>
          <circle cx="81.73" cy="33.94" r="0.9"/>
          <circle cx="61.15" cy="35.5" r="0.9"/>
          <circle cx="77.07" cy="32.62" r="0.9"/>
          <circle cx="84.84" cy="30.57" r="0.9"/>
          <circle cx="69.65" cy="36.08" r="0.9"/>
          <circle cx="70.18" cy="38.97" r="0.9"/>
          <circle cx="80.86" cy="32.72" r="0.9"/>
          <circle cx="90.57" cy="30.28" r="0.9"/>
          <circle cx="87.46" cy="29.75" r="0.9"/>
          <circle cx="80.78" cy="28.43" r="0.9"/>
          <circle cx="84.13" cy="34.27" r="0.9"/>
          <circle cx="78.36" cy="37.15" r="0.9"/>
          <circle cx="65.83" cy="40.44" r="0.9"/>
          <circle cx="74.72" cy="33.36" r="0.9"/>
          <circle cx="73.17" cy="37.5" r="0.9"/>
          <circle cx="85.47" cy="27.49" r="0.9"/>
          <circle cx="65.68" cy="35.57" r="0.9"/>
          <circle cx="91.14" cy="27.91" r="0.9"/>
          <circle cx="62.24" cy="36.14" r="0.9"/>
          <circle cx="69.37" cy="36.35" r="0.9"/>
          <circle cx="58.49" cy="49.68" r="0.9"/>
          <circle cx="66.05" cy="32.4" r="0.9"/>
          <circle cx="69.48" cy="38.93" r="0.9"/>
          <circle cx="71.2" cy="31.92" r="0.9"/>
          <circle cx="76.23" cy="33.48" r="0.9"/>
          <circle cx="65.42" cy="38.25" r="0.9"/>
          <circle cx="84.91" cy="27.9" r="0.9"/>
          <circle cx="69.9" cy="26.12" r="0.9"/>
          <circle cx="76.17" cy="24.01" r="0.9"/>
          <circle cx="66.04" cy="34.46" r="0.9"/>
          <circle cx="96.36" cy="37.42" r="0.9"/>
          <circle cx="86.33" cy="25.2" r="0.9"/>
          <circle cx="85.9" cy="26.36" r="0.9"/>
          <circle cx="78.66" cy="31.2" r="0.9"/>
          <circle cx="70.44" cy="36.98" r="0.9"/>
          <circle cx="73.62" cy="32.5" r="0.9"/>
          <circle cx="57.35" cy="36.87" r="0.9"/>
          <circle cx="75.49" cy="24.88" r="0.9"/>
          <circle cx="83.5" cy="31.08" r="0.9"/>
          <circle cx="81.82" cy="28.86" r="0.9"/>
          <circle cx="40.92" cy="50.59" r="0.9"/>
          <circle cx="68.25" cy="33.06" r="0.9"/>
          <circle cx="70.77" cy="36.14" r="0.9"/>
          <circle cx="89.82" cy="21.66" r="0.9"/>
          <circle cx="63.74" cy="30.46" r="0.9"/>
          <circle cx="81.6" cy="29.44" r="0.9"/>
          <circle cx="73.65" cy="26.3" r="0.9"/>
          <circle cx="62.41" cy="29.05" r="0.9"/>
          <circle cx="62.59" cy="45.92" r="0.9"/>
          <circle cx="69.52" cy="35.63" r="0.9"/>
          <circle cx="86.76" cy="30.21" r="0.9"/>
          <circle cx="60.65" cy="44.95" r="0.9"/>
          <circle cx="83.16" cy="30.25" r="0.9"/>
          <circle cx="89.55" cy="28.67" r="0.9"/>
          <circle cx="90.09" cy="20.9" r="0.9"/>
          <circle cx="74.13" cy="40.5" r="0.9"/>
          <circle cx="83.4" cy="31.27" r="0.9"/>
          <circle cx="86.51" cy="29.66" r="0.9"/>
          <circle cx="83.2" cy="33.93" r="0.9"/>
          <circle cx="63.65" cy="35.44" r="0.9"/>
          <circle cx="77.48" cy="29.9" r="0.9"/>
          <circle cx="66.11" cy="41.36" r="0.9"/>
          <circle cx="60.35" cy="44.96" r="0.9"/>
          <circle cx="76.17" cy="43.14" r="0.9"/>
          <circle cx="79.8" cy="34.49" r="0.9"/>
          <circle cx="66.35" cy="40.68" r="0.9"/>
          <circle cx="76.37" cy="36.44" r="0.9"/>
          <circle cx="64.99" cy="35.87" r="0.9"/>
          <circle cx="69.95" cy="40.33" r="0.9"/>
          <circle cx="83.9" cy="26.15" r="0.9"/>
          <circle cx="63.16" cy="36.53" r="0.9"/>
          <circle cx="67.97" cy="32.06" r="0.9"/>
          <circle cx="75.67" cy="33.9" r="0.9"/>
          <circle cx="86.84" cy="22.3" r="0.9"/>
          <circle cx="83.18" cy="22.55" r="0.9"/>
          <circle cx="79.94" cy="26.09" r="0.9"/>
          <circle cx="73.68" cy="38.42" r="0.9"/>
          <circle cx="84.06" cy="34.64" r="0.9"/>
          <circle cx="80.3" cy="34.44" r="0.9"/>
          <circle cx="84.56" cy="43.54" r="0.9"/>
          <circle cx="69.34" cy="37.07" r="0.9"/>
          <circle cx="78.18" cy="32.08" r="0.9"/>
          <circle cx="72.8" cy="28.84" r="0.9"/>
          <circle cx="65.6" cy="39.12" r="0.9"/>
          <circle cx="71.66" cy="38.06" r="0.9"/>
          <circle cx="83.65" cy="30.14" r="0.9"/>
          <circle cx="74.41" cy="33.36" r="0.9"/>
          <circle cx="81.3" cy="34.42" r="0.9"/>
          <circle cx="70.96" cy="30.37" r="0.9"/>
          <circle cx="68.77" cy="40.66" r="0.9"/>
          <circle cx="73.51" cy="39.06" r="0.9"/>
          <circle cx="68.82" cy="45.54" r="0.9"/>
          <circle cx="85.8" cy="26" r="0.9"/>
          <circle cx="86.83" cy="26.45" r="0.9"/>
          <circle cx="72.77" cy="37.52" r="0.9"/>
          <circle cx="80.25" cy="35.38" r="0.9"/>
          <circle cx="67.5" cy="35.92" r="0.9"/>
          <circle cx="59.25" cy="44.81" r="0.9"/>
          <circle cx="63.8" cy="35.18" r="0.9"/>
          <circle cx="66.12" cy="32.72" r="0.9"/>
          <circle cx="79.78" cy="28.86" r="0.9"/>
          <circle cx="80.38" cy="25.24" r="0.9"/>
          <circle cx="71.47" cy="32.67" r="0.9"/>
          <circle cx="69.87" cy="39.94" r="0.9"/>
          <circle cx="70.53" cy="39.5" r="0.9"/>
          <circle cx="92.19" cy="22.75" r="0.9"/>
          <circle cx="87.56" cy="25.32" r="0.9"/>
          <circle cx="102.97" cy="28.5" r="0.9"/>
          <circle cx="81.61" cy="45.47" r="0.9"/>
          <circle cx="84.37" cy="28.92" r="0.9"/>
          <circle cx="93.1" cy="30.6" r="0.9"/>
          <circle cx="93.44" cy="31.31" r="0.9"/>
          <circle cx="82.5" cy="27.46" r="0.9"/>
          <circle cx="82.21" cy="27.21" r="0.9"/>
          <circle cx="85.75" cy="25.11" r="0.9"/>
          <circle cx="65.6" cy="40.33" r="0.9"/>
          <circle cx="77.15" cy="27.61" r="0.9"/>
          <circle cx="85.75" cy="26.69" r="0.9"/>
          <circle cx="86.75" cy="29.56" r="0.9"/>
          <circle cx="80.01" cy="27.41" r="0.9"/>
          <circle cx="68.98" cy="37.36" r="0.9"/>
          <circle cx="70.03" cy="30.97" r="0.9"/>
          <circle cx="61.63" cy="34.88" r="0.9"/>
          <circle cx="76.44" cy="29.46" r="0.9"/>
          <circle cx="71.7" cy="31.04" r="0.9"/>
          <circle cx="70.67" cy="37.37" r="0.9"/>
          <circle cx="72.77" cy="34.09" r="0.9"/>
          <circle cx="68.56" cy="40.38" r="0.9"/>
          <circle cx="81.05" cy="31.29" r="0.9"/>
          <circle cx="77.08" cy="31.13" r="0.9"/>
          <circle cx="54.28" cy="36.89" r="0.9"/>
          <circle cx="67.34" cy="34.71" r="0.9"/>
          <circle cx="68.9" cy="33.47" r="0.9"/>
          <circle cx="81.25" cy="31.16" r="0.9"/>
          <circle cx="81.73" cy="29.98" r="0.9"/>
          <circle cx="67.7" cy="38.44" r="0.9"/>
          <circle cx="93.15" cy="24.19" r="0.9"/>
          <circle cx="76.78" cy="41.45" r="0.9"/>
          <circle cx="92.08" cy="19.6" r="0.9"/>
          <circle cx="74.37" cy="34.06" r="0.9"/>
          <circle cx="62.95" cy="40.17" r="0.9"/>
          <circle cx="72.61" cy="33.5" r="0.9"/>
          <circle cx="75.19" cy="31.25" r="0.9"/>
          <circle cx="70.17" cy="38.83" r="0.9"/>
          <circle cx="70.77" cy="33.16" r="0.9"/>
          <circle cx="64.84" cy="39.51" r="0.9"/>
          <circle cx="66.94" cy="32.58" r="0.9"/>
          <circle cx="74.78" cy="25.57" r="0.9"/>
          <circle cx="64.71" cy="37.02" r="0.9"/>
          <circle cx="54.55" cy="44.06" r="0.9"/>
          <circle cx="72.67" cy="34.48" r="0.9"/>
          <circle cx="61.53" cy="38.07" r="0.9"/>
          <circle cx="67.4" cy="36.46" r="0.9"/>
          <circle cx="85.28" cy="24.45" r="0.9"/>
          <circle cx="67.3" cy="39.89" r="0.9"/>
          <circle cx="73.56" cy="35.04" r="0.9"/>
          <circle cx="88.02" cy="32.03" r="0.9"/>
          <circle cx="71.72" cy="40.12" r="0.9"/>
          <circle cx="68.34" cy="36.29" r="0.9"/>
          <circle cx="63.23" cy="41.2" r="0.9"/>
          <circle cx="75.85" cy="34.64" r="0.9"/>
          <circle cx="69.5" cy="39.24" r="0.9"/>
          <circle cx="68.55" cy="34.83" r="0.9"/>
          <circle cx="51.11" cy="49.83" r="0.9"/>
          <circle cx="84.76" cy="27.84" r="0.9"/>
          <circle cx="71.78" cy="35.52" r="0.9"/>
          <circle cx="71.9" cy="40.61" r="0.9"/>
          <circle cx="63.92" cy="38.95" r="0.9"/>
          <circle cx="76.94" cy="31.98" r="0.9"/>
          <circle cx="71.36" cy="37.32" r="0.9"/>
          <circle cx="70.5" cy="33.23" r="0.9"/>
          <circle cx="78.68" cy="32.93" r="0.9"/>
          <circle cx="88.81" cy="27.99" r="0.9"/>
          <circle cx="80.35" cy="32.15" r="0.9"/>
          <circle cx="74.78" cy="27.61" r="0.9"/>
          <circle cx="68.19" cy="40.38" r="0.9"/>
          <circle cx="65.71" cy="32.57" r="0.9"/>
          <circle cx="56.9" cy="41.35" r="0.9"/>
          <circle cx="84.24" cy="27.15" r="0.9"/>
          <circle cx="60.22" cy="43.34" r="0.9"/>
          <circle cx="60.47" cy="29.28" r="0.9"/>
          <circle cx="67.82" cy="29.1" r="0.9"/>
          <circle cx="59.63" cy="37.16" r="0.9"/>
          <circle cx="80.12" cy="24.7" r="0.9"/>
          <circle cx="66.96" cy="26.42" r="0.9"/>
          <circle cx="63.53" cy="29.8" r="0.9"/>
          <circle cx="85.74" cy="21.66" r="0.9"/>
          <circle cx="65.1" cy="38.99" r="0.9"/>
          <circle cx="63.19" cy="31.95" r="0.9"/>
          <circle cx="61.33" cy="30.48" r="0.9"/>
          <circle cx="74.01" cy="37.39" r="0.9"/>
          <circle cx="69.78" cy="28.65" r="0.9"/>
          <circle cx="58.57" cy="31.05" r="0.9"/>
          <circle cx="64.91" cy="33.01" r="0.9"/>
          <circle cx="63.75" cy="45.93" r="0.9"/>
          <circle cx="60.01" cy="40.73" r="0.9"/>
          <circle cx="57.49" cy="39.02" r="0.9"/>
          <circle cx="63.77" cy="35.52" r="0.9"/>
          <circle cx="79.9" cy="30.24" r="0.9"/>
          <circle cx="65.87" cy="27.14" r="0.9"/>
          <circle cx="52.06" cy="39.52" r="0.9"/>
          <circle cx="60.44" cy="40.86" r="0.9"/>
          <circle cx="57.49" cy="36.8" r="0.9"/>
          <circle cx="59.17" cy="43.65" r="0.9"/>
          <circle cx="63.87" cy="26.62" r="0.9"/>
          <circle cx="82.82" cy="24.54" r="0.9"/>
          <circle cx="76.76" cy="35.8" r="0.9"/>
          <circle cx="91.54" cy="19.8" r="0.9"/>
          <circle cx="80.75" cy="33.51" r="0.9"/>
          <circle cx="67.64" cy="37.47" r="0.9"/>
          <circle cx="88.14" cy="24.51" r="0.9"/>
          <circle cx="75.46" cy="29.33" r="0.9"/>
          <circle cx="77.89" cy="29.45" r="0.9"/>
          <circle cx="61.15" cy="31.27" r="0.9"/>
          <circle cx="68.19" cy="34.15" r="0.9"/>
          <circle cx="56.84" cy="42.63" r="0.9"/>
          <circle cx="64.02" cy="41.49" r="0.9"/>
          <circle cx="75.59" cy="34.29" r="0.9"/>
          <circle cx="72.1" cy="33.96" r="0.9"/>
          <circle cx="67.39" cy="36.24" r="0.9"/>
          <circle cx="68.43" cy="35.83" r="0.9"/>
          <circle cx="73.81" cy="37.87" r="0.9"/>
          <circle cx="80.18" cy="30.72" r="0.9"/>
          <circle cx="70.06" cy="41.47" r="0.9"/>
          <circle cx="60.92" cy="43.02" r="0.9"/>
          <circle cx="85.07" cy="37.65" r="0.9"/>
          <circle cx="80.34" cy="39.1" r="0.9"/>
          <circle cx="82.47" cy="31.2" r="0.9"/>
          <circle cx="74.92" cy="39.16" r="0.9"/>
          <circle cx="79.46" cy="31.94" r="0.9"/>
          <circle cx="58.11" cy="50.05" r="0.9"/>
          <circle cx="97.42" cy="29.15" r="0.9"/>
          <circle cx="52.9" cy="46.99" r="0.9"/>
          <circle cx="63.15" cy="40.41" r="0.9"/>
          <circle cx="60.4" cy="40.97" r="0.9"/>
          <circle cx="53.89" cy="51.03" r="0.9"/>
          <circle cx="69.37" cy="35.15" r="0.9"/>
          <circle cx="59.43" cy="43.14" r="0.9"/>
          <circle cx="80.63" cy="33.67" r="0.9"/>
          <circle cx="76.11" cy="32.88" r="0.9"/>
          <circle cx="70.07" cy="37.12" r="0.9"/>
          <circle cx="81.43" cy="36.5" r="0.9"/>
          <circle cx="85.8" cy="34.79" r="0.9"/>
          <circle cx="84.65" cy="34.31" r="0.9"/>
          <circle cx="77.31" cy="34.59" r="0.9"/>
          <circle cx="68.78" cy="40.83" r="0.9"/>
          <circle cx="85.41" cy="31.81" r="0.9"/>
          <circle cx="60.28" cy="39.7" r="0.9"/>
          <circle cx="75.02" cy="34.6" r="0.9"/>
          <circle cx="58.4" cy="42.85" r="0.9"/>
          <circle cx="84.22" cy="28.08" r="0.9"/>
          <circle cx="58.51" cy="41.78" r="0.9"/>
          <circle cx="86.34" cy="27.1" r="0.9"/>
          <circle cx="58.45" cy="39.57" r="0.9"/>
          <circle cx="63.78" cy="33.83" r="0.9"/>
          <circle cx="66.18" cy="37.4" r="0.9"/>
          <circle cx="77.83" cy="40.09" r="0.9"/>
          <circle cx="67.1" cy="39.22" r="0.9"/>
          <circle cx="64.45" cy="37.54" r="0.9"/>
          <circle cx="64.88" cy="37.41" r="0.9"/>
          <circle cx="62.34" cy="39.61" r="0.9"/>
          <circle cx="80.62" cy="28.18" r="0.9"/>
          <circle cx="54.86" cy="42.71" r="0.9"/>
          <circle cx="78.96" cy="34.76" r="0.9"/>
          <circle cx="75.31" cy="31.3" r="0.9"/>
          <circle cx="89" cy="30.12" r="0.9"/>
          <circle cx="67.65" cy="45.48" r="0.9"/>
          <circle cx="69.86" cy="34.31" r="0.9"/>
          <circle cx="91.17" cy="36.71" r="0.9"/>
          <circle cx="84.31" cy="27.44" r="0.9"/>
          <circle cx="68.22" cy="45.38" r="0.9"/>
          <circle cx="66.4" cy="33.05" r="0.9"/>
          <circle cx="84.84" cy="29.69" r="0.9"/>
          <circle cx="87.4" cy="25.28" r="0.9"/>
          <circle cx="83.98" cy="33" r="0.9"/>
          <circle cx="72.57" cy="38.97" r="0.9"/>
          <circle cx="83.52" cy="35.69" r="0.9"/>
          <circle cx="82.87" cy="30.25" r="0.9"/>
          <circle cx="90.83" cy="25.35" r="0.9"/>
          <circle cx="81.31" cy="34.07" r="0.9"/>
          <circle cx="86.57" cy="26.41" r="0.9"/>
          <circle cx="74.78" cy="40.46" r="0.9"/>
        </g>
      </g>
      <g stroke-width="0.3" fill="#000000" fill-opacity="0.000" class="geometry" stroke-dasharray="none" stroke="#008000" id="fig-7bcdc48aba5247bc85298794dc10164e-element-16">
        <path fill="none" d="M26.62,66.08 L 32.85 58.94 35.24 56.5 35.43 56.31 39.23 52.79 39.56 52.51 39.57 52.5 39.87 52.24 39.91 52.2 40.01 52.12 40.87 51.4 40.92 51.36 41.26 51.08 41.38 50.98 42.08 50.42 42.52 50.07 43.6 49.24 43.68 49.18 44.07 48.88 44.22 48.77 44.31 48.71 44.88 48.28 45.39 47.92 45.49 47.85 45.52 47.83 46.54 47.11 46.68 47.01 46.77 46.95 46.8 46.93 46.86 46.89 47.32 46.58 47.76 46.29 47.76 46.29 47.87 46.21 48.36 45.89 48.72 45.66 48.85 45.58 49.01 45.47 49.57 45.13 49.8 44.98 49.89 44.93 50.22 44.72 50.65 44.46 50.68 44.45 50.7 44.43 51.11 44.19 51.3 44.07 51.57 43.91 51.83 43.76 52.04 43.64 52.06 43.63 52.16 43.57 52.22 43.54 52.43 43.42 52.48 43.39 52.5 43.38 52.75 43.24 52.85 43.18 52.9 43.15 52.9 43.15 52.96 43.12 53.04 43.07 53.05 43.07 53.12 43.02 53.24 42.96 53.24 42.96 53.41 42.87 53.47 42.83 53.48 42.83 53.49 42.82 53.55 42.79 53.65 42.73 53.81 42.64 53.87 42.61 53.89 42.6 53.89 42.6 54.28 42.39 54.31 42.37 54.32 42.37 54.34 42.36 54.45 42.3 54.45 42.3 54.55 42.24 54.57 42.23 54.6 42.21 54.73 42.15 54.82 42.1 54.86 42.08 54.94 42.04 55.04 41.98 55.15 41.92 55.31 41.84 55.33 41.83 55.45 41.77 55.46 41.76 55.59 41.69 55.6 41.69 55.62 41.68 55.72 41.63 55.75 41.61 55.85 41.56 55.89 41.54 55.91 41.53 55.93 41.52 55.95 41.5 55.98 41.49 56.03 41.47 56.05 41.46 56.05 41.45 56.08 41.44 56.08 41.44 56.21 41.37 56.3 41.33 56.34 41.31 56.35 41.3 56.58 41.18 56.6 41.18 56.69 41.13 56.72 41.12 56.76 41.09 56.84 41.05 56.87 41.04 56.9 41.02 56.96 40.99 57.03 40.96 57.23 40.86 57.26 40.84 57.3 40.82 57.3 40.82 57.33 40.81 57.34 40.8 57.35 40.8 57.36 40.79 57.49 40.73 57.49 40.73 57.54 40.71 57.55 40.7 57.56 40.69 57.65 40.65 57.68 40.64 57.72 40.62 57.75 40.6 57.79 40.58 57.82 40.56 57.9 40.52 57.93 40.51 57.94 40.51 57.97 40.49 58.11 40.42 58.11 40.42 58.24 40.36 58.36 40.3 58.4 40.28 58.41 40.28 58.45 40.26 58.48 40.24 58.48 40.24 58.49 40.24 58.5 40.23 58.51 40.23 58.51 40.23 58.57 40.2 58.58 40.19 58.59 40.19 58.66 40.15 58.7 40.14 58.74 40.12 58.75 40.11 58.89 40.05 58.89 40.05 58.89 40.04 58.94 40.02 59.04 39.97 59.16 39.91 59.17 39.91 59.25 39.87 59.42 39.79 59.43 39.79 59.43 39.79 59.44 39.78 59.63 39.69 59.67 39.67 59.7 39.66 59.75 39.64 59.76 39.63 59.78 39.62 59.95 39.54 60.01 39.52 60.01 39.51 60.07 39.49 60.08 39.48 60.16 39.44 60.18 39.44 60.22 39.42 60.23 39.41 60.28 39.39 60.3 39.38 60.3 39.38 60.35 39.36 60.4 39.33 60.44 39.32 60.45 39.31 60.47 39.3 60.54 39.27 60.59 39.25 60.59 39.24 60.64 39.22 60.65 39.22 60.68 39.2 60.76 39.16 60.77 39.16 60.78 39.16 60.87 39.12 60.92 39.1 61.08 39.02 61.11 39.01 61.14 38.99 61.15 38.99 61.15 38.99 61.17 38.98 61.21 38.96 61.22 38.95 61.28 38.93 61.33 38.9 61.37 38.89 61.38 38.88 61.48 38.84 61.52 38.82 61.52 38.82 61.53 38.81 61.54 38.81 61.63 38.77 61.68 38.75 61.71 38.73 61.73 38.72 61.79 38.7 62.01 38.6 62.1 38.56 62.16 38.53 62.18 38.52 62.2 38.51 62.23 38.5 62.24 38.49 62.33 38.46 62.34 38.45 62.38 38.43 62.41 38.42 62.45 38.4 62.51 38.38 62.57 38.35 62.59 38.34 62.62 38.33 62.72 38.28 62.73 38.28 62.76 38.26 62.78 38.25 62.83 38.23 62.87 38.22 62.88 38.21 62.93 38.19 62.94 38.18 62.94 38.18 62.95 38.18 62.95 38.18 62.98 38.17 63.06 38.13 63.07 38.13 63.07 38.13 63.08 38.12 63.12 38.1 63.13 38.1 63.15 38.09 63.16 38.09 63.19 38.07 63.23 38.06 63.25 38.05 63.26 38.04 63.3 38.03 63.35 38 63.52 37.93 63.53 37.93 63.57 37.91 63.6 37.89 63.61 37.89 63.65 37.87 63.66 37.87 63.68 37.86 63.69 37.85 63.74 37.83 63.75 37.83 63.77 37.82 63.78 37.81 63.78 37.81 63.8 37.81 63.82 37.8 63.87 37.78 63.87 37.78 63.91 37.76 63.92 37.75 63.96 37.74 64 37.72 64.02 37.71 64.06 37.69 64.07 37.69 64.16 37.65 64.17 37.65 64.17 37.64 64.2 37.63 64.21 37.63 64.28 37.6 64.28 37.6 64.33 37.58 64.44 37.53 64.45 37.53 64.45 37.52 64.56 37.48 64.61 37.46 64.68 37.43 64.69 37.42 64.7 37.42 64.71 37.41 64.84 37.36 64.86 37.35 64.86 37.35 64.88 37.34 64.88 37.34 64.9 37.33 64.91 37.33 64.94 37.31 64.97 37.3 64.97 37.3 64.99 37.29 65 37.29 65.08 37.26 65.09 37.25 65.1 37.25 65.1 37.24 65.12 37.24 65.14 37.23 65.15 37.22 65.16 37.22 65.17 37.22 65.18 37.21 65.26 37.18 65.26 37.18 65.27 37.17 65.39 37.12 65.4 37.12 65.42 37.11 65.46 37.09 65.49 37.08 65.53 37.06 65.56 37.05 65.6 37.03 65.6 37.03 65.6 37.03 65.6 37.03 65.6 37.03 65.63 37.02 65.64 37.02 65.66 37.01 65.68 37 65.68 37 65.71 36.98 65.72 36.98 65.83 36.94 65.87 36.92 65.89 36.91 65.89 36.91 65.93 36.89 66.03 36.85 66.04 36.85 66.04 36.85 66.04 36.84 66.05 36.84 66.06 36.83 66.11 36.82 66.12 36.81 66.18 36.79 66.21 36.78 66.27 36.75 66.28 36.74 66.33 36.72 66.35 36.71 66.37 36.71 66.37 36.71 66.4 36.69 66.43 36.68 66.44 36.67 66.47 36.66 66.51 36.65 66.53 36.64 66.63 36.6 66.64 36.59 66.65 36.59 66.65 36.59 66.71 36.56 66.78 36.53 66.86 36.5 66.88 36.49 66.89 36.49 66.94 36.46 66.96 36.46 67 36.44 67.01 36.44 67.01 36.44 67.05 36.42 67.1 36.4 67.1 36.4 67.13 36.39 67.19 36.36 67.25 36.34 67.25 36.34 67.29 36.32 67.3 36.32 67.3 36.32 67.34 36.3 67.39 36.28 67.39 36.28 67.4 36.28 67.4 36.27 67.43 36.26 67.5 36.23 67.51 36.23 67.61 36.18 67.63 36.18 67.64 36.17 67.64 36.17 67.65 36.17 67.67 36.16 67.69 36.15 67.7 36.15 67.72 36.14 67.73 36.14 67.77 36.12 67.82 36.1 67.82 36.1 67.83 36.1 67.83 36.09 67.85 36.09 67.86 36.08 67.94 36.05 67.95 36.05 67.97 36.04 68.07 35.99 68.08 35.99 68.1 35.98 68.15 35.96 68.18 35.95 68.19 35.95 68.19 35.94 68.22 35.93 68.22 35.93 68.23 35.93 68.25 35.92 68.29 35.9 68.3 35.9 68.31 35.9 68.32 35.89 68.32 35.89 68.34 35.89 68.36 35.88 68.4 35.86 68.4 35.86 68.4 35.86 68.43 35.85 68.43 35.85 68.47 35.83 68.55 35.8 68.55 35.8 68.56 35.79 68.6 35.78 68.6 35.77 68.61 35.77 68.65 35.76 68.65 35.76 68.66 35.75 68.66 35.75 68.7 35.73 68.72 35.73 68.76 35.71 68.77 35.71 68.78 35.7 68.78 35.7 68.78 35.7 68.79 35.7 68.82 35.69 68.82 35.69 68.85 35.67 68.86 35.67 68.89 35.66 68.9 35.65 68.9 35.65 68.9 35.65 68.92 35.65 68.98 35.62 69.02 35.6 69.03 35.6 69.05 35.59 69.07 35.58 69.07 35.58 69.1 35.57 69.12 35.56 69.21 35.53 69.24 35.51 69.25 35.51 69.3 35.49 69.32 35.48 69.33 35.48 69.34 35.47 69.34 35.47 69.37 35.46 69.37 35.46 69.42 35.44 69.46 35.42 69.46 35.42 69.46 35.42 69.48 35.41 69.5 35.41 69.52 35.4 69.55 35.39 69.55 35.38 69.57 35.38 69.59 35.37 69.63 35.35 69.64 35.35 69.65 35.34 69.69 35.33 69.69 35.33 69.78 35.29 69.83 35.27 69.86 35.26 69.87 35.25 69.89 35.25 69.9 35.24 69.93 35.23 69.95 35.22 69.99 35.21 69.99 35.21 70.03 35.19 70.06 35.18 70.07 35.17 70.08 35.17 70.09 35.16 70.14 35.15 70.16 35.14 70.16 35.13 70.17 35.13 70.18 35.13 70.26 35.09 70.36 35.05 70.37 35.05 70.4 35.04 70.43 35.02 70.44 35.02 70.46 35.01 70.47 35.01 70.5 34.99 70.51 34.99 70.51 34.99 70.53 34.98 70.62 34.95 70.67 34.93 70.69 34.92 70.74 34.9 70.74 34.9 70.74 34.9 70.77 34.89 70.77 34.89 70.77 34.88 70.78 34.88 70.8 34.87 70.83 34.86 70.85 34.85 70.85 34.85 70.86 34.85 70.86 34.85 70.91 34.83 70.96 34.81 70.98 34.8 71 34.79 71.01 34.79 71.07 34.77 71.08 34.76 71.08 34.76 71.12 34.74 71.14 34.73 71.15 34.73 71.18 34.72 71.19 34.72 71.2 34.71 71.2 34.71 71.22 34.7 71.3 34.67 71.31 34.67 71.33 34.66 71.36 34.65 71.36 34.65 71.36 34.64 71.41 34.63 71.44 34.61 71.47 34.6 71.51 34.59 71.53 34.58 71.55 34.57 71.55 34.57 71.57 34.56 71.59 34.55 71.59 34.55 71.6 34.55 71.61 34.54 71.63 34.54 71.66 34.53 71.66 34.52 71.68 34.52 71.7 34.51 71.72 34.5 71.73 34.5 71.75 34.49 71.75 34.49 71.78 34.47 71.81 34.46 71.84 34.45 71.87 34.44 71.89 34.43 71.9 34.43 71.93 34.41 71.97 34.4 71.98 34.39 72.03 34.37 72.1 34.35 72.1 34.35 72.12 34.34 72.14 34.33 72.18 34.31 72.2 34.3 72.21 34.3 72.26 34.28 72.34 34.25 72.36 34.24 72.37 34.24 72.37 34.23 72.44 34.21 72.47 34.19 72.48 34.19 72.49 34.19 72.51 34.18 72.54 34.17 72.56 34.16 72.57 34.15 72.6 34.14 72.61 34.14 72.62 34.14 72.63 34.13 72.65 34.12 72.67 34.11 72.69 34.11 72.69 34.1 72.72 34.09 72.74 34.09 72.77 34.08 72.77 34.07 72.77 34.07 72.8 34.06 72.81 34.06 72.82 34.05 72.87 34.03 72.88 34.03 72.89 34.03 72.89 34.02 72.89 34.02 72.9 34.02 72.93 34.01 72.95 34 72.97 33.99 73.06 33.95 73.11 33.93 73.12 33.93 73.12 33.93 73.12 33.93 73.16 33.92 73.16 33.92 73.17 33.91 73.18 33.91 73.18 33.91 73.18 33.91 73.3 33.86 73.31 33.85 73.32 33.85 73.46 33.79 73.46 33.79 73.48 33.79 73.49 33.78 73.51 33.77 73.56 33.75 73.62 33.73 73.62 33.73 73.65 33.71 73.68 33.71 73.68 33.7 73.77 33.67 73.77 33.67 73.81 33.65 73.82 33.65 73.86 33.63 73.87 33.63 73.87 33.63 73.89 33.62 73.9 33.62 73.94 33.6 73.97 33.59 73.99 33.58 73.99 33.58 73.99 33.58 74 33.58 74.01 33.57 74.04 33.56 74.04 33.56 74.07 33.55 74.07 33.55 74.08 33.54 74.09 33.54 74.13 33.52 74.13 33.52 74.14 33.52 74.15 33.52 74.15 33.51 74.19 33.5 74.2 33.49 74.3 33.45 74.33 33.44 74.36 33.43 74.37 33.42 74.39 33.42 74.41 33.41 74.44 33.4 74.48 33.38 74.5 33.37 74.5 33.37 74.52 33.37 74.53 33.36 74.63 33.32 74.72 33.28 74.76 33.27 74.76 33.27 74.78 33.26 74.78 33.26 74.78 33.26 74.79 33.26 74.8 33.25 74.82 33.24 74.84 33.23 74.86 33.23 74.86 33.23 74.92 33.2 74.92 33.2 74.92 33.2 74.92 33.2 74.97 33.18 74.97 33.18 75.01 33.17 75.02 33.16 75.02 33.16 75.03 33.16 75.1 33.13 75.15 33.11 75.19 33.09 75.24 33.07 75.25 33.07 75.25 33.07 75.25 33.07 75.28 33.06 75.28 33.06 75.29 33.05 75.3 33.05 75.31 33.04 75.31 33.04 75.31 33.04 75.35 33.03 75.36 33.03 75.36 33.02 75.4 33.01 75.46 32.98 75.49 32.97 75.51 32.96 75.54 32.95 75.58 32.93 75.59 32.93 75.61 32.92 75.63 32.92 75.64 32.91 75.66 32.9 75.67 32.9 75.68 32.89 75.71 32.88 75.72 32.88 75.77 32.86 75.79 32.85 75.82 32.84 75.82 32.84 75.83 32.83 75.84 32.83 75.85 32.83 75.88 32.81 75.9 32.81 75.92 32.8 75.95 32.79 75.97 32.78 75.98 32.77 76.01 32.76 76.05 32.75 76.1 32.72 76.11 32.72 76.16 32.7 76.17 32.7 76.17 32.69 76.19 32.69 76.21 32.68 76.22 32.67 76.23 32.67 76.23 32.67 76.26 32.66 76.27 32.66 76.28 32.65 76.32 32.63 76.33 32.63 76.34 32.63 76.37 32.61 76.44 32.59 76.47 32.58 76.47 32.57 76.47 32.57 76.48 32.57 76.54 32.55 76.55 32.54 76.57 32.53 76.58 32.53 76.59 32.53 76.66 32.5 76.71 32.48 76.76 32.46 76.76 32.46 76.78 32.45 76.78 32.45 76.78 32.45 76.8 32.44 76.81 32.44 76.89 32.4 76.91 32.4 76.91 32.4 76.91 32.39 76.92 32.39 76.94 32.38 76.95 32.38 76.96 32.37 77.01 32.36 77.06 32.33 77.07 32.33 77.08 32.33 77.08 32.33 77.1 32.32 77.15 32.3 77.15 32.3 77.15 32.3 77.15 32.3 77.18 32.28 77.2 32.28 77.21 32.27 77.27 32.25 77.27 32.25 77.3 32.24 77.31 32.23 77.33 32.22 77.35 32.22 77.35 32.22 77.39 32.2 77.44 32.18 77.48 32.16 77.5 32.16 77.51 32.15 77.55 32.14 77.55 32.14 77.56 32.13 77.56 32.13 77.61 32.11 77.82 32.03 77.82 32.03 77.83 32.02 77.89 32 77.9 32 77.9 31.99 77.97 31.96 77.98 31.96 78.01 31.95 78.02 31.95 78.04 31.94 78.05 31.93 78.06 31.93 78.12 31.9 78.18 31.88 78.2 31.87 78.25 31.85 78.25 31.85 78.32 31.82 78.32 31.82 78.36 31.81 78.36 31.81 78.4 31.79 78.41 31.79 78.41 31.79 78.44 31.78 78.46 31.77 78.49 31.76 78.52 31.74 78.57 31.72 78.58 31.72 78.6 31.71 78.65 31.69 78.65 31.69 78.65 31.69 78.66 31.69 78.68 31.68 78.68 31.68 78.78 31.64 78.8 31.63 78.84 31.61 78.87 31.6 78.9 31.59 78.92 31.58 78.92 31.58 78.93 31.58 78.96 31.56 78.96 31.56 79 31.55 79.05 31.53 79.08 31.52 79.09 31.51 79.1 31.51 79.13 31.5 79.13 31.49 79.14 31.49 79.22 31.46 79.27 31.44 79.29 31.43 79.36 31.4 79.37 31.4 79.39 31.39 79.39 31.39 79.4 31.38 79.41 31.38 79.42 31.38 79.46 31.36 79.46 31.36 79.46 31.36 79.49 31.35 79.53 31.33 79.53 31.33 79.54 31.33 79.55 31.32 79.55 31.32 79.56 31.32 79.58 31.31 79.58 31.31 79.64 31.29 79.67 31.27 79.68 31.27 79.73 31.25 79.76 31.24 79.77 31.23 79.78 31.23 79.8 31.22 79.9 31.18 79.9 31.18 79.93 31.17 79.94 31.16 79.94 31.16 79.98 31.15 79.98 31.15 80 31.14 80.01 31.14 80.12 31.09 80.12 31.09 80.18 31.07 80.18 31.07 80.18 31.07 80.2 31.06 80.25 31.04 80.27 31.03 80.3 31.02 80.32 31.01 80.34 31 80.35 31 80.38 30.99 80.44 30.96 80.46 30.95 80.54 30.92 80.58 30.9 80.58 30.9 80.58 30.9 80.62 30.89 80.63 30.88 80.75 30.83 80.75 30.83 80.76 30.83 80.77 30.83 80.78 30.82 80.86 30.79 80.88 30.78 80.89 30.78 80.91 30.77 80.92 30.76 80.92 30.76 80.93 30.76 80.94 30.76 80.94 30.76 80.97 30.74 80.99 30.74 81.01 30.73 81.01 30.73 81.05 30.71 81.06 30.71 81.08 30.7 81.12 30.68 81.23 30.64 81.25 30.63 81.27 30.62 81.3 30.61 81.3 30.61 81.31 30.6 81.32 30.6 81.35 30.59 81.35 30.59 81.36 30.59 81.37 30.58 81.41 30.56 81.43 30.56 81.47 30.54 81.47 30.54 81.55 30.51 81.58 30.49 81.6 30.49 81.61 30.48 81.62 30.48 81.73 30.43 81.73 30.43 81.75 30.42 81.76 30.42 81.79 30.41 81.82 30.4 81.91 30.36 81.91 30.36 81.91 30.36 81.93 30.35 81.96 30.34 82 30.32 82.02 30.32 82.02 30.31 82.03 30.31 82.06 30.3 82.11 30.28 82.13 30.27 82.21 30.24 82.26 30.22 82.3 30.2 82.34 30.19 82.38 30.17 82.42 30.15 82.47 30.13 82.49 30.12 82.5 30.12 82.5 30.12 82.54 30.1 82.57 30.09 82.6 30.08 82.6 30.08 82.62 30.07 82.62 30.07 82.67 30.05 82.73 30.03 82.74 30.02 82.75 30.01 82.82 29.99 82.83 29.98 82.84 29.98 82.84 29.98 82.85 29.98 82.87 29.97 82.9 29.96 83 29.92 83.07 29.89 83.12 29.86 83.14 29.86 83.16 29.85 83.16 29.85 83.18 29.84 83.19 29.84 83.2 29.83 83.29 29.79 83.31 29.79 83.34 29.77 83.36 29.77 83.36 29.76 83.37 29.76 83.4 29.75 83.41 29.75 83.43 29.74 83.49 29.71 83.5 29.71 83.52 29.7 83.56 29.68 83.61 29.66 83.64 29.65 83.65 29.65 83.73 29.61 83.73 29.61 83.75 29.61 83.83 29.57 83.83 29.57 83.87 29.56 83.9 29.55 83.92 29.54 83.97 29.52 83.98 29.51 84.03 29.49 84.06 29.48 84.06 29.48 84.09 29.47 84.13 29.45 84.13 29.45 84.22 29.41 84.22 29.41 84.24 29.41 84.27 29.39 84.28 29.39 84.29 29.39 84.31 29.38 84.37 29.35 84.37 29.35 84.38 29.35 84.44 29.32 84.47 29.31 84.51 29.3 84.54 29.29 84.55 29.28 84.56 29.28 84.58 29.27 84.62 29.25 84.65 29.24 84.68 29.23 84.74 29.2 84.76 29.19 84.77 29.19 84.77 29.19 84.82 29.17 84.84 29.16 84.84 29.16 84.9 29.14 84.91 29.13 84.91 29.13 84.95 29.12 84.95 29.11 84.97 29.11 85.07 29.07 85.15 29.04 85.2 29.02 85.2 29.01 85.22 29.01 85.27 28.99 85.28 28.98 85.28 28.98 85.33 28.96 85.33 28.96 85.34 28.96 85.41 28.93 85.44 28.92 85.47 28.9 85.49 28.9 85.49 28.89 85.51 28.89 85.61 28.85 85.68 28.82 85.73 28.8 85.74 28.79 85.75 28.79 85.75 28.79 85.8 28.77 85.8 28.77 85.8 28.77 85.9 28.73 85.94 28.71 85.98 28.69 86.02 28.68 86.03 28.68 86.06 28.66 86.09 28.65 86.18 28.61 86.19 28.61 86.2 28.61 86.28 28.57 86.33 28.55 86.34 28.55 86.37 28.54 86.51 28.48 86.51 28.48 86.57 28.46 86.58 28.45 86.65 28.42 86.66 28.42 86.71 28.4 86.72 28.39 86.74 28.39 86.75 28.38 86.76 28.38 86.81 28.36 86.83 28.35 86.83 28.35 86.84 28.35 86.96 28.3 86.97 28.29 86.97 28.29 87.18 28.21 87.25 28.18 87.29 28.16 87.4 28.12 87.4 28.12 87.4 28.12 87.46 28.09 87.56 28.05 87.56 28.05 87.66 28.01 87.69 28 87.74 27.98 87.79 27.96 87.83 27.94 87.84 27.94 87.9 27.92 88.02 27.87 88.04 27.86 88.05 27.85 88.06 27.85 88.07 27.85 88.14 27.82 88.14 27.82 88.16 27.81 88.23 27.78 88.26 27.77 88.4 27.71 88.41 27.71 88.42 27.71 88.49 27.68 88.58 27.64 88.67 27.61 88.69 27.6 88.8 27.55 88.81 27.55 88.81 27.55 88.81 27.55 88.99 27.48 88.99 27.48 89 27.48 89.04 27.46 89.09 27.44 89.14 27.42 89.18 27.4 89.38 27.32 89.55 27.26 89.55 27.26 89.56 27.25 89.59 27.24 89.62 27.23 89.66 27.21 89.69 27.2 89.78 27.17 89.79 27.16 89.79 27.16 89.8 27.15 89.82 27.15 89.9 27.12 89.92 27.11 90.08 27.04 90.09 27.04 90.09 27.04 90.12 27.03 90.26 26.97 90.47 26.89 90.57 26.85 90.57 26.85 90.61 26.84 90.65 26.82 90.7 26.8 90.8 26.76 90.83 26.75 90.84 26.75 90.97 26.7 91.06 26.66 91.14 26.63 91.17 26.62 91.17 26.62 91.29 26.57 91.32 26.56 91.47 26.5 91.54 26.47 91.68 26.42 91.84 26.36 92 26.3 92.07 26.27 92.08 26.27 92.13 26.25 92.19 26.23 92.32 26.18 92.43 26.13 93.1 25.88 93.15 25.86 93.15 25.86 93.42 25.76 93.44 25.75 93.44 25.75 93.53 25.72 93.57 25.71 93.82 25.61 94.01 25.54 94.05 25.53 94.21 25.47 94.3 25.44 94.33 25.43 94.51 25.36 94.93 25.21 95.17 25.13 95.35 25.06 95.47 25.02 95.57 24.98 95.72 24.93 95.94 24.86 95.98 24.84 96.16 24.78 96.19 24.77 96.23 24.76 96.23 24.76 96.25 24.75 96.36 24.72 96.4 24.7 97.42 24.37 97.64 24.3 97.78 24.25 97.95 24.2 98.02 24.18 98.08 24.16 98.49 24.03 98.65 23.99 98.88 23.92 99.09 23.86 100 23.6 100.17 23.56 100.26 23.53 101.19 23.3 102.19 23.07 102.97 22.91 106.5 22.44"/>
      </g>
    </g>
  </g>
  <g class="guide ylabels" font-size="2.82" font-family="'PT Sans Caption','Helvetica Neue','Helvetica',sans-serif" fill="#6C606B" id="fig-7bcdc48aba5247bc85298794dc10164e-element-17">
    <text x="16.96" y="78.71" text-anchor="end" dy="0.35em">5</text>
    <text x="16.96" y="68.03" text-anchor="end" dy="0.35em">6</text>
    <text x="16.96" y="57.35" text-anchor="end" dy="0.35em">7</text>
    <text x="16.96" y="46.66" text-anchor="end" dy="0.35em">8</text>
    <text x="16.96" y="35.98" text-anchor="end" dy="0.35em">9</text>
    <text x="16.96" y="25.3" text-anchor="end" dy="0.35em">10</text>
    <text x="16.96" y="14.61" text-anchor="end" dy="0.35em">11</text>
  </g>
  <g font-size="3.88" font-family="'PT Sans','Helvetica Neue','Helvetica',sans-serif" fill="#564A55" stroke="#000000" stroke-opacity="0.000" id="fig-7bcdc48aba5247bc85298794dc10164e-element-18">
    <text x="8.81" y="44.66" text-anchor="middle" dy="0.35em" transform="rotate(-90, 8.81, 46.66)">Y0tc</text>
  </g>
  <g font-size="3.88" font-family="'PT Sans','Helvetica Neue','Helvetica',sans-serif" fill="#564A55" stroke="#000000" stroke-opacity="0.000" id="fig-7bcdc48aba5247bc85298794dc10164e-element-19">
    <text x="66.43" y="10.61" text-anchor="middle">Actual Data vs. Soft Threshold Estimator, K = 12</text>
  </g>
</g>
<defs>
<clipPath id="fig-7bcdc48aba5247bc85298794dc10164e-element-9">
  <path d="M17.96,12.61 L 114.89 12.61 114.89 80.72 17.96 80.72" />
</clipPath
></defs>
</svg>
