<?xml version="1.0" encoding="UTF-8"?>
<svg xmlns="http://www.w3.org/2000/svg"
     xmlns:xlink="http://www.w3.org/1999/xlink"
     xmlns:gadfly="http://www.gadflyjl.org/ns"
     version="1.2"
     width="141.42mm" height="100mm" viewBox="0 0 141.42 100"
     stroke="none"
     fill="#000000"
     stroke-width="0.3"
     font-size="3.88"
>
<g class="plotroot xscalable yscalable" id="fig-d5cfd8d96d3948619e0cf65364369470-element-1">
  <g font-size="3.88" font-family="'PT Sans','Helvetica Neue','Helvetica',sans-serif" fill="#564A55" stroke="#000000" stroke-opacity="0.000" id="fig-d5cfd8d96d3948619e0cf65364369470-element-2">
    <text x="68.47" y="88.39" text-anchor="middle" dy="0.6em">X0te</text>
  </g>
  <g class="guide xlabels" font-size="2.82" font-family="'PT Sans Caption','Helvetica Neue','Helvetica',sans-serif" fill="#6C606B" id="fig-d5cfd8d96d3948619e0cf65364369470-element-3">
    <text x="19.96" y="81.72" text-anchor="middle" dy="0.6em">7</text>
    <text x="39.36" y="81.72" text-anchor="middle" dy="0.6em">8</text>
    <text x="58.77" y="81.72" text-anchor="middle" dy="0.6em">9</text>
    <text x="78.18" y="81.72" text-anchor="middle" dy="0.6em">10</text>
    <text x="97.58" y="81.72" text-anchor="middle" dy="0.6em">11</text>
    <text x="116.99" y="81.72" text-anchor="middle" dy="0.6em">12</text>
  </g>
  <g class="guide colorkey" id="fig-d5cfd8d96d3948619e0cf65364369470-element-4">
    <g fill="#4C404B" font-size="2.82" font-family="'PT Sans','Helvetica Neue','Helvetica',sans-serif" id="fig-d5cfd8d96d3948619e0cf65364369470-element-5">
      <text x="122.8" y="46.66" dy="0.35em">Efromovich</text>
      <text x="122.8" y="50.29" dy="0.35em">Data</text>
    </g>
    <g stroke="#000000" stroke-opacity="0.000" id="fig-d5cfd8d96d3948619e0cf65364369470-element-6">
      <rect x="119.99" y="45.76" width="1.81" height="1.81" fill="#008000"/>
      <rect x="119.99" y="49.38" width="1.81" height="1.81" fill="#00BFFF"/>
    </g>
    <g fill="#362A35" font-size="3.88" font-family="'PT Sans','Helvetica Neue','Helvetica',sans-serif" stroke="#000000" stroke-opacity="0.000" id="fig-d5cfd8d96d3948619e0cf65364369470-element-7">
      <text x="119.99" y="42.84">Legend</text>
    </g>
  </g>
  <g clip-path="url(#fig-d5cfd8d96d3948619e0cf65364369470-element-9)" id="fig-d5cfd8d96d3948619e0cf65364369470-element-8">
    <g pointer-events="visible" opacity="1" fill="#000000" fill-opacity="0.000" stroke="#000000" stroke-opacity="0.000" class="guide background" id="fig-d5cfd8d96d3948619e0cf65364369470-element-10">
      <rect x="17.96" y="12.61" width="101.03" height="68.1"/>
    </g>
    <g class="guide ygridlines xfixed" stroke-dasharray="0.5,0.5" stroke-width="0.2" stroke="#D0D0E0" id="fig-d5cfd8d96d3948619e0cf65364369470-element-11">
      <path fill="none" d="M17.96,78.71 L 118.99 78.71"/>
      <path fill="none" d="M17.96,68.03 L 118.99 68.03"/>
      <path fill="none" d="M17.96,57.35 L 118.99 57.35"/>
      <path fill="none" d="M17.96,46.66 L 118.99 46.66"/>
      <path fill="none" d="M17.96,35.98 L 118.99 35.98"/>
      <path fill="none" d="M17.96,25.3 L 118.99 25.3"/>
      <path fill="none" d="M17.96,14.61 L 118.99 14.61"/>
    </g>
    <g class="guide xgridlines yfixed" stroke-dasharray="0.5,0.5" stroke-width="0.2" stroke="#D0D0E0" id="fig-d5cfd8d96d3948619e0cf65364369470-element-12">
      <path fill="none" d="M19.96,12.61 L 19.96 80.72"/>
      <path fill="none" d="M39.36,12.61 L 39.36 80.72"/>
      <path fill="none" d="M58.77,12.61 L 58.77 80.72"/>
      <path fill="none" d="M78.18,12.61 L 78.18 80.72"/>
      <path fill="none" d="M97.58,12.61 L 97.58 80.72"/>
      <path fill="none" d="M116.99,12.61 L 116.99 80.72"/>
    </g>
    <g class="plotpanel" id="fig-d5cfd8d96d3948619e0cf65364369470-element-13">
      <g class="geometry" id="fig-d5cfd8d96d3948619e0cf65364369470-element-14">
        <g class="color_RGBA{Float32}(0.0f0,0.74736935f0,1.0f0,1.0f0)" stroke="#FFFFFF" stroke-width="0.3" fill="#00BFFF" id="fig-d5cfd8d96d3948619e0cf65364369470-element-15">
          <circle cx="76.58" cy="35.32" r="0.9"/>
          <circle cx="44.72" cy="48.04" r="0.9"/>
          <circle cx="40.08" cy="43.85" r="0.9"/>
          <circle cx="62.89" cy="35.37" r="0.9"/>
          <circle cx="74.8" cy="36.47" r="0.9"/>
          <circle cx="77.46" cy="27.76" r="0.9"/>
          <circle cx="71.04" cy="33.41" r="0.9"/>
          <circle cx="82.03" cy="26.85" r="0.9"/>
          <circle cx="70.27" cy="28.85" r="0.9"/>
          <circle cx="73.43" cy="31.79" r="0.9"/>
          <circle cx="60.17" cy="38.74" r="0.9"/>
          <circle cx="77.34" cy="26.29" r="0.9"/>
          <circle cx="63.2" cy="33.76" r="0.9"/>
          <circle cx="57.17" cy="35.04" r="0.9"/>
          <circle cx="47.95" cy="48.33" r="0.9"/>
          <circle cx="64.1" cy="35.29" r="0.9"/>
          <circle cx="76.35" cy="27.41" r="0.9"/>
          <circle cx="78.74" cy="39.55" r="0.9"/>
          <circle cx="77.45" cy="32.4" r="0.9"/>
          <circle cx="66.88" cy="32.8" r="0.9"/>
          <circle cx="68.77" cy="33.1" r="0.9"/>
          <circle cx="75.22" cy="30.52" r="0.9"/>
          <circle cx="66.16" cy="35.41" r="0.9"/>
          <circle cx="66.95" cy="40.44" r="0.9"/>
          <circle cx="61.5" cy="37.45" r="0.9"/>
          <circle cx="57.64" cy="39.52" r="0.9"/>
          <circle cx="79.82" cy="29.78" r="0.9"/>
          <circle cx="79.42" cy="37.38" r="0.9"/>
          <circle cx="54.96" cy="41.9" r="0.9"/>
          <circle cx="69.71" cy="33.06" r="0.9"/>
          <circle cx="67.57" cy="36.29" r="0.9"/>
          <circle cx="73.02" cy="33.64" r="0.9"/>
          <circle cx="66" cy="37.02" r="0.9"/>
          <circle cx="68.71" cy="38.43" r="0.9"/>
          <circle cx="70.53" cy="28.26" r="0.9"/>
          <circle cx="53.46" cy="34.71" r="0.9"/>
          <circle cx="68.95" cy="31.23" r="0.9"/>
          <circle cx="52.03" cy="41.82" r="0.9"/>
          <circle cx="99.77" cy="20.93" r="0.9"/>
          <circle cx="53.92" cy="38.7" r="0.9"/>
          <circle cx="67.54" cy="33.32" r="0.9"/>
          <circle cx="73.47" cy="29.78" r="0.9"/>
          <circle cx="56.26" cy="37.74" r="0.9"/>
          <circle cx="74.88" cy="32.54" r="0.9"/>
          <circle cx="87.38" cy="23.7" r="0.9"/>
          <circle cx="73.44" cy="33.79" r="0.9"/>
          <circle cx="57.8" cy="42.67" r="0.9"/>
          <circle cx="54.3" cy="40.47" r="0.9"/>
          <circle cx="61.16" cy="30.89" r="0.9"/>
          <circle cx="62.95" cy="34.91" r="0.9"/>
          <circle cx="63.63" cy="29" r="0.9"/>
          <circle cx="57.64" cy="35.93" r="0.9"/>
          <circle cx="82.08" cy="24.77" r="0.9"/>
          <circle cx="82.41" cy="26.09" r="0.9"/>
          <circle cx="84.76" cy="35.22" r="0.9"/>
          <circle cx="69.97" cy="33.11" r="0.9"/>
          <circle cx="86.88" cy="27.97" r="0.9"/>
          <circle cx="67.61" cy="29.04" r="0.9"/>
          <circle cx="83.68" cy="29.54" r="0.9"/>
          <circle cx="95.18" cy="23.23" r="0.9"/>
          <circle cx="49.99" cy="46.06" r="0.9"/>
          <circle cx="94.44" cy="23.4" r="0.9"/>
          <circle cx="79.92" cy="33.29" r="0.9"/>
          <circle cx="55.37" cy="40.37" r="0.9"/>
          <circle cx="52.68" cy="44.54" r="0.9"/>
          <circle cx="70.35" cy="32.34" r="0.9"/>
          <circle cx="71.41" cy="28.06" r="0.9"/>
          <circle cx="45.98" cy="50.69" r="0.9"/>
          <circle cx="67.08" cy="38.43" r="0.9"/>
          <circle cx="77.04" cy="30.29" r="0.9"/>
          <circle cx="73.71" cy="30.05" r="0.9"/>
          <circle cx="54.5" cy="39.45" r="0.9"/>
          <circle cx="71.19" cy="33.97" r="0.9"/>
          <circle cx="58.99" cy="38.27" r="0.9"/>
          <circle cx="72.98" cy="28.66" r="0.9"/>
          <circle cx="63.04" cy="34.38" r="0.9"/>
          <circle cx="77.73" cy="24.86" r="0.9"/>
          <circle cx="62.38" cy="37.94" r="0.9"/>
          <circle cx="73.09" cy="30.87" r="0.9"/>
          <circle cx="76.75" cy="43.4" r="0.9"/>
          <circle cx="56.59" cy="38.93" r="0.9"/>
          <circle cx="54.41" cy="46.51" r="0.9"/>
          <circle cx="75.52" cy="34.29" r="0.9"/>
          <circle cx="53.58" cy="37.57" r="0.9"/>
          <circle cx="79.2" cy="33.62" r="0.9"/>
          <circle cx="70.3" cy="41.19" r="0.9"/>
          <circle cx="52.05" cy="44.71" r="0.9"/>
          <circle cx="80.37" cy="32.3" r="0.9"/>
          <circle cx="64.96" cy="39.64" r="0.9"/>
          <circle cx="82.08" cy="28.6" r="0.9"/>
          <circle cx="43.05" cy="56.37" r="0.9"/>
          <circle cx="75.28" cy="31.47" r="0.9"/>
          <circle cx="71.82" cy="32.36" r="0.9"/>
          <circle cx="53.24" cy="36.55" r="0.9"/>
          <circle cx="71.22" cy="34.46" r="0.9"/>
          <circle cx="72.73" cy="41.76" r="0.9"/>
          <circle cx="76.84" cy="42.83" r="0.9"/>
          <circle cx="76.92" cy="36.56" r="0.9"/>
          <circle cx="84.64" cy="33.55" r="0.9"/>
          <circle cx="75.4" cy="34.52" r="0.9"/>
          <circle cx="70.49" cy="37.37" r="0.9"/>
          <circle cx="80.45" cy="28.38" r="0.9"/>
          <circle cx="67.91" cy="36.58" r="0.9"/>
          <circle cx="69.96" cy="34.1" r="0.9"/>
          <circle cx="61.51" cy="41.1" r="0.9"/>
          <circle cx="93" cy="34.52" r="0.9"/>
          <circle cx="57.51" cy="35.01" r="0.9"/>
          <circle cx="57.9" cy="39.9" r="0.9"/>
          <circle cx="71.73" cy="30.92" r="0.9"/>
          <circle cx="82.02" cy="25.77" r="0.9"/>
          <circle cx="36.12" cy="49.27" r="0.9"/>
          <circle cx="58.87" cy="42.58" r="0.9"/>
          <circle cx="62.99" cy="39.42" r="0.9"/>
          <circle cx="46.64" cy="58.71" r="0.9"/>
          <circle cx="46.61" cy="51.36" r="0.9"/>
          <circle cx="61.53" cy="58.49" r="0.9"/>
          <circle cx="42.33" cy="54.68" r="0.9"/>
          <circle cx="73.41" cy="35.96" r="0.9"/>
          <circle cx="66.84" cy="37.85" r="0.9"/>
          <circle cx="44.64" cy="59.94" r="0.9"/>
          <circle cx="51.12" cy="41.12" r="0.9"/>
          <circle cx="61.84" cy="45.51" r="0.9"/>
          <circle cx="47.98" cy="52.16" r="0.9"/>
          <circle cx="69.82" cy="37.31" r="0.9"/>
          <circle cx="84.02" cy="37.53" r="0.9"/>
          <circle cx="51.21" cy="42.86" r="0.9"/>
          <circle cx="66.23" cy="34.31" r="0.9"/>
          <circle cx="48.98" cy="49.75" r="0.9"/>
          <circle cx="73.32" cy="40.14" r="0.9"/>
          <circle cx="90.37" cy="25.47" r="0.9"/>
          <circle cx="57.94" cy="56.24" r="0.9"/>
          <circle cx="110.32" cy="25.2" r="0.9"/>
          <circle cx="60.76" cy="37.27" r="0.9"/>
          <circle cx="83.62" cy="29.85" r="0.9"/>
          <circle cx="60.18" cy="37.88" r="0.9"/>
          <circle cx="72.58" cy="38.54" r="0.9"/>
          <circle cx="42.19" cy="57.25" r="0.9"/>
          <circle cx="40.79" cy="48.95" r="0.9"/>
          <circle cx="58.98" cy="46.16" r="0.9"/>
          <circle cx="75.22" cy="29.47" r="0.9"/>
          <circle cx="85.49" cy="26.37" r="0.9"/>
          <circle cx="45.13" cy="49.69" r="0.9"/>
          <circle cx="72.68" cy="33.99" r="0.9"/>
          <circle cx="89.52" cy="29.32" r="0.9"/>
          <circle cx="62.01" cy="37.76" r="0.9"/>
          <circle cx="64.19" cy="39.32" r="0.9"/>
          <circle cx="59.79" cy="45.67" r="0.9"/>
          <circle cx="57.49" cy="45.29" r="0.9"/>
          <circle cx="66.57" cy="36.85" r="0.9"/>
          <circle cx="74.44" cy="29.43" r="0.9"/>
          <circle cx="64.78" cy="34.55" r="0.9"/>
          <circle cx="83.63" cy="34.65" r="0.9"/>
          <circle cx="101.52" cy="16.34" r="0.9"/>
          <circle cx="82.15" cy="28.94" r="0.9"/>
          <circle cx="65.16" cy="40.66" r="0.9"/>
          <circle cx="76.79" cy="30.5" r="0.9"/>
          <circle cx="61.72" cy="43.05" r="0.9"/>
          <circle cx="89.78" cy="25.07" r="0.9"/>
          <circle cx="82.77" cy="34.67" r="0.9"/>
          <circle cx="101.39" cy="22.3" r="0.9"/>
          <circle cx="62.57" cy="46.09" r="0.9"/>
          <circle cx="89.66" cy="31.61" r="0.9"/>
          <circle cx="85.43" cy="30.38" r="0.9"/>
          <circle cx="91.72" cy="25.91" r="0.9"/>
          <circle cx="83.66" cy="33.16" r="0.9"/>
          <circle cx="61.78" cy="47.61" r="0.9"/>
          <circle cx="78.03" cy="32.11" r="0.9"/>
          <circle cx="88.07" cy="25.96" r="0.9"/>
          <circle cx="66.29" cy="41.05" r="0.9"/>
          <circle cx="84.34" cy="27.05" r="0.9"/>
          <circle cx="79.52" cy="29.78" r="0.9"/>
          <circle cx="86.85" cy="27.01" r="0.9"/>
          <circle cx="80.09" cy="32.24" r="0.9"/>
          <circle cx="81.37" cy="30.98" r="0.9"/>
          <circle cx="85.37" cy="30.57" r="0.9"/>
          <circle cx="86.92" cy="33.34" r="0.9"/>
          <circle cx="60.89" cy="37.94" r="0.9"/>
          <circle cx="91.51" cy="26.73" r="0.9"/>
          <circle cx="85.97" cy="27.49" r="0.9"/>
          <circle cx="95.01" cy="27.16" r="0.9"/>
          <circle cx="94.62" cy="26.03" r="0.9"/>
          <circle cx="69.94" cy="40.34" r="0.9"/>
          <circle cx="77.39" cy="33.03" r="0.9"/>
          <circle cx="79.42" cy="32.23" r="0.9"/>
          <circle cx="75.5" cy="28.11" r="0.9"/>
          <circle cx="81.23" cy="29.56" r="0.9"/>
          <circle cx="69.08" cy="32.58" r="0.9"/>
          <circle cx="76.88" cy="32.59" r="0.9"/>
          <circle cx="78.7" cy="32.72" r="0.9"/>
          <circle cx="93.81" cy="19.12" r="0.9"/>
          <circle cx="86.41" cy="23.85" r="0.9"/>
          <circle cx="82" cy="31.92" r="0.9"/>
          <circle cx="88.97" cy="33.96" r="0.9"/>
          <circle cx="99.55" cy="22.49" r="0.9"/>
          <circle cx="59.01" cy="41.73" r="0.9"/>
          <circle cx="70.44" cy="34.15" r="0.9"/>
          <circle cx="91.06" cy="28.87" r="0.9"/>
          <circle cx="62.47" cy="42.16" r="0.9"/>
          <circle cx="68.49" cy="42.15" r="0.9"/>
          <circle cx="86.68" cy="29.58" r="0.9"/>
          <circle cx="76.53" cy="35.65" r="0.9"/>
          <circle cx="87.28" cy="32.59" r="0.9"/>
          <circle cx="84.12" cy="30.35" r="0.9"/>
          <circle cx="72.85" cy="41.37" r="0.9"/>
          <circle cx="92.73" cy="26.58" r="0.9"/>
          <circle cx="78.28" cy="33.85" r="0.9"/>
          <circle cx="105.82" cy="26.77" r="0.9"/>
          <circle cx="96.65" cy="27.57" r="0.9"/>
          <circle cx="91.24" cy="23.74" r="0.9"/>
          <circle cx="90.72" cy="27.41" r="0.9"/>
          <circle cx="97.27" cy="20.45" r="0.9"/>
          <circle cx="81.23" cy="33" r="0.9"/>
          <circle cx="102.36" cy="29.4" r="0.9"/>
          <circle cx="84.06" cy="34.06" r="0.9"/>
          <circle cx="85" cy="24.14" r="0.9"/>
          <circle cx="104.77" cy="26.47" r="0.9"/>
          <circle cx="93.68" cy="28.93" r="0.9"/>
          <circle cx="97.61" cy="27.22" r="0.9"/>
          <circle cx="71.88" cy="42.06" r="0.9"/>
          <circle cx="99.61" cy="24.63" r="0.9"/>
          <circle cx="82.01" cy="35.03" r="0.9"/>
          <circle cx="73.01" cy="44.28" r="0.9"/>
          <circle cx="84.79" cy="29.93" r="0.9"/>
          <circle cx="78.58" cy="28.45" r="0.9"/>
          <circle cx="72.03" cy="37.7" r="0.9"/>
          <circle cx="73.07" cy="33.22" r="0.9"/>
          <circle cx="72.92" cy="36.88" r="0.9"/>
          <circle cx="77.71" cy="35.49" r="0.9"/>
          <circle cx="95.51" cy="24.81" r="0.9"/>
          <circle cx="91.04" cy="25.9" r="0.9"/>
          <circle cx="70.85" cy="32.62" r="0.9"/>
          <circle cx="81.66" cy="25.16" r="0.9"/>
          <circle cx="81.19" cy="34.94" r="0.9"/>
          <circle cx="78.17" cy="38.03" r="0.9"/>
          <circle cx="77.71" cy="31.65" r="0.9"/>
          <circle cx="87.62" cy="27.13" r="0.9"/>
          <circle cx="80.57" cy="29.67" r="0.9"/>
          <circle cx="35.91" cy="54.85" r="0.9"/>
          <circle cx="70.86" cy="31.57" r="0.9"/>
          <circle cx="82.21" cy="28.06" r="0.9"/>
          <circle cx="86.16" cy="29.82" r="0.9"/>
          <circle cx="86.74" cy="31.09" r="0.9"/>
          <circle cx="98.48" cy="25.2" r="0.9"/>
          <circle cx="79.67" cy="37.13" r="0.9"/>
          <circle cx="61.85" cy="39.62" r="0.9"/>
          <circle cx="58.2" cy="47.41" r="0.9"/>
          <circle cx="68.38" cy="40.64" r="0.9"/>
          <circle cx="75.26" cy="34.28" r="0.9"/>
          <circle cx="79.59" cy="34.78" r="0.9"/>
          <circle cx="88.5" cy="29.71" r="0.9"/>
          <circle cx="87.11" cy="34.92" r="0.9"/>
          <circle cx="81.03" cy="31.3" r="0.9"/>
          <circle cx="83.7" cy="32.63" r="0.9"/>
          <circle cx="88.07" cy="33.44" r="0.9"/>
          <circle cx="81.06" cy="38.86" r="0.9"/>
          <circle cx="88.57" cy="33.57" r="0.9"/>
          <circle cx="66.66" cy="38.17" r="0.9"/>
          <circle cx="63.36" cy="42.16" r="0.9"/>
          <circle cx="103.52" cy="25.26" r="0.9"/>
          <circle cx="88.63" cy="26.59" r="0.9"/>
          <circle cx="98.8" cy="23.95" r="0.9"/>
          <circle cx="81.91" cy="31.49" r="0.9"/>
          <circle cx="86.54" cy="29.76" r="0.9"/>
          <circle cx="84.73" cy="25.68" r="0.9"/>
          <circle cx="78.29" cy="31.6" r="0.9"/>
          <circle cx="78.97" cy="39.19" r="0.9"/>
          <circle cx="77.75" cy="37.8" r="0.9"/>
          <circle cx="70.75" cy="36.16" r="0.9"/>
          <circle cx="69.52" cy="35.3" r="0.9"/>
          <circle cx="73.87" cy="35.77" r="0.9"/>
          <circle cx="81.7" cy="65.33" r="0.9"/>
          <circle cx="68.24" cy="37.32" r="0.9"/>
          <circle cx="71.74" cy="36.56" r="0.9"/>
          <circle cx="43.51" cy="52.62" r="0.9"/>
          <circle cx="40.9" cy="48.52" r="0.9"/>
          <circle cx="88.94" cy="27.89" r="0.9"/>
          <circle cx="79.07" cy="31.37" r="0.9"/>
          <circle cx="40.42" cy="62.81" r="0.9"/>
          <circle cx="70.19" cy="34.43" r="0.9"/>
          <circle cx="58.38" cy="43.96" r="0.9"/>
          <circle cx="57.61" cy="50.44" r="0.9"/>
          <circle cx="67.25" cy="40.33" r="0.9"/>
          <circle cx="67.26" cy="38.2" r="0.9"/>
          <circle cx="62.07" cy="46.35" r="0.9"/>
          <circle cx="75.02" cy="35.49" r="0.9"/>
          <circle cx="67.13" cy="37.72" r="0.9"/>
          <circle cx="60.41" cy="46.3" r="0.9"/>
          <circle cx="41.79" cy="49.11" r="0.9"/>
          <circle cx="65.76" cy="32.2" r="0.9"/>
          <circle cx="68.47" cy="42.87" r="0.9"/>
          <circle cx="83.97" cy="24.04" r="0.9"/>
          <circle cx="79.29" cy="32.94" r="0.9"/>
          <circle cx="53.93" cy="50.45" r="0.9"/>
          <circle cx="58.66" cy="39.67" r="0.9"/>
          <circle cx="93.72" cy="20.65" r="0.9"/>
          <circle cx="66.4" cy="40.26" r="0.9"/>
          <circle cx="76.47" cy="35.61" r="0.9"/>
          <circle cx="47.86" cy="31.55" r="0.9"/>
          <circle cx="73.26" cy="42.16" r="0.9"/>
          <circle cx="72.73" cy="36.43" r="0.9"/>
          <circle cx="67.61" cy="38.62" r="0.9"/>
          <circle cx="88.38" cy="30.06" r="0.9"/>
          <circle cx="80.45" cy="28.38" r="0.9"/>
          <circle cx="74.01" cy="34.95" r="0.9"/>
          <circle cx="93.17" cy="26.97" r="0.9"/>
          <circle cx="97.31" cy="26.72" r="0.9"/>
          <circle cx="85.9" cy="21.32" r="0.9"/>
          <circle cx="79.29" cy="34.05" r="0.9"/>
          <circle cx="73.16" cy="32.37" r="0.9"/>
          <circle cx="64.04" cy="38.44" r="0.9"/>
          <circle cx="65.58" cy="33.75" r="0.9"/>
          <circle cx="78.14" cy="29.48" r="0.9"/>
          <circle cx="65.49" cy="32.86" r="0.9"/>
          <circle cx="74.09" cy="29.73" r="0.9"/>
          <circle cx="60.45" cy="37.35" r="0.9"/>
          <circle cx="75.46" cy="26.9" r="0.9"/>
          <circle cx="79.4" cy="27.39" r="0.9"/>
          <circle cx="92.87" cy="26.21" r="0.9"/>
          <circle cx="86.13" cy="23.39" r="0.9"/>
          <circle cx="64.72" cy="36.59" r="0.9"/>
          <circle cx="82.16" cy="36.27" r="0.9"/>
          <circle cx="72.37" cy="41.18" r="0.9"/>
          <circle cx="67.95" cy="52.15" r="0.9"/>
          <circle cx="64.83" cy="37.04" r="0.9"/>
          <circle cx="87.11" cy="34.66" r="0.9"/>
          <circle cx="64.06" cy="43.71" r="0.9"/>
          <circle cx="69.08" cy="36.11" r="0.9"/>
          <circle cx="91.7" cy="31.89" r="0.9"/>
          <circle cx="74.15" cy="37.69" r="0.9"/>
          <circle cx="81.53" cy="35.32" r="0.9"/>
          <circle cx="79.46" cy="33.06" r="0.9"/>
          <circle cx="80.14" cy="32.5" r="0.9"/>
          <circle cx="71.88" cy="41.04" r="0.9"/>
          <circle cx="74.48" cy="34.97" r="0.9"/>
          <circle cx="70.75" cy="40.24" r="0.9"/>
          <circle cx="68.31" cy="33.07" r="0.9"/>
          <circle cx="74.27" cy="36.19" r="0.9"/>
          <circle cx="66.67" cy="40.36" r="0.9"/>
          <circle cx="63.51" cy="41.08" r="0.9"/>
          <circle cx="87.47" cy="31.43" r="0.9"/>
          <circle cx="58.59" cy="37.61" r="0.9"/>
          <circle cx="68.07" cy="40.26" r="0.9"/>
          <circle cx="75.04" cy="34.49" r="0.9"/>
          <circle cx="87.35" cy="27.65" r="0.9"/>
          <circle cx="90.78" cy="22.47" r="0.9"/>
          <circle cx="94.1" cy="29.62" r="0.9"/>
          <circle cx="78.48" cy="37.31" r="0.9"/>
          <circle cx="59.61" cy="45.94" r="0.9"/>
          <circle cx="102.11" cy="22.61" r="0.9"/>
          <circle cx="84.3" cy="26.53" r="0.9"/>
          <circle cx="63.03" cy="37.47" r="0.9"/>
          <circle cx="60.06" cy="36.79" r="0.9"/>
          <circle cx="75.82" cy="47.29" r="0.9"/>
          <circle cx="76.37" cy="37.41" r="0.9"/>
          <circle cx="65.84" cy="42.54" r="0.9"/>
          <circle cx="73.89" cy="36.27" r="0.9"/>
          <circle cx="85.61" cy="31.13" r="0.9"/>
          <circle cx="54.71" cy="36.74" r="0.9"/>
          <circle cx="54.19" cy="39.93" r="0.9"/>
          <circle cx="68.41" cy="30.99" r="0.9"/>
          <circle cx="80.69" cy="37.69" r="0.9"/>
          <circle cx="64.84" cy="34.9" r="0.9"/>
          <circle cx="70.43" cy="30.08" r="0.9"/>
          <circle cx="84" cy="31.72" r="0.9"/>
          <circle cx="91.83" cy="24.76" r="0.9"/>
          <circle cx="86.23" cy="39.43" r="0.9"/>
          <circle cx="70.79" cy="28.17" r="0.9"/>
          <circle cx="89.2" cy="37.11" r="0.9"/>
          <circle cx="85.08" cy="28.29" r="0.9"/>
          <circle cx="77.8" cy="28.54" r="0.9"/>
          <circle cx="68.69" cy="39.02" r="0.9"/>
          <circle cx="88.7" cy="31.54" r="0.9"/>
          <circle cx="69.94" cy="35.12" r="0.9"/>
          <circle cx="73.23" cy="29.43" r="0.9"/>
          <circle cx="58.95" cy="41.42" r="0.9"/>
          <circle cx="98.9" cy="24.07" r="0.9"/>
          <circle cx="64.45" cy="34.34" r="0.9"/>
          <circle cx="80.05" cy="31.18" r="0.9"/>
          <circle cx="71.23" cy="34.57" r="0.9"/>
          <circle cx="66.41" cy="37.38" r="0.9"/>
          <circle cx="57.19" cy="33.33" r="0.9"/>
          <circle cx="70.42" cy="33.53" r="0.9"/>
          <circle cx="68.32" cy="41.44" r="0.9"/>
          <circle cx="55.97" cy="46.85" r="0.9"/>
          <circle cx="54.71" cy="41.28" r="0.9"/>
          <circle cx="92.13" cy="32.36" r="0.9"/>
          <circle cx="67.11" cy="30.62" r="0.9"/>
          <circle cx="57.16" cy="34.99" r="0.9"/>
          <circle cx="79.47" cy="32.57" r="0.9"/>
          <circle cx="76.14" cy="38.57" r="0.9"/>
          <circle cx="71.18" cy="35.31" r="0.9"/>
          <circle cx="69.34" cy="37.06" r="0.9"/>
          <circle cx="83.61" cy="26.69" r="0.9"/>
          <circle cx="84.64" cy="27.91" r="0.9"/>
          <circle cx="53.64" cy="45.08" r="0.9"/>
          <circle cx="58.21" cy="36.88" r="0.9"/>
          <circle cx="75.52" cy="36.02" r="0.9"/>
          <circle cx="55.83" cy="39.21" r="0.9"/>
          <circle cx="57.57" cy="39.78" r="0.9"/>
          <circle cx="69.83" cy="35.67" r="0.9"/>
          <circle cx="54.35" cy="40.03" r="0.9"/>
          <circle cx="91.42" cy="29.95" r="0.9"/>
          <circle cx="89.44" cy="30.22" r="0.9"/>
          <circle cx="101.06" cy="20.34" r="0.9"/>
          <circle cx="73.56" cy="35.31" r="0.9"/>
          <circle cx="63.95" cy="36.54" r="0.9"/>
          <circle cx="58.31" cy="37.9" r="0.9"/>
          <circle cx="85.94" cy="34.28" r="0.9"/>
          <circle cx="91.15" cy="30.45" r="0.9"/>
          <circle cx="66.23" cy="41.43" r="0.9"/>
          <circle cx="88.32" cy="27.55" r="0.9"/>
          <circle cx="26.91" cy="70.98" r="0.9"/>
          <circle cx="74.42" cy="31.61" r="0.9"/>
          <circle cx="79.58" cy="30.75" r="0.9"/>
          <circle cx="57.67" cy="49.96" r="0.9"/>
          <circle cx="70.95" cy="36.94" r="0.9"/>
          <circle cx="91.27" cy="35.04" r="0.9"/>
          <circle cx="71.49" cy="47.75" r="0.9"/>
          <circle cx="60.6" cy="42.48" r="0.9"/>
          <circle cx="58.34" cy="39.82" r="0.9"/>
          <circle cx="76.59" cy="30.27" r="0.9"/>
          <circle cx="81.83" cy="28.73" r="0.9"/>
          <circle cx="69.38" cy="39.03" r="0.9"/>
          <circle cx="33.41" cy="69.53" r="0.9"/>
          <circle cx="68.58" cy="38.31" r="0.9"/>
          <circle cx="56.89" cy="33.18" r="0.9"/>
          <circle cx="59.38" cy="37.71" r="0.9"/>
          <circle cx="78.08" cy="68.57" r="0.9"/>
          <circle cx="83.45" cy="27.23" r="0.9"/>
          <circle cx="56.13" cy="35.6" r="0.9"/>
          <circle cx="65.94" cy="41.97" r="0.9"/>
          <circle cx="78.31" cy="30.76" r="0.9"/>
          <circle cx="83.78" cy="43.39" r="0.9"/>
          <circle cx="75.09" cy="31.62" r="0.9"/>
          <circle cx="70.61" cy="33.43" r="0.9"/>
          <circle cx="80.53" cy="35" r="0.9"/>
          <circle cx="68.96" cy="32.1" r="0.9"/>
          <circle cx="87.77" cy="32.19" r="0.9"/>
          <circle cx="85.24" cy="31.34" r="0.9"/>
          <circle cx="76.37" cy="33.84" r="0.9"/>
          <circle cx="64.98" cy="26.88" r="0.9"/>
          <circle cx="57.02" cy="35" r="0.9"/>
          <circle cx="45.38" cy="47.03" r="0.9"/>
          <circle cx="75.06" cy="44.27" r="0.9"/>
          <circle cx="83.75" cy="28.98" r="0.9"/>
          <circle cx="76.94" cy="28.95" r="0.9"/>
          <circle cx="73.1" cy="32.85" r="0.9"/>
          <circle cx="73.59" cy="28.7" r="0.9"/>
          <circle cx="78.36" cy="37.5" r="0.9"/>
          <circle cx="79.74" cy="35.37" r="0.9"/>
          <circle cx="59.42" cy="38.5" r="0.9"/>
          <circle cx="81.97" cy="32.43" r="0.9"/>
          <circle cx="81.16" cy="36.21" r="0.9"/>
          <circle cx="62.07" cy="47.47" r="0.9"/>
          <circle cx="54.88" cy="37.11" r="0.9"/>
          <circle cx="102.57" cy="23.89" r="0.9"/>
          <circle cx="79.26" cy="35.53" r="0.9"/>
          <circle cx="66.93" cy="38.9" r="0.9"/>
          <circle cx="94.84" cy="28.36" r="0.9"/>
          <circle cx="93.76" cy="29.03" r="0.9"/>
          <circle cx="60.61" cy="35.42" r="0.9"/>
          <circle cx="73.38" cy="31.74" r="0.9"/>
          <circle cx="95.31" cy="18.94" r="0.9"/>
          <circle cx="81.56" cy="32.83" r="0.9"/>
          <circle cx="83.25" cy="28.51" r="0.9"/>
          <circle cx="59.49" cy="50.78" r="0.9"/>
          <circle cx="85.36" cy="28.58" r="0.9"/>
          <circle cx="71.23" cy="35.39" r="0.9"/>
          <circle cx="86.54" cy="27.98" r="0.9"/>
          <circle cx="101.95" cy="21.46" r="0.9"/>
          <circle cx="67.69" cy="36.37" r="0.9"/>
          <circle cx="83.43" cy="30.06" r="0.9"/>
          <circle cx="63.35" cy="33.31" r="0.9"/>
          <circle cx="92.23" cy="30.45" r="0.9"/>
          <circle cx="82.04" cy="37.21" r="0.9"/>
          <circle cx="90.54" cy="30.31" r="0.9"/>
          <circle cx="82.17" cy="31.6" r="0.9"/>
          <circle cx="73.33" cy="34.79" r="0.9"/>
          <circle cx="59.92" cy="42.03" r="0.9"/>
          <circle cx="64.61" cy="34.98" r="0.9"/>
          <circle cx="75.65" cy="31.94" r="0.9"/>
          <circle cx="70.93" cy="34.07" r="0.9"/>
          <circle cx="72.48" cy="37.75" r="0.9"/>
          <circle cx="92.03" cy="31.25" r="0.9"/>
          <circle cx="55.39" cy="41.66" r="0.9"/>
          <circle cx="55.31" cy="45.36" r="0.9"/>
          <circle cx="97.8" cy="28.23" r="0.9"/>
          <circle cx="73.82" cy="39.12" r="0.9"/>
          <circle cx="74.85" cy="37.42" r="0.9"/>
          <circle cx="70.45" cy="40.01" r="0.9"/>
          <circle cx="82.83" cy="36" r="0.9"/>
          <circle cx="84.48" cy="27.3" r="0.9"/>
          <circle cx="54.51" cy="39.26" r="0.9"/>
          <circle cx="86.15" cy="29.82" r="0.9"/>
          <circle cx="80.98" cy="24.18" r="0.9"/>
          <circle cx="69.12" cy="37.36" r="0.9"/>
          <circle cx="84.18" cy="30.2" r="0.9"/>
          <circle cx="81.1" cy="24.73" r="0.9"/>
          <circle cx="94.47" cy="26.38" r="0.9"/>
          <circle cx="67.65" cy="40.08" r="0.9"/>
          <circle cx="74.13" cy="34.39" r="0.9"/>
          <circle cx="68.68" cy="37.82" r="0.9"/>
          <circle cx="77.17" cy="28.76" r="0.9"/>
          <circle cx="82.11" cy="30.56" r="0.9"/>
          <circle cx="92.98" cy="22.96" r="0.9"/>
          <circle cx="71.64" cy="38.26" r="0.9"/>
          <circle cx="90.37" cy="28.67" r="0.9"/>
          <circle cx="59.45" cy="38.79" r="0.9"/>
          <circle cx="79.67" cy="37.08" r="0.9"/>
          <circle cx="61.95" cy="39.06" r="0.9"/>
          <circle cx="60.29" cy="39.6" r="0.9"/>
          <circle cx="57.33" cy="38.96" r="0.9"/>
          <circle cx="62.56" cy="39.96" r="0.9"/>
          <circle cx="79.03" cy="28.36" r="0.9"/>
          <circle cx="76.24" cy="28.02" r="0.9"/>
          <circle cx="59.19" cy="36.84" r="0.9"/>
          <circle cx="71.06" cy="36.19" r="0.9"/>
          <circle cx="66.84" cy="43.4" r="0.9"/>
          <circle cx="65.26" cy="39.97" r="0.9"/>
          <circle cx="84.07" cy="34.88" r="0.9"/>
          <circle cx="79.86" cy="29.83" r="0.9"/>
          <circle cx="71.83" cy="34.7" r="0.9"/>
          <circle cx="83.81" cy="28.16" r="0.9"/>
          <circle cx="83.1" cy="31.64" r="0.9"/>
          <circle cx="86.08" cy="40.24" r="0.9"/>
          <circle cx="72.98" cy="28.09" r="0.9"/>
          <circle cx="79.88" cy="41.16" r="0.9"/>
          <circle cx="71.64" cy="36.27" r="0.9"/>
          <circle cx="73.46" cy="38.37" r="0.9"/>
          <circle cx="50.29" cy="49.45" r="0.9"/>
          <circle cx="76.9" cy="29.17" r="0.9"/>
          <circle cx="87.83" cy="28.89" r="0.9"/>
          <circle cx="92.63" cy="32.64" r="0.9"/>
          <circle cx="75.84" cy="31.99" r="0.9"/>
          <circle cx="83.25" cy="30.76" r="0.9"/>
          <circle cx="69.49" cy="44.99" r="0.9"/>
          <circle cx="57.02" cy="44.06" r="0.9"/>
          <circle cx="88.85" cy="26.79" r="0.9"/>
          <circle cx="94.19" cy="23.26" r="0.9"/>
          <circle cx="87.53" cy="32" r="0.9"/>
          <circle cx="70.06" cy="40.65" r="0.9"/>
          <circle cx="89.11" cy="28.16" r="0.9"/>
          <circle cx="95.62" cy="26.83" r="0.9"/>
          <circle cx="89.29" cy="43.93" r="0.9"/>
          <circle cx="52.97" cy="51.91" r="0.9"/>
          <circle cx="77.75" cy="29.25" r="0.9"/>
          <circle cx="89.6" cy="29.7" r="0.9"/>
          <circle cx="71.01" cy="33.89" r="0.9"/>
          <circle cx="49.1" cy="52.9" r="0.9"/>
          <circle cx="76.42" cy="29.15" r="0.9"/>
          <circle cx="79.31" cy="30.51" r="0.9"/>
          <circle cx="63.37" cy="41.69" r="0.9"/>
          <circle cx="76.7" cy="33.87" r="0.9"/>
          <circle cx="67.74" cy="38.31" r="0.9"/>
          <circle cx="60.11" cy="42.82" r="0.9"/>
          <circle cx="77.96" cy="32.62" r="0.9"/>
          <circle cx="48.04" cy="51.16" r="0.9"/>
          <circle cx="73.24" cy="34.73" r="0.9"/>
          <circle cx="78.63" cy="34.08" r="0.9"/>
          <circle cx="88.89" cy="24.83" r="0.9"/>
          <circle cx="62.37" cy="34.91" r="0.9"/>
          <circle cx="76.24" cy="30.51" r="0.9"/>
          <circle cx="80.82" cy="31.53" r="0.9"/>
          <circle cx="57.67" cy="47.08" r="0.9"/>
          <circle cx="74.03" cy="33.37" r="0.9"/>
          <circle cx="74.94" cy="34.63" r="0.9"/>
          <circle cx="79.43" cy="28.13" r="0.9"/>
          <circle cx="81.46" cy="27.14" r="0.9"/>
          <circle cx="59.64" cy="24.33" r="0.9"/>
          <circle cx="85.62" cy="28.47" r="0.9"/>
          <circle cx="77.26" cy="36.22" r="0.9"/>
          <circle cx="67.08" cy="28.47" r="0.9"/>
          <circle cx="84.65" cy="24.57" r="0.9"/>
          <circle cx="85.77" cy="33.16" r="0.9"/>
          <circle cx="70.54" cy="35.44" r="0.9"/>
          <circle cx="72.37" cy="33.35" r="0.9"/>
          <circle cx="82.58" cy="27.96" r="0.9"/>
          <circle cx="89.68" cy="33.31" r="0.9"/>
          <circle cx="81.98" cy="25.15" r="0.9"/>
          <circle cx="79.3" cy="24.92" r="0.9"/>
          <circle cx="64.24" cy="34.61" r="0.9"/>
          <circle cx="64.5" cy="38.31" r="0.9"/>
          <circle cx="63.55" cy="37.49" r="0.9"/>
          <circle cx="57.3" cy="38.7" r="0.9"/>
          <circle cx="56.48" cy="38.7" r="0.9"/>
          <circle cx="77.58" cy="33.35" r="0.9"/>
          <circle cx="74.04" cy="31.72" r="0.9"/>
          <circle cx="77.99" cy="38.14" r="0.9"/>
          <circle cx="76.27" cy="26.11" r="0.9"/>
          <circle cx="83.13" cy="31.37" r="0.9"/>
          <circle cx="63.86" cy="33.33" r="0.9"/>
          <circle cx="73.91" cy="31.28" r="0.9"/>
          <circle cx="55.13" cy="60.1" r="0.9"/>
          <circle cx="70.54" cy="31.59" r="0.9"/>
          <circle cx="69.48" cy="34.84" r="0.9"/>
          <circle cx="96.77" cy="33.21" r="0.9"/>
          <circle cx="77.43" cy="31.19" r="0.9"/>
          <circle cx="54.96" cy="40.59" r="0.9"/>
          <circle cx="83.7" cy="27.44" r="0.9"/>
          <circle cx="67.15" cy="30.66" r="0.9"/>
          <circle cx="80.08" cy="26.71" r="0.9"/>
          <circle cx="58.91" cy="33.32" r="0.9"/>
          <circle cx="71.07" cy="32.13" r="0.9"/>
          <circle cx="87.32" cy="27.09" r="0.9"/>
          <circle cx="55.85" cy="39.52" r="0.9"/>
          <circle cx="93.92" cy="22.71" r="0.9"/>
          <circle cx="50.87" cy="43.96" r="0.9"/>
          <circle cx="78.81" cy="30.71" r="0.9"/>
          <circle cx="59.6" cy="45.04" r="0.9"/>
          <circle cx="88.38" cy="30.22" r="0.9"/>
          <circle cx="59.22" cy="44.4" r="0.9"/>
          <circle cx="66.02" cy="38.79" r="0.9"/>
          <circle cx="76.2" cy="29.45" r="0.9"/>
          <circle cx="59.21" cy="43.6" r="0.9"/>
          <circle cx="74.67" cy="39.23" r="0.9"/>
          <circle cx="71.5" cy="36.13" r="0.9"/>
          <circle cx="58.95" cy="44.31" r="0.9"/>
          <circle cx="54.58" cy="44.21" r="0.9"/>
          <circle cx="80.99" cy="34.13" r="0.9"/>
          <circle cx="80.93" cy="31" r="0.9"/>
          <circle cx="74.95" cy="38.95" r="0.9"/>
          <circle cx="54.95" cy="47.3" r="0.9"/>
          <circle cx="70.8" cy="38.71" r="0.9"/>
          <circle cx="65.62" cy="39.27" r="0.9"/>
          <circle cx="67.39" cy="35.6" r="0.9"/>
          <circle cx="58.5" cy="43.51" r="0.9"/>
          <circle cx="86.64" cy="28.91" r="0.9"/>
          <circle cx="78.7" cy="30.31" r="0.9"/>
          <circle cx="74.67" cy="31.56" r="0.9"/>
          <circle cx="51.55" cy="58.86" r="0.9"/>
          <circle cx="73.62" cy="32.18" r="0.9"/>
          <circle cx="65.89" cy="30.48" r="0.9"/>
          <circle cx="74.26" cy="35.48" r="0.9"/>
          <circle cx="62.33" cy="39.68" r="0.9"/>
          <circle cx="80.89" cy="32.32" r="0.9"/>
          <circle cx="64.88" cy="37.03" r="0.9"/>
          <circle cx="64.67" cy="29.92" r="0.9"/>
          <circle cx="57.95" cy="38.26" r="0.9"/>
          <circle cx="59.34" cy="34.49" r="0.9"/>
          <circle cx="53.86" cy="41.47" r="0.9"/>
          <circle cx="67.17" cy="27.22" r="0.9"/>
          <circle cx="80.03" cy="32.25" r="0.9"/>
          <circle cx="74.39" cy="37.51" r="0.9"/>
          <circle cx="59.57" cy="41.25" r="0.9"/>
          <circle cx="78.69" cy="30.58" r="0.9"/>
          <circle cx="40.74" cy="65.09" r="0.9"/>
          <circle cx="72.62" cy="50.84" r="0.9"/>
          <circle cx="84.06" cy="27.61" r="0.9"/>
          <circle cx="73.04" cy="39.11" r="0.9"/>
          <circle cx="73.78" cy="35.63" r="0.9"/>
          <circle cx="65.71" cy="35.79" r="0.9"/>
          <circle cx="73.1" cy="34.81" r="0.9"/>
          <circle cx="56.87" cy="37.76" r="0.9"/>
          <circle cx="70.69" cy="35.38" r="0.9"/>
          <circle cx="78.82" cy="32.69" r="0.9"/>
          <circle cx="50.12" cy="41.77" r="0.9"/>
          <circle cx="74.56" cy="37.09" r="0.9"/>
          <circle cx="49.61" cy="40.93" r="0.9"/>
          <circle cx="74.32" cy="28.28" r="0.9"/>
          <circle cx="73.09" cy="33.42" r="0.9"/>
          <circle cx="73.57" cy="31.35" r="0.9"/>
          <circle cx="56.35" cy="40.02" r="0.9"/>
          <circle cx="64.97" cy="32.83" r="0.9"/>
          <circle cx="75.14" cy="35.81" r="0.9"/>
          <circle cx="71" cy="31.8" r="0.9"/>
          <circle cx="48.52" cy="48.95" r="0.9"/>
          <circle cx="46.51" cy="44.01" r="0.9"/>
          <circle cx="59.31" cy="41.46" r="0.9"/>
          <circle cx="64.64" cy="40.21" r="0.9"/>
          <circle cx="70.56" cy="34.4" r="0.9"/>
          <circle cx="66.12" cy="40.56" r="0.9"/>
          <circle cx="78.96" cy="35.47" r="0.9"/>
          <circle cx="66.53" cy="39.21" r="0.9"/>
          <circle cx="56.09" cy="59.83" r="0.9"/>
          <circle cx="82.27" cy="24.41" r="0.9"/>
          <circle cx="74.92" cy="41.15" r="0.9"/>
          <circle cx="91.84" cy="19.38" r="0.9"/>
          <circle cx="74.65" cy="30.35" r="0.9"/>
          <circle cx="85.61" cy="34.49" r="0.9"/>
          <circle cx="61.94" cy="35.88" r="0.9"/>
          <circle cx="67.67" cy="37.45" r="0.9"/>
          <circle cx="65.8" cy="43" r="0.9"/>
          <circle cx="69.08" cy="37.43" r="0.9"/>
          <circle cx="72.65" cy="34.03" r="0.9"/>
          <circle cx="78.52" cy="34.31" r="0.9"/>
          <circle cx="84.51" cy="30.06" r="0.9"/>
          <circle cx="64.83" cy="42.16" r="0.9"/>
          <circle cx="78.17" cy="34.97" r="0.9"/>
          <circle cx="48.98" cy="37.5" r="0.9"/>
          <circle cx="68.52" cy="25.35" r="0.9"/>
          <circle cx="64.32" cy="39.55" r="0.9"/>
          <circle cx="83.6" cy="32.17" r="0.9"/>
          <circle cx="67.49" cy="37.05" r="0.9"/>
          <circle cx="61.45" cy="40.77" r="0.9"/>
          <circle cx="86.1" cy="31.77" r="0.9"/>
          <circle cx="76.37" cy="31.94" r="0.9"/>
          <circle cx="72.3" cy="30.84" r="0.9"/>
          <circle cx="60.21" cy="48.92" r="0.9"/>
          <circle cx="81.89" cy="32.71" r="0.9"/>
          <circle cx="85.52" cy="30.73" r="0.9"/>
          <circle cx="89.76" cy="34.22" r="0.9"/>
          <circle cx="79.67" cy="35.38" r="0.9"/>
          <circle cx="87.39" cy="28.95" r="0.9"/>
          <circle cx="77.28" cy="35.79" r="0.9"/>
          <circle cx="89.91" cy="29.35" r="0.9"/>
          <circle cx="75.2" cy="41.95" r="0.9"/>
          <circle cx="74.22" cy="33.81" r="0.9"/>
          <circle cx="90.26" cy="24.31" r="0.9"/>
          <circle cx="55.84" cy="41.39" r="0.9"/>
          <circle cx="67.4" cy="38.69" r="0.9"/>
          <circle cx="78.06" cy="34.87" r="0.9"/>
          <circle cx="61.17" cy="38.38" r="0.9"/>
          <circle cx="71.51" cy="34.53" r="0.9"/>
          <circle cx="96.37" cy="20.64" r="0.9"/>
          <circle cx="101.46" cy="19.29" r="0.9"/>
          <circle cx="73.62" cy="28.56" r="0.9"/>
          <circle cx="81.51" cy="26.78" r="0.9"/>
          <circle cx="75.85" cy="36.49" r="0.9"/>
          <circle cx="63.31" cy="37.88" r="0.9"/>
          <circle cx="83.21" cy="31.7" r="0.9"/>
          <circle cx="68.1" cy="39.69" r="0.9"/>
          <circle cx="40.43" cy="49.89" r="0.9"/>
          <circle cx="78.09" cy="27.89" r="0.9"/>
          <circle cx="66.86" cy="36.62" r="0.9"/>
          <circle cx="80.37" cy="32.06" r="0.9"/>
          <circle cx="87.05" cy="34.91" r="0.9"/>
          <circle cx="84.18" cy="24.62" r="0.9"/>
          <circle cx="86.95" cy="22.62" r="0.9"/>
          <circle cx="103.7" cy="23.96" r="0.9"/>
          <circle cx="83.44" cy="25.42" r="0.9"/>
          <circle cx="82.86" cy="37.5" r="0.9"/>
          <circle cx="65.17" cy="43.28" r="0.9"/>
          <circle cx="70.05" cy="33.02" r="0.9"/>
          <circle cx="64.61" cy="38.21" r="0.9"/>
          <circle cx="89" cy="26.2" r="0.9"/>
          <circle cx="74.8" cy="38.06" r="0.9"/>
          <circle cx="93.58" cy="27.67" r="0.9"/>
          <circle cx="82.2" cy="25.46" r="0.9"/>
          <circle cx="72.35" cy="25.67" r="0.9"/>
          <circle cx="81.74" cy="25.56" r="0.9"/>
          <circle cx="82.92" cy="31.96" r="0.9"/>
          <circle cx="76.42" cy="34.86" r="0.9"/>
          <circle cx="86.65" cy="27.64" r="0.9"/>
          <circle cx="69.34" cy="38.21" r="0.9"/>
          <circle cx="86.29" cy="32.15" r="0.9"/>
          <circle cx="81.01" cy="32.9" r="0.9"/>
          <circle cx="70.8" cy="33.4" r="0.9"/>
          <circle cx="68.93" cy="31.52" r="0.9"/>
          <circle cx="76.72" cy="31.94" r="0.9"/>
          <circle cx="88.22" cy="30.81" r="0.9"/>
          <circle cx="64.76" cy="35.39" r="0.9"/>
          <circle cx="67.92" cy="36.73" r="0.9"/>
          <circle cx="85.05" cy="26.73" r="0.9"/>
          <circle cx="82.31" cy="27.72" r="0.9"/>
          <circle cx="74.83" cy="32.98" r="0.9"/>
          <circle cx="81.75" cy="27.06" r="0.9"/>
          <circle cx="88.4" cy="27.22" r="0.9"/>
          <circle cx="77.84" cy="26.18" r="0.9"/>
          <circle cx="89.92" cy="26.79" r="0.9"/>
          <circle cx="98.23" cy="18.77" r="0.9"/>
          <circle cx="62.23" cy="36.83" r="0.9"/>
          <circle cx="47.71" cy="44.77" r="0.9"/>
          <circle cx="85.38" cy="28.74" r="0.9"/>
          <circle cx="79.88" cy="34.41" r="0.9"/>
          <circle cx="91.6" cy="28.54" r="0.9"/>
          <circle cx="80.62" cy="32.62" r="0.9"/>
          <circle cx="103.8" cy="20.91" r="0.9"/>
          <circle cx="83.57" cy="30.91" r="0.9"/>
          <circle cx="88.21" cy="34.98" r="0.9"/>
          <circle cx="65.02" cy="43.8" r="0.9"/>
          <circle cx="72.69" cy="33.54" r="0.9"/>
          <circle cx="72.97" cy="41.94" r="0.9"/>
          <circle cx="92.86" cy="23" r="0.9"/>
          <circle cx="75.53" cy="36.53" r="0.9"/>
          <circle cx="87.43" cy="24.85" r="0.9"/>
          <circle cx="80.57" cy="30.59" r="0.9"/>
          <circle cx="92.08" cy="22.74" r="0.9"/>
          <circle cx="93.36" cy="21.94" r="0.9"/>
          <circle cx="84.69" cy="27.41" r="0.9"/>
          <circle cx="67.16" cy="41.6" r="0.9"/>
          <circle cx="69.88" cy="34.46" r="0.9"/>
          <circle cx="75.5" cy="32.16" r="0.9"/>
          <circle cx="66.11" cy="39.22" r="0.9"/>
          <circle cx="87.82" cy="22.97" r="0.9"/>
          <circle cx="75.99" cy="30.33" r="0.9"/>
          <circle cx="74.97" cy="35.61" r="0.9"/>
          <circle cx="77.79" cy="29.18" r="0.9"/>
          <circle cx="99.29" cy="20.31" r="0.9"/>
          <circle cx="76.14" cy="31.89" r="0.9"/>
          <circle cx="83.63" cy="29.46" r="0.9"/>
          <circle cx="93.96" cy="21.81" r="0.9"/>
          <circle cx="90.21" cy="23.82" r="0.9"/>
          <circle cx="88.15" cy="32.63" r="0.9"/>
          <circle cx="101.2" cy="17.6" r="0.9"/>
          <circle cx="78.41" cy="37.24" r="0.9"/>
          <circle cx="80.61" cy="26.95" r="0.9"/>
          <circle cx="76.38" cy="33.91" r="0.9"/>
          <circle cx="69.6" cy="33.87" r="0.9"/>
          <circle cx="84.48" cy="25.33" r="0.9"/>
          <circle cx="71.05" cy="34.13" r="0.9"/>
          <circle cx="85.51" cy="30.46" r="0.9"/>
          <circle cx="74.75" cy="30.67" r="0.9"/>
          <circle cx="73.4" cy="33.76" r="0.9"/>
          <circle cx="77.69" cy="32.09" r="0.9"/>
          <circle cx="76.46" cy="30.72" r="0.9"/>
          <circle cx="81.6" cy="24.85" r="0.9"/>
          <circle cx="78.43" cy="30.68" r="0.9"/>
          <circle cx="88.09" cy="27.01" r="0.9"/>
          <circle cx="65.6" cy="37.95" r="0.9"/>
          <circle cx="79.05" cy="32.84" r="0.9"/>
          <circle cx="71.75" cy="32.39" r="0.9"/>
          <circle cx="73.33" cy="31.96" r="0.9"/>
          <circle cx="68.71" cy="33.57" r="0.9"/>
          <circle cx="91.43" cy="23.75" r="0.9"/>
          <circle cx="57.43" cy="38.84" r="0.9"/>
          <circle cx="60.44" cy="50.08" r="0.9"/>
          <circle cx="76.91" cy="24.98" r="0.9"/>
          <circle cx="66.15" cy="35.14" r="0.9"/>
          <circle cx="76.05" cy="32.97" r="0.9"/>
          <circle cx="74.5" cy="35.49" r="0.9"/>
          <circle cx="75.22" cy="32.26" r="0.9"/>
          <circle cx="85.17" cy="25.04" r="0.9"/>
          <circle cx="85.67" cy="28.8" r="0.9"/>
          <circle cx="78.75" cy="29.46" r="0.9"/>
          <circle cx="85.33" cy="30.2" r="0.9"/>
          <circle cx="79.61" cy="30.86" r="0.9"/>
          <circle cx="99.33" cy="25.01" r="0.9"/>
          <circle cx="88.16" cy="22.5" r="0.9"/>
          <circle cx="62.92" cy="31.26" r="0.9"/>
          <circle cx="73.93" cy="28.84" r="0.9"/>
          <circle cx="70.93" cy="33.63" r="0.9"/>
          <circle cx="73.8" cy="36.82" r="0.9"/>
          <circle cx="87.63" cy="31.26" r="0.9"/>
          <circle cx="81.24" cy="24.68" r="0.9"/>
          <circle cx="73.87" cy="32" r="0.9"/>
          <circle cx="60.66" cy="32.97" r="0.9"/>
          <circle cx="84.75" cy="30.19" r="0.9"/>
          <circle cx="65.52" cy="39.22" r="0.9"/>
          <circle cx="72.29" cy="27.8" r="0.9"/>
          <circle cx="66.98" cy="41.04" r="0.9"/>
          <circle cx="60.37" cy="38.3" r="0.9"/>
          <circle cx="69.37" cy="30.87" r="0.9"/>
          <circle cx="92.69" cy="26.19" r="0.9"/>
          <circle cx="97.58" cy="26.29" r="0.9"/>
          <circle cx="75.15" cy="37.54" r="0.9"/>
          <circle cx="79.42" cy="27.14" r="0.9"/>
          <circle cx="71.78" cy="38.06" r="0.9"/>
          <circle cx="62.43" cy="40.3" r="0.9"/>
          <circle cx="89.65" cy="26.41" r="0.9"/>
          <circle cx="70.35" cy="35.29" r="0.9"/>
          <circle cx="78.25" cy="29.12" r="0.9"/>
          <circle cx="82.15" cy="27.23" r="0.9"/>
          <circle cx="78.45" cy="29.13" r="0.9"/>
          <circle cx="64.97" cy="38.31" r="0.9"/>
          <circle cx="69.21" cy="34.12" r="0.9"/>
          <circle cx="80.89" cy="33.98" r="0.9"/>
          <circle cx="76.54" cy="28.97" r="0.9"/>
          <circle cx="83.56" cy="30.72" r="0.9"/>
          <circle cx="67.46" cy="39.41" r="0.9"/>
          <circle cx="77.24" cy="36.71" r="0.9"/>
          <circle cx="67.61" cy="30.35" r="0.9"/>
          <circle cx="73.85" cy="39.9" r="0.9"/>
          <circle cx="86.37" cy="27.33" r="0.9"/>
          <circle cx="85.6" cy="28.88" r="0.9"/>
          <circle cx="92.85" cy="27.49" r="0.9"/>
          <circle cx="82.65" cy="32.97" r="0.9"/>
          <circle cx="92.61" cy="25.33" r="0.9"/>
          <circle cx="99.05" cy="22.62" r="0.9"/>
          <circle cx="81.7" cy="34.6" r="0.9"/>
          <circle cx="82.63" cy="32.23" r="0.9"/>
          <circle cx="99.51" cy="21.5" r="0.9"/>
          <circle cx="92.66" cy="25.76" r="0.9"/>
          <circle cx="75.21" cy="35.05" r="0.9"/>
          <circle cx="78.76" cy="32.08" r="0.9"/>
          <circle cx="69.79" cy="35.76" r="0.9"/>
          <circle cx="91.05" cy="28.07" r="0.9"/>
          <circle cx="61.18" cy="44.99" r="0.9"/>
          <circle cx="74.51" cy="30.21" r="0.9"/>
          <circle cx="76.32" cy="32.31" r="0.9"/>
          <circle cx="72.09" cy="32.56" r="0.9"/>
          <circle cx="67.06" cy="42.28" r="0.9"/>
          <circle cx="82.17" cy="32" r="0.9"/>
          <circle cx="70.23" cy="35.49" r="0.9"/>
          <circle cx="79.8" cy="35.83" r="0.9"/>
          <circle cx="79.72" cy="23.46" r="0.9"/>
          <circle cx="92.03" cy="22.01" r="0.9"/>
          <circle cx="76.45" cy="33.1" r="0.9"/>
          <circle cx="89.59" cy="31" r="0.9"/>
          <circle cx="76.51" cy="39.81" r="0.9"/>
          <circle cx="77.74" cy="37.3" r="0.9"/>
          <circle cx="69.74" cy="37.71" r="0.9"/>
          <circle cx="84.26" cy="35.63" r="0.9"/>
          <circle cx="78.35" cy="31.82" r="0.9"/>
          <circle cx="55.03" cy="42.36" r="0.9"/>
          <circle cx="80.53" cy="32.53" r="0.9"/>
          <circle cx="67.26" cy="33.93" r="0.9"/>
          <circle cx="95.24" cy="29.2" r="0.9"/>
          <circle cx="99.59" cy="23" r="0.9"/>
          <circle cx="92.76" cy="25.13" r="0.9"/>
          <circle cx="92.44" cy="25.39" r="0.9"/>
          <circle cx="91.07" cy="20.85" r="0.9"/>
          <circle cx="77.2" cy="27.5" r="0.9"/>
          <circle cx="76.45" cy="44.59" r="0.9"/>
          <circle cx="78.28" cy="35.91" r="0.9"/>
          <circle cx="77.34" cy="30.03" r="0.9"/>
          <circle cx="82.57" cy="29.99" r="0.9"/>
          <circle cx="73.95" cy="27.7" r="0.9"/>
          <circle cx="68.41" cy="39.24" r="0.9"/>
          <circle cx="83.61" cy="31.43" r="0.9"/>
          <circle cx="77.8" cy="33.62" r="0.9"/>
          <circle cx="75.66" cy="36.38" r="0.9"/>
          <circle cx="85.36" cy="29.68" r="0.9"/>
          <circle cx="97.48" cy="28.33" r="0.9"/>
          <circle cx="75.47" cy="33.62" r="0.9"/>
          <circle cx="77.27" cy="30.87" r="0.9"/>
          <circle cx="70.97" cy="30.61" r="0.9"/>
          <circle cx="69.27" cy="29.77" r="0.9"/>
          <circle cx="78.67" cy="24.44" r="0.9"/>
          <circle cx="87.22" cy="28.78" r="0.9"/>
          <circle cx="93.21" cy="23.8" r="0.9"/>
          <circle cx="71.64" cy="36.17" r="0.9"/>
          <circle cx="70.91" cy="31.51" r="0.9"/>
          <circle cx="61.42" cy="42.44" r="0.9"/>
          <circle cx="70.8" cy="36.57" r="0.9"/>
          <circle cx="75.67" cy="44.34" r="0.9"/>
          <circle cx="75.01" cy="29.61" r="0.9"/>
          <circle cx="66.65" cy="40.32" r="0.9"/>
          <circle cx="88.21" cy="25.85" r="0.9"/>
          <circle cx="89.92" cy="22.87" r="0.9"/>
          <circle cx="82.98" cy="24.34" r="0.9"/>
          <circle cx="75.45" cy="30.57" r="0.9"/>
          <circle cx="64.02" cy="37.81" r="0.9"/>
          <circle cx="78.82" cy="36.64" r="0.9"/>
          <circle cx="80.09" cy="32.31" r="0.9"/>
          <circle cx="72.19" cy="32.17" r="0.9"/>
          <circle cx="80.76" cy="30.49" r="0.9"/>
          <circle cx="63.1" cy="41.01" r="0.9"/>
          <circle cx="73.67" cy="33.51" r="0.9"/>
          <circle cx="67.14" cy="34.63" r="0.9"/>
          <circle cx="57.47" cy="48.54" r="0.9"/>
          <circle cx="65.44" cy="35.76" r="0.9"/>
          <circle cx="84.87" cy="27.16" r="0.9"/>
          <circle cx="85.13" cy="26.51" r="0.9"/>
          <circle cx="82.83" cy="30.88" r="0.9"/>
          <circle cx="77.69" cy="25.37" r="0.9"/>
          <circle cx="82.63" cy="29.07" r="0.9"/>
          <circle cx="82.19" cy="27.69" r="0.9"/>
          <circle cx="80.6" cy="27.22" r="0.9"/>
          <circle cx="79.08" cy="29.5" r="0.9"/>
          <circle cx="87.21" cy="30.09" r="0.9"/>
          <circle cx="87.68" cy="24.1" r="0.9"/>
          <circle cx="81.39" cy="30.49" r="0.9"/>
          <circle cx="81.15" cy="31.78" r="0.9"/>
          <circle cx="91.84" cy="25.79" r="0.9"/>
          <circle cx="84.64" cy="32.27" r="0.9"/>
          <circle cx="91.43" cy="26.68" r="0.9"/>
          <circle cx="68.56" cy="34" r="0.9"/>
          <circle cx="65.03" cy="39.53" r="0.9"/>
          <circle cx="69.17" cy="34.14" r="0.9"/>
          <circle cx="71.42" cy="40.92" r="0.9"/>
          <circle cx="84.76" cy="30.64" r="0.9"/>
          <circle cx="70.74" cy="32.34" r="0.9"/>
          <circle cx="74.68" cy="27.22" r="0.9"/>
          <circle cx="86.44" cy="30.41" r="0.9"/>
          <circle cx="63.2" cy="38.07" r="0.9"/>
          <circle cx="68.07" cy="40.53" r="0.9"/>
          <circle cx="65.21" cy="38.85" r="0.9"/>
          <circle cx="71.29" cy="39.07" r="0.9"/>
          <circle cx="64.83" cy="35.62" r="0.9"/>
          <circle cx="66.12" cy="33.15" r="0.9"/>
          <circle cx="87.59" cy="33.94" r="0.9"/>
          <circle cx="83.25" cy="26.39" r="0.9"/>
          <circle cx="86.2" cy="37.86" r="0.9"/>
          <circle cx="70.45" cy="33.13" r="0.9"/>
          <circle cx="75.46" cy="36.58" r="0.9"/>
          <circle cx="79.7" cy="25.87" r="0.9"/>
          <circle cx="73.82" cy="35.79" r="0.9"/>
          <circle cx="69.73" cy="34.51" r="0.9"/>
          <circle cx="62.56" cy="33.34" r="0.9"/>
          <circle cx="77.68" cy="27.67" r="0.9"/>
          <circle cx="72.19" cy="37.76" r="0.9"/>
          <circle cx="78.11" cy="36.73" r="0.9"/>
          <circle cx="75.82" cy="35.74" r="0.9"/>
          <circle cx="77.34" cy="34.3" r="0.9"/>
          <circle cx="85.3" cy="31.21" r="0.9"/>
          <circle cx="79.16" cy="27.28" r="0.9"/>
          <circle cx="88.93" cy="34.12" r="0.9"/>
          <circle cx="87.76" cy="34.87" r="0.9"/>
          <circle cx="69.93" cy="37.19" r="0.9"/>
          <circle cx="84.85" cy="32.95" r="0.9"/>
          <circle cx="64.38" cy="38.7" r="0.9"/>
          <circle cx="90.82" cy="26.54" r="0.9"/>
          <circle cx="97.08" cy="24.33" r="0.9"/>
          <circle cx="82.37" cy="28.6" r="0.9"/>
          <circle cx="78.38" cy="29.64" r="0.9"/>
          <circle cx="85.85" cy="30.05" r="0.9"/>
          <circle cx="80.82" cy="30.52" r="0.9"/>
          <circle cx="72.13" cy="35.33" r="0.9"/>
          <circle cx="88.02" cy="28.18" r="0.9"/>
          <circle cx="86.56" cy="24.76" r="0.9"/>
          <circle cx="96.81" cy="31.89" r="0.9"/>
          <circle cx="72.59" cy="36.96" r="0.9"/>
          <circle cx="91.17" cy="27.91" r="0.9"/>
          <circle cx="77.69" cy="45.46" r="0.9"/>
          <circle cx="89.1" cy="27.78" r="0.9"/>
          <circle cx="96.68" cy="21.32" r="0.9"/>
          <circle cx="81.43" cy="32.95" r="0.9"/>
          <circle cx="74.17" cy="29.55" r="0.9"/>
          <circle cx="75.31" cy="36.08" r="0.9"/>
          <circle cx="80.09" cy="28.66" r="0.9"/>
          <circle cx="77.17" cy="30.74" r="0.9"/>
          <circle cx="71.38" cy="44.57" r="0.9"/>
          <circle cx="78.96" cy="29.89" r="0.9"/>
          <circle cx="57.54" cy="40.42" r="0.9"/>
          <circle cx="82.54" cy="32.51" r="0.9"/>
          <circle cx="82.4" cy="30.6" r="0.9"/>
          <circle cx="68.06" cy="37.55" r="0.9"/>
          <circle cx="60.19" cy="43.18" r="0.9"/>
          <circle cx="86.79" cy="28.97" r="0.9"/>
          <circle cx="56.7" cy="50.77" r="0.9"/>
          <circle cx="86.17" cy="24.07" r="0.9"/>
          <circle cx="62.67" cy="39.39" r="0.9"/>
          <circle cx="63.57" cy="45.56" r="0.9"/>
          <circle cx="55.96" cy="42.1" r="0.9"/>
          <circle cx="87.81" cy="25.56" r="0.9"/>
          <circle cx="90.14" cy="31.65" r="0.9"/>
          <circle cx="90.67" cy="24.67" r="0.9"/>
          <circle cx="73.87" cy="29.9" r="0.9"/>
          <circle cx="93.18" cy="23.43" r="0.9"/>
          <circle cx="92.19" cy="29.37" r="0.9"/>
          <circle cx="98.67" cy="19.5" r="0.9"/>
          <circle cx="90.83" cy="25.83" r="0.9"/>
          <circle cx="52" cy="41.77" r="0.9"/>
          <circle cx="79.09" cy="30.55" r="0.9"/>
          <circle cx="81.27" cy="35.03" r="0.9"/>
          <circle cx="81.68" cy="33.79" r="0.9"/>
          <circle cx="92.88" cy="32.87" r="0.9"/>
          <circle cx="69.77" cy="40.6" r="0.9"/>
          <circle cx="68.84" cy="32.76" r="0.9"/>
          <circle cx="84.06" cy="28.71" r="0.9"/>
          <circle cx="85.93" cy="41.57" r="0.9"/>
          <circle cx="90.64" cy="20.57" r="0.9"/>
          <circle cx="78.96" cy="25.58" r="0.9"/>
          <circle cx="74.78" cy="31.8" r="0.9"/>
          <circle cx="87.12" cy="24.41" r="0.9"/>
          <circle cx="71.6" cy="36.07" r="0.9"/>
          <circle cx="83.93" cy="27" r="0.9"/>
          <circle cx="70.2" cy="31.45" r="0.9"/>
          <circle cx="76.25" cy="27.1" r="0.9"/>
          <circle cx="76.27" cy="34.71" r="0.9"/>
          <circle cx="60.28" cy="47.46" r="0.9"/>
          <circle cx="77.52" cy="25.81" r="0.9"/>
          <circle cx="66.96" cy="39.16" r="0.9"/>
          <circle cx="80.99" cy="30.78" r="0.9"/>
          <circle cx="60.6" cy="36.72" r="0.9"/>
          <circle cx="77.4" cy="38.32" r="0.9"/>
          <circle cx="45.28" cy="48.62" r="0.9"/>
          <circle cx="82.3" cy="31.73" r="0.9"/>
          <circle cx="71.27" cy="28.76" r="0.9"/>
          <circle cx="99.59" cy="27.98" r="0.9"/>
          <circle cx="94.3" cy="25.29" r="0.9"/>
          <circle cx="71.48" cy="38.31" r="0.9"/>
          <circle cx="81.73" cy="29.15" r="0.9"/>
          <circle cx="89.11" cy="22.3" r="0.9"/>
          <circle cx="79.79" cy="26.38" r="0.9"/>
          <circle cx="79.98" cy="31.72" r="0.9"/>
          <circle cx="85.26" cy="26.69" r="0.9"/>
          <circle cx="65.54" cy="40.03" r="0.9"/>
          <circle cx="90.9" cy="26.8" r="0.9"/>
          <circle cx="81.49" cy="35.87" r="0.9"/>
          <circle cx="76.53" cy="36.53" r="0.9"/>
          <circle cx="78.23" cy="29.24" r="0.9"/>
          <circle cx="77.22" cy="33.6" r="0.9"/>
          <circle cx="67.64" cy="39.58" r="0.9"/>
          <circle cx="75.23" cy="29.61" r="0.9"/>
          <circle cx="81.52" cy="35.62" r="0.9"/>
          <circle cx="84.45" cy="33.94" r="0.9"/>
          <circle cx="62.97" cy="35.5" r="0.9"/>
          <circle cx="79.59" cy="32.62" r="0.9"/>
          <circle cx="87.7" cy="30.57" r="0.9"/>
          <circle cx="71.84" cy="36.08" r="0.9"/>
          <circle cx="72.39" cy="38.97" r="0.9"/>
          <circle cx="83.55" cy="32.72" r="0.9"/>
          <circle cx="93.68" cy="30.28" r="0.9"/>
          <circle cx="90.43" cy="29.75" r="0.9"/>
          <circle cx="83.46" cy="28.43" r="0.9"/>
          <circle cx="86.95" cy="34.27" r="0.9"/>
          <circle cx="80.93" cy="37.15" r="0.9"/>
          <circle cx="67.85" cy="40.44" r="0.9"/>
          <circle cx="77.13" cy="33.36" r="0.9"/>
          <circle cx="75.51" cy="37.5" r="0.9"/>
          <circle cx="88.35" cy="27.49" r="0.9"/>
          <circle cx="67.7" cy="35.57" r="0.9"/>
          <circle cx="94.28" cy="27.91" r="0.9"/>
          <circle cx="64.11" cy="36.14" r="0.9"/>
          <circle cx="71.55" cy="36.35" r="0.9"/>
          <circle cx="60.19" cy="49.68" r="0.9"/>
          <circle cx="68.08" cy="32.4" r="0.9"/>
          <circle cx="71.66" cy="38.93" r="0.9"/>
          <circle cx="73.45" cy="31.92" r="0.9"/>
          <circle cx="78.71" cy="33.48" r="0.9"/>
          <circle cx="67.42" cy="38.25" r="0.9"/>
          <circle cx="87.77" cy="27.9" r="0.9"/>
          <circle cx="72.1" cy="26.12" r="0.9"/>
          <circle cx="78.65" cy="24.01" r="0.9"/>
          <circle cx="68.07" cy="34.46" r="0.9"/>
          <circle cx="99.73" cy="37.42" r="0.9"/>
          <circle cx="89.26" cy="25.2" r="0.9"/>
          <circle cx="88.8" cy="26.36" r="0.9"/>
          <circle cx="81.24" cy="31.2" r="0.9"/>
          <circle cx="72.66" cy="36.98" r="0.9"/>
          <circle cx="75.98" cy="32.5" r="0.9"/>
          <circle cx="59" cy="36.87" r="0.9"/>
          <circle cx="77.93" cy="24.88" r="0.9"/>
          <circle cx="86.3" cy="31.08" r="0.9"/>
          <circle cx="84.54" cy="28.86" r="0.9"/>
          <circle cx="41.85" cy="50.59" r="0.9"/>
          <circle cx="70.37" cy="33.06" r="0.9"/>
          <circle cx="73.01" cy="36.14" r="0.9"/>
          <circle cx="92.9" cy="21.66" r="0.9"/>
          <circle cx="65.67" cy="30.46" r="0.9"/>
          <circle cx="84.31" cy="29.44" r="0.9"/>
          <circle cx="76.02" cy="26.3" r="0.9"/>
          <circle cx="64.28" cy="29.05" r="0.9"/>
          <circle cx="64.47" cy="45.92" r="0.9"/>
          <circle cx="71.7" cy="35.63" r="0.9"/>
          <circle cx="89.7" cy="30.21" r="0.9"/>
          <circle cx="62.44" cy="44.95" r="0.9"/>
          <circle cx="85.94" cy="30.25" r="0.9"/>
          <circle cx="92.61" cy="28.67" r="0.9"/>
          <circle cx="93.18" cy="20.9" r="0.9"/>
          <circle cx="76.52" cy="40.5" r="0.9"/>
          <circle cx="86.2" cy="31.27" r="0.9"/>
          <circle cx="89.44" cy="29.66" r="0.9"/>
          <circle cx="85.99" cy="33.93" r="0.9"/>
          <circle cx="65.57" cy="35.44" r="0.9"/>
          <circle cx="80.02" cy="29.9" r="0.9"/>
          <circle cx="68.14" cy="41.36" r="0.9"/>
          <circle cx="62.12" cy="44.96" r="0.9"/>
          <circle cx="78.64" cy="43.14" r="0.9"/>
          <circle cx="82.43" cy="34.49" r="0.9"/>
          <circle cx="68.4" cy="40.68" r="0.9"/>
          <circle cx="78.86" cy="36.44" r="0.9"/>
          <circle cx="66.98" cy="35.87" r="0.9"/>
          <circle cx="72.15" cy="40.33" r="0.9"/>
          <circle cx="86.71" cy="26.15" r="0.9"/>
          <circle cx="65.06" cy="36.53" r="0.9"/>
          <circle cx="70.08" cy="32.06" r="0.9"/>
          <circle cx="78.13" cy="33.9" r="0.9"/>
          <circle cx="89.79" cy="22.3" r="0.9"/>
          <circle cx="85.97" cy="22.55" r="0.9"/>
          <circle cx="82.58" cy="26.09" r="0.9"/>
          <circle cx="76.04" cy="38.42" r="0.9"/>
          <circle cx="86.88" cy="34.64" r="0.9"/>
          <circle cx="82.96" cy="34.44" r="0.9"/>
          <circle cx="87.41" cy="43.54" r="0.9"/>
          <circle cx="71.51" cy="37.07" r="0.9"/>
          <circle cx="80.74" cy="32.08" r="0.9"/>
          <circle cx="75.13" cy="28.84" r="0.9"/>
          <circle cx="67.62" cy="39.12" r="0.9"/>
          <circle cx="73.94" cy="38.06" r="0.9"/>
          <circle cx="86.45" cy="30.14" r="0.9"/>
          <circle cx="76.81" cy="33.36" r="0.9"/>
          <circle cx="84" cy="34.42" r="0.9"/>
          <circle cx="73.21" cy="30.37" r="0.9"/>
          <circle cx="70.92" cy="40.66" r="0.9"/>
          <circle cx="75.87" cy="39.06" r="0.9"/>
          <circle cx="70.97" cy="45.54" r="0.9"/>
          <circle cx="88.7" cy="26" r="0.9"/>
          <circle cx="89.77" cy="26.45" r="0.9"/>
          <circle cx="75.09" cy="37.52" r="0.9"/>
          <circle cx="82.91" cy="35.38" r="0.9"/>
          <circle cx="69.59" cy="35.92" r="0.9"/>
          <circle cx="60.98" cy="44.81" r="0.9"/>
          <circle cx="65.73" cy="35.18" r="0.9"/>
          <circle cx="68.15" cy="32.72" r="0.9"/>
          <circle cx="82.42" cy="28.86" r="0.9"/>
          <circle cx="83.04" cy="25.24" r="0.9"/>
          <circle cx="73.74" cy="32.67" r="0.9"/>
          <circle cx="72.07" cy="39.94" r="0.9"/>
          <circle cx="72.76" cy="39.5" r="0.9"/>
          <circle cx="95.37" cy="22.75" r="0.9"/>
          <circle cx="90.54" cy="25.32" r="0.9"/>
          <circle cx="106.63" cy="28.5" r="0.9"/>
          <circle cx="84.32" cy="45.47" r="0.9"/>
          <circle cx="87.21" cy="28.92" r="0.9"/>
          <circle cx="96.32" cy="30.6" r="0.9"/>
          <circle cx="96.67" cy="31.31" r="0.9"/>
          <circle cx="85.25" cy="27.46" r="0.9"/>
          <circle cx="84.96" cy="27.21" r="0.9"/>
          <circle cx="88.64" cy="25.11" r="0.9"/>
          <circle cx="67.61" cy="40.33" r="0.9"/>
          <circle cx="79.66" cy="27.61" r="0.9"/>
          <circle cx="88.64" cy="26.69" r="0.9"/>
          <circle cx="89.69" cy="29.56" r="0.9"/>
          <circle cx="82.65" cy="27.41" r="0.9"/>
          <circle cx="71.14" cy="37.36" r="0.9"/>
          <circle cx="72.24" cy="30.97" r="0.9"/>
          <circle cx="63.47" cy="34.88" r="0.9"/>
          <circle cx="78.93" cy="29.46" r="0.9"/>
          <circle cx="73.98" cy="31.04" r="0.9"/>
          <circle cx="72.9" cy="37.37" r="0.9"/>
          <circle cx="75.1" cy="34.09" r="0.9"/>
          <circle cx="70.7" cy="40.38" r="0.9"/>
          <circle cx="83.75" cy="31.29" r="0.9"/>
          <circle cx="79.6" cy="31.13" r="0.9"/>
          <circle cx="55.8" cy="36.89" r="0.9"/>
          <circle cx="69.43" cy="34.71" r="0.9"/>
          <circle cx="71.05" cy="33.47" r="0.9"/>
          <circle cx="83.95" cy="31.16" r="0.9"/>
          <circle cx="84.45" cy="29.98" r="0.9"/>
          <circle cx="69.81" cy="38.44" r="0.9"/>
          <circle cx="96.37" cy="24.19" r="0.9"/>
          <circle cx="79.28" cy="41.45" r="0.9"/>
          <circle cx="95.25" cy="19.6" r="0.9"/>
          <circle cx="76.77" cy="34.06" r="0.9"/>
          <circle cx="64.84" cy="40.17" r="0.9"/>
          <circle cx="74.93" cy="33.5" r="0.9"/>
          <circle cx="77.62" cy="31.25" r="0.9"/>
          <circle cx="72.38" cy="38.83" r="0.9"/>
          <circle cx="73.01" cy="33.16" r="0.9"/>
          <circle cx="66.81" cy="39.51" r="0.9"/>
          <circle cx="69.01" cy="32.58" r="0.9"/>
          <circle cx="77.19" cy="25.57" r="0.9"/>
          <circle cx="66.68" cy="37.02" r="0.9"/>
          <circle cx="56.08" cy="44.06" r="0.9"/>
          <circle cx="74.99" cy="34.48" r="0.9"/>
          <circle cx="63.36" cy="38.07" r="0.9"/>
          <circle cx="69.49" cy="36.46" r="0.9"/>
          <circle cx="88.15" cy="24.45" r="0.9"/>
          <circle cx="69.39" cy="39.89" r="0.9"/>
          <circle cx="75.92" cy="35.04" r="0.9"/>
          <circle cx="91.02" cy="32.03" r="0.9"/>
          <circle cx="74" cy="40.12" r="0.9"/>
          <circle cx="70.47" cy="36.29" r="0.9"/>
          <circle cx="65.14" cy="41.2" r="0.9"/>
          <circle cx="78.31" cy="34.64" r="0.9"/>
          <circle cx="71.68" cy="39.24" r="0.9"/>
          <circle cx="70.69" cy="34.83" r="0.9"/>
          <circle cx="52.48" cy="49.83" r="0.9"/>
          <circle cx="87.61" cy="27.84" r="0.9"/>
          <circle cx="74.07" cy="35.52" r="0.9"/>
          <circle cx="74.19" cy="40.61" r="0.9"/>
          <circle cx="65.86" cy="38.95" r="0.9"/>
          <circle cx="79.45" cy="31.98" r="0.9"/>
          <circle cx="73.63" cy="37.32" r="0.9"/>
          <circle cx="72.73" cy="33.23" r="0.9"/>
          <circle cx="81.26" cy="32.93" r="0.9"/>
          <circle cx="91.84" cy="27.99" r="0.9"/>
          <circle cx="83.01" cy="32.15" r="0.9"/>
          <circle cx="77.19" cy="27.61" r="0.9"/>
          <circle cx="70.31" cy="40.38" r="0.9"/>
          <circle cx="67.73" cy="32.57" r="0.9"/>
          <circle cx="58.53" cy="41.35" r="0.9"/>
          <circle cx="87.07" cy="27.15" r="0.9"/>
          <circle cx="61.99" cy="43.34" r="0.9"/>
          <circle cx="62.25" cy="29.28" r="0.9"/>
          <circle cx="69.93" cy="29.1" r="0.9"/>
          <circle cx="61.38" cy="37.16" r="0.9"/>
          <circle cx="82.77" cy="24.7" r="0.9"/>
          <circle cx="69.03" cy="26.42" r="0.9"/>
          <circle cx="65.45" cy="29.8" r="0.9"/>
          <circle cx="88.63" cy="21.66" r="0.9"/>
          <circle cx="67.09" cy="38.99" r="0.9"/>
          <circle cx="65.1" cy="31.95" r="0.9"/>
          <circle cx="63.16" cy="30.48" r="0.9"/>
          <circle cx="76.39" cy="37.39" r="0.9"/>
          <circle cx="71.98" cy="28.65" r="0.9"/>
          <circle cx="60.27" cy="31.05" r="0.9"/>
          <circle cx="66.89" cy="33.01" r="0.9"/>
          <circle cx="65.68" cy="45.93" r="0.9"/>
          <circle cx="61.77" cy="40.73" r="0.9"/>
          <circle cx="59.14" cy="39.02" r="0.9"/>
          <circle cx="65.7" cy="35.52" r="0.9"/>
          <circle cx="82.54" cy="30.24" r="0.9"/>
          <circle cx="67.89" cy="27.14" r="0.9"/>
          <circle cx="53.47" cy="39.52" r="0.9"/>
          <circle cx="62.22" cy="40.86" r="0.9"/>
          <circle cx="59.14" cy="36.8" r="0.9"/>
          <circle cx="60.9" cy="43.65" r="0.9"/>
          <circle cx="65.8" cy="26.62" r="0.9"/>
          <circle cx="85.59" cy="24.54" r="0.9"/>
          <circle cx="79.26" cy="35.8" r="0.9"/>
          <circle cx="94.69" cy="19.8" r="0.9"/>
          <circle cx="83.43" cy="33.51" r="0.9"/>
          <circle cx="69.74" cy="37.47" r="0.9"/>
          <circle cx="91.15" cy="24.51" r="0.9"/>
          <circle cx="77.9" cy="29.33" r="0.9"/>
          <circle cx="80.44" cy="29.45" r="0.9"/>
          <circle cx="62.96" cy="31.27" r="0.9"/>
          <circle cx="70.32" cy="34.15" r="0.9"/>
          <circle cx="58.47" cy="42.63" r="0.9"/>
          <circle cx="65.96" cy="41.49" r="0.9"/>
          <circle cx="78.04" cy="34.29" r="0.9"/>
          <circle cx="74.39" cy="33.96" r="0.9"/>
          <circle cx="69.48" cy="36.24" r="0.9"/>
          <circle cx="70.56" cy="35.83" r="0.9"/>
          <circle cx="76.18" cy="37.87" r="0.9"/>
          <circle cx="82.83" cy="30.72" r="0.9"/>
          <circle cx="72.26" cy="41.47" r="0.9"/>
          <circle cx="62.72" cy="43.02" r="0.9"/>
          <circle cx="87.93" cy="37.65" r="0.9"/>
          <circle cx="83" cy="39.1" r="0.9"/>
          <circle cx="85.22" cy="31.2" r="0.9"/>
          <circle cx="77.34" cy="39.16" r="0.9"/>
          <circle cx="82.08" cy="31.94" r="0.9"/>
          <circle cx="59.79" cy="50.05" r="0.9"/>
          <circle cx="100.84" cy="29.15" r="0.9"/>
          <circle cx="54.35" cy="46.99" r="0.9"/>
          <circle cx="65.06" cy="40.41" r="0.9"/>
          <circle cx="62.18" cy="40.97" r="0.9"/>
          <circle cx="55.38" cy="51.03" r="0.9"/>
          <circle cx="71.55" cy="35.15" r="0.9"/>
          <circle cx="61.17" cy="43.14" r="0.9"/>
          <circle cx="83.3" cy="33.67" r="0.9"/>
          <circle cx="78.58" cy="32.88" r="0.9"/>
          <circle cx="72.28" cy="37.12" r="0.9"/>
          <circle cx="84.13" cy="36.5" r="0.9"/>
          <circle cx="88.7" cy="34.79" r="0.9"/>
          <circle cx="87.5" cy="34.31" r="0.9"/>
          <circle cx="79.84" cy="34.59" r="0.9"/>
          <circle cx="70.93" cy="40.83" r="0.9"/>
          <circle cx="88.29" cy="31.81" r="0.9"/>
          <circle cx="62.06" cy="39.7" r="0.9"/>
          <circle cx="77.45" cy="34.6" r="0.9"/>
          <circle cx="60.09" cy="42.85" r="0.9"/>
          <circle cx="87.05" cy="28.08" r="0.9"/>
          <circle cx="60.2" cy="41.78" r="0.9"/>
          <circle cx="89.26" cy="27.1" r="0.9"/>
          <circle cx="60.15" cy="39.57" r="0.9"/>
          <circle cx="65.71" cy="33.83" r="0.9"/>
          <circle cx="68.22" cy="37.4" r="0.9"/>
          <circle cx="80.38" cy="40.09" r="0.9"/>
          <circle cx="69.18" cy="39.22" r="0.9"/>
          <circle cx="66.41" cy="37.54" r="0.9"/>
          <circle cx="66.86" cy="37.41" r="0.9"/>
          <circle cx="64.21" cy="39.61" r="0.9"/>
          <circle cx="83.29" cy="28.18" r="0.9"/>
          <circle cx="56.4" cy="42.71" r="0.9"/>
          <circle cx="81.56" cy="34.76" r="0.9"/>
          <circle cx="77.75" cy="31.3" r="0.9"/>
          <circle cx="92.04" cy="30.12" r="0.9"/>
          <circle cx="69.75" cy="45.48" r="0.9"/>
          <circle cx="72.06" cy="34.31" r="0.9"/>
          <circle cx="94.3" cy="36.71" r="0.9"/>
          <circle cx="87.14" cy="27.44" r="0.9"/>
          <circle cx="70.35" cy="45.38" r="0.9"/>
          <circle cx="68.44" cy="33.05" r="0.9"/>
          <circle cx="87.7" cy="29.69" r="0.9"/>
          <circle cx="90.37" cy="25.28" r="0.9"/>
          <circle cx="86.8" cy="33" r="0.9"/>
          <circle cx="74.89" cy="38.97" r="0.9"/>
          <circle cx="86.32" cy="35.69" r="0.9"/>
          <circle cx="85.64" cy="30.25" r="0.9"/>
          <circle cx="93.95" cy="25.35" r="0.9"/>
          <circle cx="84.02" cy="34.07" r="0.9"/>
          <circle cx="89.5" cy="26.41" r="0.9"/>
          <circle cx="77.2" cy="40.46" r="0.9"/>
        </g>
      </g>
      <g stroke-width="0.3" fill="#000000" fill-opacity="0.000" class="geometry" stroke-dasharray="none" stroke="#008000" id="fig-d5cfd8d96d3948619e0cf65364369470-element-16">
        <path fill="none" d="M26.91,72.55 L 33.41 60.33 35.91 57.26 36.12 57.04 40.08 53.23 40.42 52.94 40.43 52.93 40.74 52.67 40.79 52.63 40.9 52.55 41.79 51.83 41.85 51.78 42.19 51.51 42.33 51.41 43.05 50.86 43.51 50.52 44.64 49.7 44.72 49.64 45.13 49.35 45.28 49.25 45.38 49.18 45.98 48.76 46.51 48.4 46.61 48.33 46.64 48.31 47.71 47.6 47.86 47.5 47.95 47.44 47.98 47.42 48.04 47.38 48.52 47.07 48.98 46.77 48.98 46.77 49.1 46.69 49.61 46.36 49.99 46.13 50.12 46.04 50.29 45.94 50.87 45.57 51.12 45.42 51.21 45.36 51.55 45.15 52 44.88 52.03 44.86 52.05 44.85 52.48 44.59 52.68 44.46 52.97 44.29 53.24 44.13 53.46 44 53.47 43.99 53.58 43.93 53.64 43.89 53.86 43.76 53.92 43.73 53.93 43.72 54.19 43.56 54.3 43.5 54.35 43.47 54.35 43.47 54.41 43.43 54.5 43.38 54.51 43.38 54.58 43.33 54.71 43.26 54.71 43.26 54.88 43.16 54.95 43.12 54.96 43.11 54.96 43.11 55.03 43.07 55.13 43.01 55.31 42.91 55.37 42.88 55.38 42.87 55.39 42.87 55.8 42.63 55.83 42.62 55.84 42.61 55.85 42.6 55.96 42.54 55.97 42.54 56.08 42.47 56.09 42.46 56.13 42.44 56.26 42.37 56.35 42.31 56.4 42.29 56.48 42.25 56.59 42.18 56.7 42.12 56.87 42.03 56.89 42.01 57.02 41.94 57.02 41.94 57.16 41.86 57.17 41.86 57.19 41.85 57.3 41.79 57.33 41.77 57.43 41.71 57.47 41.69 57.49 41.68 57.51 41.67 57.54 41.65 57.57 41.64 57.61 41.61 57.64 41.6 57.64 41.6 57.67 41.58 57.67 41.58 57.8 41.51 57.9 41.45 57.94 41.44 57.95 41.43 58.2 41.29 58.21 41.29 58.31 41.24 58.34 41.22 58.38 41.2 58.47 41.15 58.5 41.13 58.53 41.11 58.59 41.08 58.66 41.04 58.87 40.93 58.91 40.91 58.95 40.89 58.95 40.89 58.98 40.88 58.99 40.87 59 40.86 59.01 40.86 59.14 40.79 59.14 40.79 59.19 40.76 59.21 40.75 59.22 40.75 59.31 40.7 59.34 40.68 59.38 40.66 59.42 40.64 59.45 40.62 59.49 40.6 59.57 40.56 59.6 40.54 59.61 40.54 59.64 40.52 59.79 40.45 59.79 40.44 59.92 40.38 60.06 40.31 60.09 40.29 60.11 40.28 60.15 40.26 60.17 40.25 60.18 40.24 60.19 40.24 60.19 40.24 60.2 40.23 60.21 40.23 60.27 40.2 60.28 40.19 60.29 40.19 60.37 40.14 60.41 40.12 60.44 40.11 60.45 40.1 60.6 40.02 60.6 40.02 60.61 40.02 60.66 40 60.76 39.94 60.89 39.88 60.9 39.87 60.98 39.83 61.16 39.74 61.17 39.74 61.17 39.74 61.18 39.73 61.38 39.63 61.42 39.61 61.45 39.59 61.5 39.57 61.51 39.56 61.53 39.55 61.72 39.46 61.77 39.43 61.78 39.43 61.84 39.4 61.85 39.4 61.94 39.35 61.95 39.35 61.99 39.32 62.01 39.32 62.06 39.29 62.07 39.28 62.07 39.28 62.12 39.26 62.18 39.23 62.22 39.21 62.23 39.21 62.25 39.2 62.33 39.16 62.37 39.14 62.38 39.13 62.43 39.11 62.44 39.1 62.47 39.09 62.56 39.04 62.56 39.04 62.57 39.04 62.67 38.99 62.72 38.97 62.89 38.89 62.92 38.87 62.95 38.86 62.96 38.85 62.97 38.85 62.99 38.84 63.03 38.82 63.04 38.81 63.1 38.78 63.16 38.76 63.2 38.74 63.2 38.74 63.31 38.69 63.35 38.66 63.36 38.66 63.36 38.66 63.37 38.66 63.47 38.61 63.51 38.59 63.55 38.57 63.57 38.56 63.63 38.53 63.86 38.42 63.95 38.38 64.02 38.35 64.04 38.34 64.06 38.33 64.1 38.31 64.11 38.31 64.19 38.27 64.21 38.26 64.24 38.24 64.28 38.23 64.32 38.21 64.38 38.18 64.45 38.15 64.47 38.14 64.5 38.13 64.61 38.08 64.61 38.07 64.64 38.06 64.67 38.05 64.72 38.03 64.76 38.01 64.78 38 64.83 37.98 64.83 37.97 64.83 37.97 64.84 37.97 64.84 37.97 64.88 37.95 64.96 37.91 64.97 37.91 64.97 37.91 64.98 37.91 65.02 37.89 65.03 37.88 65.06 37.87 65.06 37.87 65.1 37.85 65.14 37.83 65.16 37.83 65.17 37.82 65.21 37.8 65.26 37.78 65.44 37.7 65.45 37.7 65.49 37.67 65.52 37.66 65.54 37.66 65.57 37.64 65.58 37.64 65.6 37.63 65.62 37.62 65.67 37.6 65.68 37.59 65.7 37.58 65.71 37.58 65.71 37.58 65.73 37.57 65.76 37.56 65.8 37.54 65.8 37.54 65.84 37.52 65.86 37.51 65.89 37.5 65.94 37.47 65.96 37.47 66 37.45 66.02 37.44 66.11 37.4 66.12 37.4 66.12 37.4 66.15 37.38 66.16 37.38 66.23 37.35 66.23 37.35 66.29 37.32 66.4 37.28 66.41 37.27 66.41 37.27 66.53 37.22 66.57 37.2 66.65 37.17 66.66 37.16 66.67 37.16 66.68 37.15 66.81 37.1 66.84 37.08 66.84 37.08 66.86 37.08 66.86 37.07 66.88 37.07 66.89 37.06 66.93 37.05 66.95 37.04 66.96 37.03 66.98 37.02 66.98 37.02 67.06 36.99 67.08 36.98 67.08 36.98 67.09 36.98 67.11 36.97 67.13 36.96 67.14 36.95 67.15 36.95 67.16 36.95 67.17 36.94 67.25 36.91 67.26 36.9 67.26 36.9 67.39 36.85 67.4 36.84 67.42 36.83 67.46 36.82 67.49 36.81 67.54 36.79 67.57 36.77 67.61 36.76 67.61 36.76 67.61 36.76 67.61 36.76 67.62 36.75 67.64 36.74 67.65 36.74 67.67 36.73 67.69 36.72 67.7 36.72 67.73 36.71 67.74 36.7 67.85 36.66 67.89 36.64 67.91 36.63 67.92 36.63 67.95 36.61 68.06 36.57 68.07 36.56 68.07 36.56 68.07 36.56 68.08 36.56 68.1 36.55 68.14 36.53 68.15 36.53 68.22 36.5 68.24 36.49 68.31 36.46 68.32 36.46 68.38 36.44 68.4 36.43 68.41 36.42 68.41 36.42 68.44 36.41 68.47 36.4 68.49 36.39 68.52 36.38 68.56 36.36 68.58 36.35 68.68 36.31 68.69 36.31 68.71 36.3 68.71 36.3 68.77 36.28 68.84 36.25 68.93 36.21 68.95 36.2 68.96 36.2 69.01 36.18 69.03 36.17 69.08 36.15 69.08 36.15 69.08 36.15 69.12 36.13 69.17 36.11 69.18 36.11 69.21 36.1 69.27 36.07 69.34 36.05 69.34 36.05 69.37 36.03 69.38 36.03 69.39 36.03 69.43 36.01 69.48 35.99 69.48 35.99 69.49 35.99 69.49 35.98 69.52 35.97 69.59 35.94 69.6 35.94 69.71 35.9 69.73 35.89 69.74 35.88 69.74 35.88 69.75 35.88 69.77 35.87 69.79 35.86 69.81 35.86 69.82 35.85 69.83 35.85 69.88 35.83 69.93 35.81 69.93 35.81 69.94 35.81 69.94 35.8 69.96 35.8 69.97 35.79 70.05 35.76 70.06 35.76 70.08 35.75 70.19 35.71 70.2 35.7 70.23 35.69 70.27 35.68 70.3 35.66 70.31 35.66 70.32 35.66 70.35 35.65 70.35 35.64 70.35 35.64 70.37 35.63 70.42 35.62 70.43 35.61 70.44 35.61 70.45 35.61 70.45 35.6 70.47 35.6 70.49 35.59 70.53 35.57 70.54 35.57 70.54 35.57 70.56 35.56 70.56 35.56 70.61 35.54 70.69 35.51 70.69 35.51 70.7 35.51 70.74 35.49 70.75 35.49 70.75 35.49 70.79 35.47 70.8 35.47 70.8 35.47 70.8 35.47 70.85 35.45 70.86 35.44 70.91 35.43 70.92 35.42 70.93 35.42 70.93 35.42 70.93 35.42 70.95 35.41 70.97 35.4 70.97 35.4 71 35.39 71.01 35.39 71.04 35.37 71.05 35.37 71.05 35.37 71.06 35.37 71.07 35.36 71.14 35.34 71.18 35.32 71.19 35.32 71.22 35.31 71.23 35.3 71.23 35.3 71.27 35.29 71.29 35.28 71.38 35.25 71.41 35.23 71.42 35.23 71.48 35.21 71.49 35.2 71.5 35.2 71.51 35.19 71.51 35.19 71.55 35.18 71.55 35.18 71.6 35.16 71.64 35.15 71.64 35.15 71.64 35.15 71.66 35.14 71.68 35.13 71.7 35.12 71.73 35.11 71.74 35.11 71.75 35.1 71.78 35.09 71.82 35.08 71.83 35.08 71.84 35.07 71.88 35.06 71.88 35.05 71.98 35.02 72.03 35 72.06 34.99 72.07 34.98 72.09 34.98 72.1 34.97 72.13 34.96 72.15 34.95 72.19 34.94 72.19 34.94 72.24 34.92 72.26 34.91 72.28 34.91 72.29 34.9 72.3 34.9 72.35 34.88 72.37 34.87 72.37 34.87 72.38 34.87 72.39 34.86 72.48 34.83 72.58 34.79 72.59 34.79 72.62 34.78 72.65 34.76 72.66 34.76 72.68 34.76 72.69 34.75 72.73 34.74 72.73 34.74 72.73 34.74 72.76 34.73 72.85 34.69 72.9 34.67 72.92 34.67 72.97 34.65 72.98 34.64 72.98 34.64 73.01 34.63 73.01 34.63 73.01 34.63 73.02 34.63 73.04 34.62 73.07 34.61 73.09 34.6 73.09 34.6 73.1 34.6 73.1 34.6 73.16 34.58 73.21 34.56 73.23 34.55 73.24 34.55 73.26 34.54 73.32 34.52 73.33 34.51 73.33 34.51 73.38 34.5 73.4 34.49 73.41 34.49 73.43 34.48 73.44 34.47 73.45 34.47 73.46 34.47 73.47 34.46 73.56 34.43 73.57 34.43 73.59 34.42 73.62 34.41 73.62 34.41 73.63 34.41 73.67 34.39 73.71 34.37 73.74 34.37 73.78 34.35 73.8 34.34 73.82 34.34 73.82 34.33 73.85 34.33 73.87 34.32 73.87 34.32 73.87 34.32 73.89 34.31 73.91 34.3 73.93 34.29 73.94 34.29 73.95 34.29 73.98 34.28 74 34.27 74.01 34.27 74.03 34.26 74.04 34.26 74.07 34.24 74.09 34.23 74.13 34.22 74.15 34.21 74.17 34.21 74.19 34.2 74.22 34.19 74.26 34.18 74.27 34.17 74.32 34.15 74.39 34.13 74.39 34.13 74.42 34.12 74.44 34.11 74.48 34.09 74.5 34.09 74.51 34.08 74.56 34.06 74.65 34.03 74.67 34.03 74.67 34.02 74.68 34.02 74.75 34 74.78 33.98 74.8 33.98 74.8 33.98 74.83 33.97 74.85 33.96 74.88 33.95 74.89 33.95 74.92 33.93 74.93 33.93 74.94 33.93 74.95 33.92 74.97 33.92 74.99 33.91 75.01 33.9 75.02 33.9 75.04 33.89 75.06 33.88 75.09 33.87 75.09 33.87 75.1 33.87 75.13 33.86 75.14 33.86 75.15 33.85 75.2 33.83 75.21 33.83 75.22 33.83 75.22 33.83 75.22 33.83 75.23 33.82 75.26 33.81 75.28 33.8 75.31 33.8 75.4 33.76 75.45 33.74 75.46 33.74 75.46 33.74 75.47 33.74 75.5 33.73 75.5 33.73 75.51 33.72 75.52 33.72 75.52 33.72 75.53 33.72 75.65 33.67 75.66 33.67 75.67 33.67 75.82 33.61 75.82 33.61 75.84 33.61 75.85 33.6 75.87 33.6 75.92 33.58 75.98 33.55 75.99 33.55 76.02 33.54 76.04 33.53 76.05 33.53 76.14 33.5 76.14 33.5 76.18 33.48 76.2 33.48 76.24 33.46 76.24 33.46 76.25 33.46 76.27 33.45 76.27 33.45 76.32 33.43 76.35 33.42 76.37 33.41 76.37 33.41 76.37 33.41 76.38 33.41 76.39 33.41 76.42 33.4 76.42 33.4 76.45 33.39 76.45 33.38 76.46 33.38 76.47 33.38 76.51 33.36 76.52 33.36 76.53 33.36 76.53 33.36 76.54 33.36 76.58 33.34 76.59 33.34 76.7 33.3 76.72 33.29 76.75 33.28 76.77 33.27 76.79 33.27 76.81 33.26 76.84 33.25 76.88 33.23 76.9 33.22 76.91 33.22 76.92 33.22 76.94 33.21 77.04 33.17 77.13 33.14 77.17 33.13 77.17 33.13 77.19 33.12 77.19 33.12 77.2 33.12 77.2 33.12 77.22 33.11 77.24 33.1 77.26 33.1 77.27 33.09 77.28 33.09 77.34 33.07 77.34 33.07 77.34 33.07 77.34 33.07 77.39 33.05 77.4 33.05 77.43 33.04 77.45 33.03 77.45 33.03 77.46 33.03 77.52 33 77.58 32.98 77.62 32.97 77.68 32.95 77.69 32.94 77.69 32.94 77.69 32.94 77.71 32.93 77.71 32.93 77.73 32.93 77.74 32.92 77.75 32.92 77.75 32.92 77.75 32.92 77.79 32.91 77.8 32.9 77.8 32.9 77.84 32.89 77.9 32.87 77.93 32.86 77.96 32.85 77.99 32.84 78.03 32.82 78.04 32.82 78.06 32.81 78.08 32.8 78.09 32.8 78.11 32.79 78.13 32.79 78.14 32.78 78.17 32.77 78.17 32.77 78.23 32.75 78.25 32.74 78.28 32.73 78.28 32.73 78.29 32.73 78.31 32.72 78.31 32.72 78.35 32.71 78.36 32.7 78.38 32.69 78.41 32.68 78.43 32.68 78.45 32.67 78.48 32.66 78.52 32.65 78.58 32.62 78.58 32.62 78.63 32.6 78.64 32.6 78.65 32.6 78.67 32.59 78.69 32.58 78.7 32.58 78.7 32.58 78.71 32.58 78.74 32.57 78.75 32.56 78.76 32.56 78.81 32.54 78.82 32.54 78.82 32.54 78.86 32.52 78.93 32.5 78.96 32.49 78.96 32.49 78.96 32.49 78.97 32.48 79.03 32.46 79.05 32.46 79.07 32.45 79.08 32.44 79.09 32.44 79.16 32.42 79.2 32.4 79.26 32.38 79.26 32.38 79.28 32.37 79.29 32.37 79.29 32.37 79.3 32.36 79.31 32.36 79.4 32.33 79.42 32.32 79.42 32.32 79.42 32.32 79.43 32.32 79.45 32.31 79.46 32.3 79.47 32.3 79.52 32.28 79.58 32.26 79.59 32.26 79.59 32.26 79.6 32.25 79.61 32.25 79.66 32.23 79.67 32.23 79.67 32.23 79.67 32.23 79.7 32.22 79.72 32.21 79.74 32.21 79.79 32.18 79.8 32.18 79.82 32.17 79.84 32.17 79.86 32.16 79.88 32.15 79.88 32.15 79.92 32.14 79.98 32.12 80.02 32.1 80.03 32.1 80.05 32.09 80.08 32.08 80.09 32.08 80.09 32.07 80.09 32.07 80.14 32.06 80.37 31.97 80.37 31.97 80.38 31.97 80.44 31.95 80.45 31.95 80.45 31.94 80.53 31.91 80.53 31.91 80.57 31.9 80.57 31.9 80.6 31.89 80.61 31.89 80.62 31.88 80.69 31.86 80.74 31.84 80.76 31.83 80.82 31.81 80.82 31.81 80.89 31.78 80.89 31.78 80.93 31.77 80.93 31.77 80.98 31.75 80.99 31.75 80.99 31.75 81.01 31.74 81.03 31.73 81.06 31.72 81.1 31.71 81.15 31.68 81.16 31.68 81.19 31.67 81.23 31.65 81.23 31.65 81.24 31.65 81.24 31.65 81.26 31.64 81.27 31.64 81.37 31.6 81.39 31.6 81.43 31.58 81.46 31.57 81.49 31.56 81.51 31.55 81.52 31.55 81.53 31.54 81.56 31.53 81.56 31.53 81.6 31.52 81.66 31.5 81.68 31.49 81.7 31.48 81.7 31.48 81.73 31.47 81.74 31.46 81.75 31.46 81.83 31.43 81.89 31.41 81.91 31.4 81.97 31.38 81.98 31.37 82 31.37 82.01 31.36 82.02 31.36 82.03 31.35 82.04 31.35 82.08 31.34 82.08 31.34 82.08 31.33 82.11 31.33 82.15 31.31 82.15 31.31 82.16 31.3 82.17 31.3 82.17 31.3 82.19 31.3 82.2 31.29 82.21 31.29 82.27 31.26 82.3 31.25 82.31 31.25 82.37 31.23 82.4 31.22 82.41 31.21 82.42 31.21 82.43 31.2 82.54 31.16 82.54 31.16 82.57 31.15 82.58 31.15 82.58 31.14 82.63 31.13 82.63 31.13 82.65 31.12 82.65 31.12 82.77 31.07 82.77 31.07 82.83 31.05 82.83 31.05 82.83 31.05 82.86 31.04 82.91 31.02 82.92 31.01 82.96 31 82.98 30.99 83 30.98 83.01 30.98 83.04 30.97 83.1 30.95 83.13 30.94 83.21 30.9 83.25 30.89 83.25 30.89 83.25 30.89 83.29 30.87 83.3 30.87 83.43 30.82 83.43 30.82 83.44 30.82 83.45 30.81 83.46 30.81 83.55 30.77 83.56 30.77 83.57 30.76 83.6 30.75 83.61 30.75 83.61 30.75 83.62 30.74 83.63 30.74 83.63 30.74 83.66 30.73 83.68 30.72 83.7 30.71 83.7 30.71 83.75 30.69 83.75 30.69 83.78 30.68 83.81 30.67 83.93 30.62 83.95 30.61 83.97 30.61 84 30.59 84 30.59 84.02 30.59 84.02 30.58 84.06 30.57 84.06 30.57 84.06 30.57 84.07 30.56 84.12 30.55 84.13 30.54 84.18 30.52 84.18 30.52 84.26 30.49 84.3 30.48 84.31 30.47 84.32 30.46 84.34 30.46 84.45 30.41 84.45 30.41 84.48 30.4 84.48 30.4 84.51 30.39 84.54 30.38 84.64 30.34 84.64 30.34 84.64 30.34 84.65 30.33 84.69 30.32 84.73 30.3 84.75 30.29 84.76 30.29 84.76 30.29 84.79 30.28 84.85 30.25 84.87 30.25 84.96 30.21 85 30.19 85.05 30.17 85.08 30.16 85.13 30.14 85.17 30.12 85.22 30.1 85.24 30.09 85.25 30.09 85.26 30.09 85.3 30.07 85.33 30.06 85.36 30.05 85.36 30.05 85.37 30.04 85.38 30.04 85.43 30.02 85.49 29.99 85.51 29.99 85.52 29.98 85.59 29.95 85.6 29.95 85.61 29.94 85.61 29.94 85.62 29.94 85.64 29.93 85.67 29.92 85.77 29.88 85.85 29.85 85.9 29.82 85.93 29.81 85.94 29.81 85.94 29.81 85.97 29.8 85.97 29.79 85.99 29.79 86.08 29.75 86.1 29.74 86.13 29.73 86.15 29.72 86.16 29.72 86.17 29.71 86.2 29.7 86.2 29.7 86.23 29.69 86.29 29.66 86.3 29.66 86.32 29.65 86.37 29.63 86.41 29.61 86.44 29.6 86.45 29.59 86.54 29.56 86.54 29.56 86.56 29.55 86.64 29.51 86.65 29.51 86.68 29.5 86.71 29.48 86.74 29.47 86.79 29.45 86.8 29.45 86.85 29.43 86.88 29.41 86.88 29.41 86.92 29.4 86.95 29.38 86.95 29.38 87.05 29.34 87.05 29.34 87.07 29.33 87.11 29.32 87.11 29.31 87.12 29.31 87.14 29.3 87.21 29.27 87.21 29.27 87.22 29.27 87.28 29.24 87.32 29.23 87.35 29.21 87.38 29.2 87.39 29.19 87.41 29.19 87.43 29.18 87.47 29.16 87.5 29.15 87.53 29.13 87.59 29.11 87.61 29.1 87.62 29.09 87.63 29.09 87.68 29.07 87.7 29.06 87.7 29.06 87.76 29.03 87.77 29.03 87.77 29.03 87.81 29.01 87.82 29.01 87.83 29 87.93 28.96 88.02 28.92 88.07 28.9 88.07 28.9 88.09 28.89 88.15 28.87 88.15 28.86 88.16 28.86 88.21 28.84 88.21 28.84 88.22 28.83 88.29 28.8 88.32 28.79 88.35 28.77 88.38 28.76 88.38 28.76 88.4 28.75 88.5 28.71 88.57 28.68 88.63 28.65 88.63 28.65 88.64 28.65 88.64 28.65 88.7 28.62 88.7 28.62 88.7 28.62 88.8 28.58 88.85 28.55 88.89 28.54 88.93 28.52 88.94 28.51 88.97 28.5 89 28.49 89.1 28.44 89.11 28.44 89.11 28.44 89.2 28.4 89.26 28.37 89.26 28.37 89.29 28.36 89.44 28.29 89.44 28.29 89.5 28.26 89.52 28.26 89.59 28.22 89.6 28.22 89.65 28.2 89.66 28.19 89.68 28.18 89.69 28.18 89.7 28.17 89.76 28.15 89.77 28.14 89.78 28.14 89.79 28.13 89.91 28.08 89.92 28.07 89.92 28.07 90.14 27.97 90.21 27.94 90.26 27.92 90.37 27.87 90.37 27.87 90.37 27.87 90.43 27.84 90.54 27.79 90.54 27.79 90.64 27.74 90.67 27.73 90.72 27.71 90.78 27.68 90.82 27.66 90.83 27.66 90.9 27.63 91.02 27.57 91.04 27.56 91.05 27.56 91.06 27.55 91.07 27.55 91.15 27.51 91.15 27.51 91.17 27.5 91.24 27.47 91.27 27.46 91.42 27.39 91.43 27.38 91.43 27.38 91.51 27.34 91.6 27.3 91.7 27.26 91.72 27.25 91.83 27.2 91.84 27.19 91.84 27.19 91.84 27.19 92.03 27.11 92.03 27.11 92.04 27.1 92.08 27.08 92.13 27.06 92.19 27.03 92.23 27.01 92.44 26.92 92.61 26.83 92.61 26.83 92.63 26.83 92.66 26.81 92.69 26.8 92.73 26.78 92.76 26.77 92.85 26.72 92.86 26.72 92.87 26.72 92.88 26.71 92.9 26.7 92.98 26.66 93 26.66 93.17 26.58 93.18 26.57 93.18 26.57 93.21 26.56 93.36 26.49 93.58 26.39 93.68 26.34 93.68 26.34 93.72 26.32 93.76 26.31 93.81 26.28 93.92 26.23 93.95 26.22 93.96 26.21 94.1 26.15 94.19 26.11 94.28 26.07 94.3 26.06 94.3 26.06 94.44 26 94.47 25.98 94.62 25.91 94.69 25.88 94.84 25.82 95.01 25.74 95.18 25.66 95.24 25.63 95.25 25.63 95.31 25.61 95.37 25.58 95.51 25.52 95.62 25.47 96.32 25.17 96.37 25.15 96.37 25.15 96.65 25.03 96.67 25.02 96.68 25.02 96.77 24.98 96.81 24.96 97.08 24.85 97.27 24.78 97.31 24.76 97.48 24.7 97.58 24.66 97.61 24.65 97.8 24.57 98.23 24.41 98.48 24.32 98.67 24.26 98.8 24.21 98.9 24.18 99.05 24.13 99.29 24.05 99.33 24.04 99.51 23.98 99.55 23.97 99.59 23.96 99.59 23.96 99.61 23.95 99.73 23.92 99.77 23.91 100.84 23.64 101.06 23.59 101.2 23.56 101.39 23.53 101.46 23.52 101.52 23.51 101.95 23.44 102.11 23.42 102.36 23.4 102.57 23.38 103.52 23.37 103.7 23.37 103.8 23.38 104.77 23.51 105.82 23.79 106.63 24.14 110.32 27.5"/>
      </g>
    </g>
  </g>
  <g class="guide ylabels" font-size="2.82" font-family="'PT Sans Caption','Helvetica Neue','Helvetica',sans-serif" fill="#6C606B" id="fig-d5cfd8d96d3948619e0cf65364369470-element-17">
    <text x="16.96" y="78.71" text-anchor="end" dy="0.35em">5</text>
    <text x="16.96" y="68.03" text-anchor="end" dy="0.35em">6</text>
    <text x="16.96" y="57.35" text-anchor="end" dy="0.35em">7</text>
    <text x="16.96" y="46.66" text-anchor="end" dy="0.35em">8</text>
    <text x="16.96" y="35.98" text-anchor="end" dy="0.35em">9</text>
    <text x="16.96" y="25.3" text-anchor="end" dy="0.35em">10</text>
    <text x="16.96" y="14.61" text-anchor="end" dy="0.35em">11</text>
  </g>
  <g font-size="3.88" font-family="'PT Sans','Helvetica Neue','Helvetica',sans-serif" fill="#564A55" stroke="#000000" stroke-opacity="0.000" id="fig-d5cfd8d96d3948619e0cf65364369470-element-18">
    <text x="8.81" y="44.66" text-anchor="middle" dy="0.35em" transform="rotate(-90, 8.81, 46.66)">Y0tc</text>
  </g>
  <g font-size="3.88" font-family="'PT Sans','Helvetica Neue','Helvetica',sans-serif" fill="#564A55" stroke="#000000" stroke-opacity="0.000" id="fig-d5cfd8d96d3948619e0cf65364369470-element-19">
    <text x="68.47" y="10.61" text-anchor="middle">Actual Data vs. Efromovich Shrinkage Estimator, K = 12</text>
  </g>
</g>
<defs>
<clipPath id="fig-d5cfd8d96d3948619e0cf65364369470-element-9">
  <path d="M17.96,12.61 L 118.99 12.61 118.99 80.72 17.96 80.72" />
</clipPath
></defs>
</svg>
